{"glyphs":{"0":{"ha":894,"x_min":56,"x_max":831,"o":"m 709 674 q 709 667 705 670 q 716 661 713 663 q 724 655 719 658 q 731 648 728 652 q 744 631 741 633 q 747 623 747 628 q 760 612 758 612 q 758 609 761 612 q 770 593 769 595 q 774 590 772 591 q 783 574 781 575 q 787 571 784 574 q 792 553 791 556 q 796 547 793 551 q 800 538 799 544 q 804 526 802 532 q 806 503 802 509 q 814 491 810 498 q 813 479 810 486 q 814 464 817 472 q 819 444 821 446 q 829 413 826 425 q 829 389 831 401 q 826 374 823 374 q 830 370 829 373 q 830 362 831 366 q 829 355 829 358 q 831 340 831 343 q 830 335 830 338 q 829 315 829 326 q 829 294 830 304 q 818 256 826 269 q 816 245 817 248 q 812 241 815 243 q 812 231 814 235 q 807 222 810 227 q 806 207 808 208 q 803 205 804 206 q 798 188 799 189 q 798 183 798 187 q 791 165 791 178 q 785 161 787 164 q 780 155 784 157 q 777 141 777 144 q 776 136 777 138 q 765 113 766 126 q 749 90 754 94 q 743 76 743 87 q 728 62 731 64 q 726 56 726 60 q 715 45 718 47 q 712 37 712 42 q 701 28 703 34 q 692 22 699 23 q 682 4 684 5 q 668 -7 670 -4 q 659 -11 666 -11 q 647 -25 648 -24 q 643 -26 646 -26 q 629 -37 631 -34 q 624 -42 627 -41 q 608 -50 610 -49 q 604 -53 606 -50 q 591 -57 593 -58 q 587 -57 590 -56 q 578 -63 581 -60 q 574 -68 576 -66 q 561 -71 564 -71 q 551 -73 557 -72 q 530 -82 543 -80 q 509 -91 518 -84 q 496 -92 502 -90 q 483 -94 490 -94 q 463 -92 467 -91 q 456 -94 460 -94 q 436 -100 442 -98 q 422 -104 430 -102 q 401 -105 408 -104 q 388 -103 395 -106 q 367 -104 377 -104 q 350 -102 357 -104 q 338 -98 343 -98 q 331 -98 334 -99 q 315 -95 326 -98 q 300 -90 302 -90 q 296 -85 298 -90 q 276 -81 279 -83 q 270 -79 273 -79 q 248 -69 255 -79 q 228 -60 233 -64 q 221 -55 225 -57 q 214 -49 217 -53 q 203 -43 205 -43 q 201 -39 201 -42 q 192 -33 194 -34 q 189 -30 190 -33 q 178 -18 178 -22 q 168 -12 170 -11 q 163 -9 165 -12 q 157 -1 161 -4 q 149 5 152 1 q 137 19 141 19 q 129 31 129 26 q 125 33 129 35 q 111 49 121 43 q 106 66 104 64 q 106 71 109 68 q 96 89 98 83 q 91 98 95 95 q 83 111 90 109 q 79 130 80 126 q 71 147 72 146 q 71 153 71 148 q 66 174 65 167 q 61 187 66 182 q 61 204 62 202 q 60 209 60 206 q 59 227 61 222 q 57 241 57 232 q 57 256 58 252 q 56 262 56 259 q 57 274 56 269 q 58 288 58 279 q 58 300 57 298 q 60 304 60 301 q 60 321 61 312 q 64 334 58 330 q 62 349 61 346 q 65 354 64 351 q 66 363 66 359 q 68 373 66 368 q 72 389 71 388 q 76 402 75 400 q 75 408 77 404 q 78 421 79 415 q 79 435 77 427 q 86 446 83 444 q 90 452 90 449 q 92 467 92 463 q 104 485 102 479 q 107 499 106 491 q 119 522 114 517 q 126 537 125 526 q 136 550 133 543 q 146 560 138 557 q 153 573 153 570 q 156 579 153 576 q 162 584 159 582 q 165 591 165 586 q 180 602 176 598 q 187 612 184 605 q 197 616 194 613 q 205 625 201 620 q 220 635 216 628 q 233 642 232 639 q 236 646 233 644 q 252 654 251 652 q 255 659 252 656 q 266 663 263 658 q 275 667 269 667 q 288 677 286 675 q 292 680 289 680 q 305 686 305 684 q 308 689 305 688 q 326 695 323 696 q 332 696 330 694 q 353 706 349 704 q 361 711 358 708 q 381 719 373 711 q 396 722 391 716 q 411 727 401 728 q 432 736 427 732 q 444 741 437 741 q 460 741 450 741 q 480 742 471 741 q 488 741 484 742 q 496 741 491 741 q 517 742 510 741 q 537 743 530 743 q 548 742 544 743 q 562 736 559 736 q 567 735 564 736 q 587 730 576 732 q 606 722 605 724 q 624 718 621 718 q 648 707 643 709 q 661 701 654 704 q 669 694 666 696 q 674 694 671 693 q 678 688 674 689 q 684 682 682 686 q 709 674 694 674 m 716 419 q 718 433 718 430 q 719 438 719 435 q 711 459 715 456 q 705 467 708 463 q 703 481 705 477 q 700 491 700 484 q 692 510 694 499 q 684 525 685 521 q 678 532 682 529 q 673 545 677 540 q 667 559 669 549 q 654 572 658 568 q 648 583 650 576 q 629 602 635 591 q 617 613 618 612 q 614 617 616 614 q 591 628 598 627 q 577 638 581 633 q 566 640 574 643 l 552 647 q 522 662 538 658 q 510 669 511 670 q 506 669 509 667 q 492 675 499 671 q 473 680 484 678 q 463 674 468 673 q 452 675 458 675 q 429 674 434 673 q 420 677 425 675 q 395 671 406 674 q 383 673 385 675 q 378 670 381 670 q 369 669 374 673 q 361 662 363 665 q 340 653 349 655 q 327 644 331 651 q 315 642 319 643 q 308 637 311 640 q 293 625 298 628 q 275 617 277 620 q 270 616 273 614 q 264 608 267 612 q 258 602 260 605 q 243 593 247 595 q 236 589 239 591 q 231 578 235 582 q 224 571 228 575 q 222 563 225 564 q 216 557 218 562 q 215 551 218 555 q 213 541 212 547 q 199 524 203 528 q 193 515 194 521 q 182 501 184 506 q 182 487 180 496 q 174 478 178 483 q 174 464 171 473 q 170 448 168 449 q 167 438 168 444 q 163 430 165 433 q 155 404 155 411 q 153 389 156 397 q 150 382 152 385 q 146 373 148 378 q 147 355 148 362 q 146 345 146 347 q 147 335 148 338 q 142 330 146 332 q 140 308 145 319 q 146 281 142 292 q 141 262 149 270 q 148 250 148 258 q 151 237 148 243 q 150 229 148 232 q 149 220 152 225 q 156 202 157 206 q 153 194 155 198 q 160 184 156 187 q 161 171 164 182 q 169 153 167 157 q 170 142 171 149 q 176 138 174 140 q 182 133 179 136 q 194 119 191 122 q 199 114 197 117 q 205 102 199 106 q 214 92 210 98 q 218 84 216 87 q 220 76 220 81 q 230 68 225 72 q 237 60 235 65 q 247 52 245 53 q 251 47 248 50 q 272 34 266 35 q 279 24 278 33 q 302 9 297 19 q 316 5 316 4 q 317 4 316 5 q 332 -4 330 -3 q 339 -5 335 -5 q 351 -14 351 -11 q 355 -14 351 -16 q 370 -23 366 -23 q 382 -25 380 -24 q 387 -27 384 -26 q 403 -31 393 -30 q 419 -35 412 -33 q 450 -41 435 -42 q 476 -43 464 -41 q 492 -45 488 -46 q 498 -43 495 -43 q 519 -42 509 -41 q 538 -39 530 -43 q 559 -24 557 -35 q 572 -14 568 -18 q 579 -4 576 -11 q 589 1 587 -4 q 600 7 591 7 q 617 31 616 24 q 628 45 628 41 q 652 66 640 57 q 659 77 659 76 q 659 81 658 79 q 671 107 669 98 q 675 115 673 111 q 675 125 677 119 q 686 143 685 140 q 686 153 688 146 q 696 165 693 164 q 697 172 699 167 q 707 196 703 189 q 712 214 712 203 q 717 227 716 218 q 724 239 718 235 q 724 248 722 244 q 727 255 726 251 q 726 265 727 260 q 727 274 726 270 q 729 285 730 283 q 728 289 728 286 q 732 323 730 317 q 730 335 728 330 q 732 345 731 340 q 732 355 734 351 q 730 362 731 359 q 727 382 727 372 q 722 401 727 393 q 719 413 719 410 q 716 419 719 416 z "},"1":{"ha":465,"x_min":20,"x_max":350,"o":"m 315 68 q 314 51 315 60 q 316 35 313 42 q 314 20 315 24 q 315 8 313 15 q 315 -13 313 -8 q 316 -20 316 -18 q 314 -52 315 -39 q 315 -76 313 -64 q 313 -90 315 -88 q 312 -94 312 -91 q 313 -106 312 -100 q 312 -118 315 -113 q 312 -149 308 -134 q 313 -175 316 -163 q 324 -197 320 -194 q 320 -204 321 -199 q 316 -213 319 -209 q 306 -213 311 -213 q 302 -220 301 -213 q 292 -223 292 -218 q 290 -231 293 -228 q 274 -229 277 -229 q 266 -231 271 -228 q 252 -239 254 -240 q 248 -239 251 -237 q 239 -243 243 -240 q 231 -248 235 -245 q 220 -248 224 -245 q 212 -251 217 -251 q 203 -231 205 -235 q 199 -225 202 -228 q 204 -210 205 -214 q 201 -203 203 -206 q 205 -190 206 -197 q 201 -176 203 -183 q 205 -164 206 -165 q 205 -160 203 -163 q 204 -145 206 -149 q 208 -137 202 -141 q 208 -122 203 -126 q 209 -91 206 -104 q 208 -77 209 -83 q 209 -62 208 -71 q 212 -43 212 -47 q 213 -34 213 -38 q 212 -24 213 -28 q 214 -15 210 -20 q 214 1 212 -4 q 214 13 213 12 q 214 16 214 14 q 214 27 213 24 q 216 33 216 30 q 217 54 214 46 q 217 79 216 69 q 217 99 218 90 q 218 118 216 109 q 222 131 222 130 q 221 134 221 132 q 221 156 221 151 q 218 164 221 161 q 221 176 221 170 q 225 186 221 183 q 224 199 227 197 q 225 206 222 202 q 226 218 228 213 q 228 231 224 224 q 228 247 228 243 q 228 256 228 251 q 228 266 227 262 q 229 275 229 270 q 229 294 228 290 q 231 301 231 297 q 230 311 231 305 q 231 323 229 316 q 233 336 233 335 q 232 340 232 338 q 234 359 232 350 q 233 374 236 368 q 235 399 235 395 q 238 419 239 414 q 240 431 237 425 q 239 452 236 446 q 238 469 236 461 q 240 487 240 477 q 238 499 237 498 q 239 503 239 500 l 237 536 q 237 557 239 551 q 239 571 235 564 q 236 578 235 574 q 237 589 237 583 q 237 600 236 598 q 237 604 237 601 q 235 639 239 627 q 232 663 232 651 q 232 676 233 674 q 231 681 231 678 q 229 695 229 688 q 227 709 229 703 q 212 700 213 700 q 208 697 210 700 q 187 688 195 690 q 172 679 176 681 q 161 674 167 677 q 151 669 156 671 q 142 662 145 667 q 132 656 136 658 q 126 652 129 655 q 92 636 98 654 q 61 627 71 642 q 49 627 54 628 q 38 627 43 625 q 26 633 30 629 q 20 643 23 637 q 26 661 26 655 q 38 670 31 667 q 52 675 45 673 q 85 696 79 680 q 103 697 99 696 q 109 703 107 699 q 127 704 125 700 q 132 704 129 708 q 142 711 141 709 q 149 711 144 712 q 172 730 167 723 q 184 739 176 736 q 197 757 190 751 q 203 768 199 769 q 208 770 206 768 q 212 784 208 780 q 218 798 217 788 q 222 804 221 800 q 227 812 224 808 q 227 838 222 831 q 235 854 232 844 q 246 856 243 854 q 251 860 250 857 q 261 861 259 859 q 269 864 263 864 q 281 874 278 873 q 288 873 283 875 q 299 883 293 878 q 315 886 305 888 q 326 888 319 888 q 338 888 334 887 q 346 873 345 880 q 342 857 350 864 q 342 848 345 852 q 339 838 340 844 q 340 813 340 821 q 335 799 339 806 q 338 785 339 793 q 335 770 338 777 q 338 747 336 754 q 335 732 340 739 q 340 714 338 724 q 340 696 343 704 q 339 678 340 682 q 341 670 339 673 q 345 663 343 667 q 342 654 345 659 q 342 646 339 650 q 339 631 335 632 q 342 624 343 629 q 339 609 335 610 q 338 587 335 598 q 343 566 340 575 q 335 553 334 555 q 336 548 336 552 q 337 535 335 537 q 340 530 339 533 q 338 511 338 514 q 336 505 339 507 q 336 479 342 487 q 340 465 340 475 q 338 446 339 456 q 337 427 339 434 q 335 414 335 420 q 337 399 335 407 q 334 384 339 391 q 333 368 334 370 q 330 365 332 365 q 334 345 334 357 q 332 322 331 328 q 328 313 332 316 q 330 297 332 298 q 328 293 328 296 q 330 283 328 286 q 330 273 332 279 q 328 261 327 262 q 328 258 328 260 q 326 246 326 248 q 327 241 327 244 q 325 226 324 229 q 321 220 326 222 q 323 205 321 208 q 324 199 326 203 q 321 184 323 184 q 320 182 320 184 l 316 161 q 315 152 316 155 q 316 142 313 149 q 313 123 315 129 q 316 114 311 118 q 313 96 312 100 q 313 88 315 92 l 315 68 z "},"2":{"ha":765,"x_min":-14,"x_max":758,"o":"m 719 -129 q 735 -127 735 -126 q 738 -130 735 -129 q 753 -130 750 -132 q 758 -130 755 -127 q 749 -144 751 -144 q 745 -148 746 -145 q 734 -158 738 -155 q 728 -164 731 -161 q 707 -176 715 -174 q 692 -183 692 -183 q 677 -193 681 -190 q 670 -198 673 -195 l 652 -208 q 635 -220 640 -218 q 625 -224 629 -221 q 612 -231 613 -231 q 604 -231 608 -232 q 595 -231 600 -231 q 581 -237 583 -235 q 575 -240 578 -240 q 567 -241 571 -241 q 557 -241 563 -240 q 543 -247 548 -247 q 536 -248 538 -247 q 480 -250 506 -256 q 460 -249 468 -250 q 448 -241 452 -248 q 431 -239 431 -241 q 427 -235 430 -236 q 413 -233 414 -235 q 410 -229 412 -231 q 401 -229 404 -232 q 395 -225 397 -227 q 378 -219 384 -222 q 366 -213 373 -216 q 336 -205 346 -205 q 326 -196 331 -199 q 309 -194 320 -193 q 293 -184 304 -184 q 267 -170 277 -171 q 254 -161 256 -170 q 237 -157 240 -159 q 233 -159 235 -156 q 217 -150 227 -153 q 198 -148 208 -146 q 182 -138 184 -138 q 174 -134 179 -137 q 150 -132 157 -130 q 140 -127 142 -134 q 125 -128 133 -130 q 111 -126 118 -126 q 99 -128 104 -126 q 83 -129 94 -130 q 66 -125 68 -125 q 62 -126 65 -126 q 38 -125 46 -123 q 19 -130 30 -127 q 4 -134 7 -138 q -8 -132 1 -130 q -12 -119 -14 -119 q -11 -117 -11 -119 q -5 -98 -9 -102 l 9 -91 q 33 -81 27 -85 q 43 -72 38 -76 q 60 -69 58 -72 q 68 -64 62 -66 q 82 -62 79 -64 q 88 -61 85 -61 q 103 -60 100 -61 q 109 -58 106 -60 q 123 -57 121 -56 q 130 -58 126 -58 q 148 -58 137 -60 q 167 -58 159 -56 q 176 -55 171 -56 q 184 -52 180 -54 q 201 -40 197 -41 q 210 -37 206 -39 q 216 -31 213 -34 q 221 -24 218 -27 q 245 -7 236 -19 q 254 -1 254 -3 q 258 3 255 0 q 274 14 267 4 q 292 26 286 23 q 301 39 298 30 q 312 44 308 42 q 317 53 316 46 q 334 62 328 60 q 339 67 336 65 q 346 72 342 69 q 362 87 358 84 q 369 94 366 91 q 382 104 378 99 q 391 110 385 109 q 399 121 393 117 q 410 132 404 125 q 430 155 422 153 q 440 170 439 167 q 442 175 441 172 q 453 186 450 187 q 469 217 464 213 q 473 226 471 222 q 476 235 475 229 q 485 248 483 244 q 490 254 487 251 q 501 279 498 270 q 511 294 505 288 q 515 305 515 301 q 519 311 515 309 q 524 324 521 319 q 529 334 526 330 q 537 357 534 355 q 537 368 534 362 q 541 380 540 373 q 543 395 544 387 q 548 407 543 403 q 550 419 548 414 q 555 427 552 425 l 555 445 q 560 460 562 460 q 564 477 563 476 q 566 479 566 477 q 564 486 566 481 q 564 494 562 490 q 568 509 568 506 q 567 514 567 511 q 567 524 566 519 q 566 532 568 529 q 568 538 568 534 q 567 548 567 543 q 567 566 566 557 q 567 582 568 574 q 557 606 563 598 q 553 634 555 624 q 544 651 552 644 q 541 663 544 662 q 536 667 538 665 q 533 680 536 675 q 529 693 530 685 q 517 708 518 707 q 513 711 515 709 q 502 733 507 726 q 488 747 496 741 q 476 758 479 757 q 473 762 473 758 q 467 766 469 762 q 460 773 464 770 q 452 781 453 780 q 449 785 452 783 q 439 795 441 795 q 435 796 438 795 q 425 803 427 803 q 419 806 422 803 q 406 812 406 810 q 404 817 407 815 q 395 818 397 815 q 389 823 393 821 q 366 825 380 822 q 340 827 353 829 q 320 821 330 826 q 304 817 308 821 q 294 811 301 814 q 274 794 279 802 q 258 784 269 787 q 248 765 252 765 q 244 760 243 765 q 230 747 233 757 q 220 731 227 738 q 208 711 216 719 l 206 696 q 208 674 206 680 q 209 662 209 669 q 206 646 206 650 q 208 637 206 642 q 203 628 202 635 q 208 618 205 621 q 205 604 205 606 q 206 600 206 602 q 205 587 206 593 q 206 574 205 581 q 210 549 210 555 q 210 538 209 544 q 216 524 213 525 q 218 517 220 522 q 226 508 222 513 q 231 496 229 503 q 241 484 241 486 q 243 479 241 481 q 251 472 247 475 q 258 463 255 469 q 271 459 267 458 q 278 458 274 460 q 296 451 292 453 q 305 452 301 449 q 315 454 311 454 q 323 454 319 453 q 343 455 339 456 q 354 452 347 454 q 350 428 353 431 q 345 419 347 425 q 332 416 338 418 q 324 408 326 415 q 307 401 313 406 q 293 392 300 397 q 271 384 275 389 q 252 382 260 381 q 232 381 243 382 q 217 386 221 387 q 209 387 213 385 q 195 393 198 391 q 182 397 183 396 q 178 400 180 399 q 163 407 167 406 q 154 413 156 412 q 149 416 152 414 q 130 446 136 438 q 123 457 126 450 q 115 471 119 464 q 106 494 106 484 q 100 517 99 510 q 98 532 102 525 q 96 555 98 548 q 96 575 95 563 q 99 591 100 587 q 98 602 98 595 q 99 614 100 613 q 98 618 98 616 l 100 633 q 104 646 100 642 q 107 654 107 650 q 110 673 107 665 q 113 692 113 682 q 123 709 122 705 q 125 718 123 713 q 134 728 134 727 q 136 731 134 730 q 143 740 140 735 q 149 749 146 745 q 170 779 163 770 q 186 792 176 787 q 195 804 194 802 q 199 807 197 806 q 214 817 212 814 q 218 823 216 821 q 235 831 231 831 q 240 838 239 831 q 250 843 245 841 q 258 849 255 845 q 269 850 266 848 q 278 854 271 853 q 296 861 285 861 q 304 867 300 864 q 315 868 308 869 q 323 872 320 871 q 332 875 327 873 q 351 880 349 880 q 358 882 354 880 q 389 888 381 886 q 408 888 396 891 q 429 887 425 886 q 439 890 433 888 q 451 886 446 888 q 464 883 456 883 q 471 880 467 880 q 479 878 476 879 q 497 869 492 869 q 503 863 502 868 q 519 854 518 854 q 521 850 519 853 q 530 846 526 849 q 538 841 534 844 q 551 829 551 831 q 570 807 566 817 q 583 800 582 802 q 594 787 587 793 q 603 768 600 770 q 609 764 606 766 q 618 743 614 746 q 621 732 621 739 l 629 713 q 635 701 636 701 q 635 697 633 700 q 640 689 637 694 q 646 681 642 684 q 652 663 646 670 q 659 646 658 656 q 660 627 658 631 q 663 621 662 624 q 665 602 667 606 q 663 594 663 598 q 665 587 663 590 q 669 579 667 583 q 669 553 671 566 q 667 538 667 545 q 667 525 667 532 q 664 511 665 517 q 661 498 663 505 q 661 490 663 495 q 662 483 659 486 q 656 469 655 479 q 652 456 656 460 q 650 437 652 442 q 646 422 648 423 q 644 415 643 422 q 633 403 635 403 q 632 401 632 403 q 633 378 635 384 q 629 365 632 372 q 625 349 624 350 q 624 345 625 347 q 617 334 617 336 q 613 331 617 331 q 607 314 610 317 q 601 308 604 311 q 595 293 597 298 q 591 283 594 288 q 583 275 585 278 q 578 270 581 273 q 578 257 579 262 q 575 247 578 252 q 563 237 570 244 q 557 221 559 222 q 552 218 555 220 q 536 187 549 197 q 526 170 529 171 q 525 163 524 168 q 517 157 518 163 q 513 149 515 152 q 499 134 499 138 q 471 103 472 121 q 458 95 465 99 q 449 83 452 91 q 433 74 439 80 q 423 61 427 68 q 408 52 412 60 q 393 42 404 45 q 381 31 388 35 q 368 20 374 26 q 357 10 359 12 q 353 5 355 8 l 338 -3 q 331 -9 334 -7 q 321 -15 328 -12 q 311 -20 313 -20 q 307 -22 309 -20 q 300 -30 302 -24 q 290 -37 297 -35 q 280 -45 283 -43 q 273 -47 277 -47 q 258 -57 267 -54 q 241 -66 248 -60 q 262 -74 248 -75 q 282 -81 277 -73 q 300 -85 293 -81 q 317 -92 308 -90 q 342 -104 328 -103 q 350 -112 345 -110 q 359 -118 355 -114 q 383 -125 376 -123 q 393 -133 391 -127 q 409 -138 401 -136 q 423 -142 416 -140 q 438 -149 437 -149 q 453 -157 452 -157 q 457 -157 454 -156 q 480 -170 477 -165 q 492 -172 487 -171 q 503 -175 498 -172 q 515 -180 515 -179 q 517 -183 515 -182 q 539 -188 534 -189 q 548 -189 544 -187 q 557 -191 553 -189 q 568 -194 562 -193 q 579 -194 574 -194 q 591 -193 585 -194 q 600 -191 594 -191 q 612 -191 606 -191 q 625 -192 618 -191 q 637 -190 631 -193 q 646 -184 642 -187 q 655 -180 650 -182 q 674 -168 662 -172 q 685 -159 684 -161 q 689 -155 686 -157 q 703 -146 699 -149 q 708 -137 707 -144 l 719 -129 z "},"3":{"ha":865,"x_min":7,"x_max":796,"o":"m 562 880 q 587 879 581 878 q 601 867 590 875 q 614 857 608 863 q 627 844 621 850 q 643 819 636 831 q 665 798 658 800 q 672 781 671 784 q 675 776 673 777 q 678 762 677 764 q 681 757 680 760 q 680 741 677 749 q 680 727 682 732 q 682 720 682 726 q 685 711 682 713 q 684 697 682 700 q 686 692 685 694 q 685 678 685 685 q 684 665 685 671 q 680 651 680 656 q 680 642 681 646 q 676 631 675 632 q 675 627 677 629 q 665 616 669 618 q 662 612 662 614 q 662 604 663 606 q 662 597 661 601 q 656 589 661 591 q 654 581 652 587 q 646 572 648 578 q 637 563 644 566 q 631 545 632 548 q 625 543 629 543 q 619 531 620 532 q 616 529 618 530 q 601 515 602 517 q 590 505 591 507 q 587 502 589 503 q 579 495 581 496 q 576 490 578 494 q 563 477 564 479 q 551 471 553 472 q 547 465 548 469 q 533 456 533 456 q 532 456 533 457 q 524 452 529 453 q 515 448 518 450 q 533 442 519 442 q 554 437 551 437 q 562 435 557 437 q 581 426 579 426 q 589 424 585 423 q 598 423 593 425 q 606 418 602 420 q 616 415 610 416 q 633 401 632 408 q 660 392 648 395 q 677 381 671 389 q 688 378 684 380 q 694 370 692 377 q 716 357 709 359 q 730 350 723 354 q 734 340 730 343 q 739 331 738 338 q 749 319 749 321 q 750 313 749 316 q 756 306 753 311 q 762 297 760 301 q 773 274 769 275 q 774 264 772 267 q 776 254 777 260 q 786 234 785 239 q 789 227 787 229 q 792 203 787 209 q 791 185 791 191 q 791 173 791 179 q 791 161 791 167 q 796 151 792 155 q 795 137 795 144 q 792 126 795 130 q 793 109 795 111 q 795 100 792 106 q 790 83 791 87 q 789 73 789 79 q 787 51 787 57 q 785 42 787 45 q 780 16 780 26 q 774 3 776 5 q 772 -4 773 0 q 766 -20 768 -18 q 765 -26 764 -22 q 752 -43 757 -41 q 749 -52 747 -45 q 738 -60 741 -54 q 727 -69 735 -66 q 714 -87 718 -83 q 708 -94 711 -91 q 702 -100 705 -96 q 694 -106 699 -103 q 686 -119 684 -118 q 685 -123 688 -121 q 668 -129 669 -125 q 661 -133 667 -133 q 650 -140 652 -137 q 646 -146 648 -144 q 633 -151 633 -151 q 629 -153 632 -152 q 623 -159 625 -157 q 617 -164 620 -161 q 602 -175 602 -170 q 588 -176 593 -172 q 581 -186 583 -180 q 564 -189 566 -187 q 557 -189 562 -191 q 541 -198 549 -197 q 522 -210 529 -209 q 513 -216 515 -212 q 496 -221 498 -217 q 481 -228 484 -221 q 473 -228 475 -225 q 464 -231 471 -231 q 453 -235 456 -233 q 448 -236 450 -236 q 438 -240 444 -239 q 431 -247 433 -241 q 411 -247 415 -247 q 401 -245 407 -247 q 376 -254 384 -250 q 362 -259 369 -258 q 349 -260 355 -262 q 336 -262 343 -259 q 319 -265 323 -263 q 313 -267 316 -267 q 298 -267 302 -271 q 288 -267 294 -267 q 277 -266 281 -266 q 260 -269 260 -270 q 256 -267 259 -269 q 246 -268 252 -267 q 236 -264 240 -269 q 229 -267 232 -267 q 221 -266 227 -266 q 210 -265 214 -267 q 201 -264 206 -263 q 195 -260 198 -262 q 184 -259 191 -259 q 157 -252 165 -255 q 141 -245 149 -248 q 126 -239 129 -243 q 106 -232 110 -235 q 99 -229 103 -229 q 92 -225 95 -228 q 80 -223 81 -225 q 75 -221 79 -221 q 62 -209 69 -209 q 57 -197 60 -202 q 49 -190 54 -193 q 35 -171 47 -180 q 33 -161 35 -164 q 27 -152 30 -159 q 20 -131 23 -136 q 15 -119 16 -126 q 16 -103 19 -104 q 12 -99 14 -102 q 9 -73 11 -81 q 7 -56 7 -65 q 7 -44 7 -52 q 8 -30 7 -37 q 14 -12 12 -15 q 14 -7 15 -9 q 20 9 19 7 q 22 18 22 12 q 34 41 30 35 q 35 50 38 46 q 42 59 39 54 q 46 72 45 64 q 57 84 53 84 q 62 96 60 91 q 69 106 65 100 q 75 117 73 115 q 76 122 77 118 q 96 137 88 133 q 104 152 103 141 q 121 167 121 161 q 138 175 133 161 q 147 178 142 176 q 153 183 152 179 q 174 193 170 191 q 182 201 179 195 q 197 204 191 199 q 212 206 202 209 q 221 211 216 209 q 229 218 227 213 q 236 218 232 217 q 245 218 240 220 q 277 228 263 222 q 295 230 288 231 q 308 233 302 229 q 324 233 315 233 q 342 232 334 233 q 352 232 350 233 q 357 231 354 231 q 368 231 366 232 q 373 229 370 229 q 382 229 378 228 q 391 229 387 231 q 410 222 403 227 q 422 220 420 222 q 427 218 425 218 q 441 213 438 216 q 449 212 445 210 q 460 197 458 198 q 463 193 463 195 q 458 178 465 179 q 472 165 469 168 q 475 157 475 161 q 473 144 476 151 q 473 132 471 137 q 463 100 463 114 q 454 85 456 88 q 454 79 453 83 q 444 73 449 76 q 435 64 438 69 q 422 58 425 64 q 408 54 419 53 q 386 45 392 45 q 370 45 380 46 q 368 64 363 60 q 369 75 373 68 q 379 97 377 92 q 384 106 381 102 q 382 119 382 113 q 384 132 381 125 q 370 153 377 149 q 361 163 363 156 q 341 171 347 170 q 331 175 335 172 q 310 176 319 172 q 290 176 301 179 q 271 178 278 178 q 255 175 264 178 q 227 171 235 171 q 220 160 220 171 q 201 151 202 155 q 194 148 199 148 q 191 140 194 142 q 186 134 189 137 q 174 117 175 121 q 167 114 172 114 q 159 99 161 103 q 151 92 156 95 q 146 81 148 85 q 146 69 144 77 q 138 55 141 62 q 132 42 136 47 q 126 19 127 28 q 123 12 125 16 q 121 3 121 7 q 119 -11 118 -4 q 118 -24 121 -18 q 119 -58 119 -42 q 126 -83 118 -73 q 133 -99 126 -96 q 138 -118 138 -118 q 149 -132 148 -132 q 151 -133 149 -132 q 168 -155 163 -151 q 176 -167 174 -160 q 193 -173 186 -170 q 206 -183 201 -176 q 221 -184 212 -184 l 240 -193 q 254 -195 252 -194 q 258 -198 255 -197 q 282 -202 274 -202 q 297 -206 290 -202 q 304 -203 300 -199 q 313 -205 308 -208 q 331 -206 326 -203 l 347 -208 q 356 -208 353 -206 q 362 -209 359 -209 q 377 -207 377 -206 q 378 -208 377 -208 q 391 -206 385 -206 q 401 -205 396 -206 q 430 -197 419 -197 q 453 -190 445 -194 q 469 -180 464 -186 q 484 -178 481 -180 q 490 -172 487 -175 q 507 -168 499 -171 q 521 -163 514 -165 q 535 -156 533 -157 q 540 -155 537 -155 q 563 -141 555 -148 q 581 -129 571 -134 q 587 -122 585 -123 q 593 -119 590 -121 q 598 -113 595 -117 q 604 -106 601 -109 q 620 -96 614 -100 q 628 -85 625 -92 q 642 -74 637 -77 q 651 -65 647 -71 q 663 -52 655 -56 q 680 -13 670 -31 q 686 30 689 5 q 691 45 692 41 q 692 54 690 50 q 694 73 694 69 q 693 84 693 77 q 693 96 694 95 q 692 99 692 98 q 693 117 692 110 q 692 134 694 125 q 689 141 690 137 q 689 152 688 145 q 686 165 685 164 q 688 168 686 165 q 684 176 685 171 q 686 184 684 182 q 678 205 682 195 q 671 225 674 214 q 665 236 667 233 q 661 241 662 239 q 656 254 658 252 q 652 259 655 256 q 637 284 644 278 q 628 300 631 290 q 614 308 616 307 q 614 312 613 309 q 608 315 612 315 q 602 321 604 316 q 592 326 594 324 q 589 331 590 328 q 572 338 581 335 q 556 347 563 340 q 546 349 549 346 q 536 353 543 353 q 518 361 526 358 q 509 366 515 365 q 498 372 502 368 q 490 372 495 372 q 483 370 486 372 q 454 382 461 377 q 436 382 448 381 q 416 385 425 382 q 397 378 401 377 q 389 377 392 378 q 374 367 376 365 q 369 368 372 369 q 349 358 355 362 q 335 353 342 354 q 319 353 323 354 q 315 353 316 351 q 307 360 308 355 q 300 369 305 365 q 302 376 302 373 q 302 384 301 378 q 318 393 316 393 q 323 393 320 392 q 350 407 339 404 l 374 423 q 389 423 385 422 q 397 427 393 425 q 448 457 426 448 q 457 466 454 464 q 463 472 460 468 q 477 482 476 479 q 481 488 479 486 q 496 499 491 494 q 510 509 502 505 q 526 529 515 521 q 530 541 526 536 q 538 551 534 545 q 544 559 541 553 q 552 568 547 566 q 559 585 552 578 q 564 597 563 594 q 567 604 564 601 q 574 629 567 624 q 576 650 576 640 q 576 671 576 659 q 578 688 578 686 q 575 707 576 703 q 572 716 574 712 q 573 725 572 720 q 572 732 574 730 q 567 748 571 739 q 559 764 563 757 q 554 770 556 766 q 547 774 552 773 q 543 785 548 783 q 538 793 538 787 q 524 805 526 803 q 519 808 522 807 q 506 821 513 818 q 490 827 499 823 q 481 834 486 830 q 472 841 477 838 q 458 843 465 842 q 445 845 452 844 q 433 848 438 846 q 426 850 429 849 q 417 851 422 852 q 410 853 412 850 q 401 852 406 853 q 393 850 397 850 q 372 852 374 852 q 366 852 370 853 q 348 848 354 848 q 335 846 342 848 q 325 833 327 834 q 320 831 323 833 q 313 824 315 829 q 305 819 312 819 q 298 806 302 811 q 290 792 293 800 q 281 781 282 784 q 281 776 281 779 q 269 760 270 764 q 266 751 267 757 q 256 739 254 741 q 256 735 258 738 q 252 727 255 730 q 250 716 248 724 q 243 705 241 705 q 244 701 245 704 q 241 687 240 688 q 241 685 241 686 q 240 669 239 675 q 236 661 241 663 q 239 648 240 655 q 235 635 237 640 q 239 617 237 628 q 239 598 240 606 q 256 574 247 579 q 262 563 255 564 q 271 555 270 562 q 279 551 277 555 q 286 547 282 548 q 288 530 288 532 q 288 522 288 529 q 275 512 277 513 q 271 509 273 511 q 257 505 260 506 q 252 500 254 503 q 239 490 241 496 q 229 487 233 488 q 220 483 225 486 q 199 496 201 491 q 178 509 183 506 q 170 518 172 511 q 161 523 164 519 q 153 529 159 526 q 144 545 151 537 q 133 559 138 552 q 131 569 130 562 q 130 583 132 576 q 128 600 129 598 q 127 604 127 601 q 127 625 127 618 q 127 639 126 632 q 129 651 130 650 q 129 655 127 652 q 135 684 133 675 q 142 699 137 692 q 145 712 142 709 q 151 718 148 715 q 157 734 151 730 q 164 750 163 739 q 174 764 172 764 q 178 768 176 765 q 186 782 186 777 q 189 789 187 787 q 197 798 194 796 q 201 803 199 799 q 216 815 209 808 q 231 827 222 822 q 246 840 243 836 q 252 848 250 844 q 262 850 258 846 q 270 856 267 853 q 283 862 282 860 q 286 864 283 864 q 300 870 297 869 q 305 875 304 871 q 319 879 317 878 q 321 880 320 880 q 335 887 335 884 q 347 889 347 888 q 350 891 347 890 q 373 898 362 895 q 395 903 384 901 q 412 905 408 903 q 418 907 415 906 q 446 909 439 910 q 460 909 453 909 q 488 907 479 909 q 506 909 496 906 q 521 905 514 905 q 530 900 524 899 q 538 895 536 901 q 551 894 548 898 q 560 890 553 890 l 562 880 z "},"4":{"ha":883,"x_min":-69,"x_max":949,"o":"m 532 963 q 537 944 537 949 q 543 914 544 929 q 545 880 543 899 q 541 860 540 865 q 545 852 541 854 q 544 837 541 845 q 539 831 537 836 q 537 823 541 826 q 538 810 538 812 q 536 804 538 807 q 536 793 536 798 q 534 783 536 789 q 534 768 536 770 q 532 761 533 765 q 531 753 530 757 q 529 746 532 749 q 524 721 524 730 q 519 708 524 712 q 510 681 510 689 q 503 671 510 673 q 503 650 507 659 q 495 631 498 640 q 486 610 490 620 q 477 597 483 601 q 473 580 475 585 q 469 571 471 575 q 465 563 467 567 q 460 557 464 559 q 452 538 453 541 q 449 533 452 536 q 439 517 441 522 q 429 510 437 511 q 426 501 427 505 q 423 491 425 498 q 415 477 418 487 q 401 453 406 469 q 395 446 397 450 q 387 441 392 442 q 370 419 377 426 q 360 408 359 411 q 359 406 361 406 q 349 397 353 403 q 338 389 346 391 q 330 376 330 378 q 328 373 330 374 q 317 364 316 365 q 316 362 317 363 q 301 351 304 354 q 297 345 298 349 q 288 337 290 342 q 279 330 285 332 q 265 321 266 321 q 262 320 264 321 q 250 309 251 309 q 233 298 236 300 q 232 293 231 297 q 216 286 222 289 q 206 278 210 283 q 182 267 184 274 q 206 258 197 259 q 221 254 216 258 q 241 248 235 250 q 258 244 256 244 q 282 237 277 237 q 293 232 288 237 q 302 229 298 232 q 309 224 305 227 q 321 220 320 222 q 324 221 323 218 q 342 214 338 216 q 353 211 351 210 q 357 210 354 212 q 372 206 369 208 q 382 202 377 205 q 393 201 387 199 q 412 196 407 199 q 420 195 416 193 q 430 193 429 191 q 435 193 431 194 q 447 189 445 191 q 454 189 449 187 q 473 183 468 184 q 483 184 477 182 q 496 178 486 178 q 511 175 506 178 q 551 172 534 172 q 557 205 557 190 q 556 235 556 220 q 557 251 559 245 q 559 263 556 256 q 557 279 557 274 q 559 289 557 283 q 559 305 560 304 q 559 309 559 307 q 561 324 560 317 q 559 339 562 331 q 563 363 559 357 q 561 395 560 382 q 562 419 562 408 q 557 441 559 437 q 556 450 555 445 q 552 475 555 465 q 552 494 549 484 l 547 510 q 541 523 544 517 q 536 534 538 529 q 535 546 537 545 q 533 551 533 547 q 536 561 533 557 q 543 570 540 564 q 551 572 547 571 q 559 576 556 574 q 578 581 575 582 q 583 582 581 581 q 595 586 589 583 q 610 586 601 589 q 626 585 624 589 q 631 581 628 582 q 637 564 635 570 q 644 553 639 557 q 646 536 643 544 q 646 522 648 529 q 650 503 648 510 q 653 479 652 486 q 655 468 654 473 q 656 456 656 463 q 652 446 656 450 q 658 432 655 439 q 661 415 661 425 q 659 400 659 400 q 659 378 658 382 q 658 370 661 373 q 655 354 658 358 l 655 334 q 652 326 654 330 q 650 317 651 321 q 654 309 655 313 q 654 298 654 304 q 652 283 651 283 q 654 281 654 283 q 652 267 655 266 q 648 264 650 267 q 653 237 654 244 q 651 221 652 229 q 651 208 650 209 q 652 205 652 208 l 651 189 q 650 170 648 172 q 651 164 652 167 q 672 165 663 163 q 689 170 681 167 q 701 168 701 168 q 704 167 701 167 q 718 169 715 170 q 724 171 720 168 q 742 176 741 176 q 746 176 743 175 q 764 182 755 179 q 783 186 772 186 q 793 191 788 189 q 806 195 799 194 q 818 208 814 203 q 840 220 836 216 q 850 227 845 224 q 864 240 859 232 q 877 254 876 247 q 884 264 878 262 q 891 277 887 271 q 899 290 895 283 q 915 298 914 297 q 918 301 916 300 q 934 304 925 304 q 949 298 943 304 q 947 278 949 281 q 941 267 943 269 q 940 262 940 264 q 924 240 932 244 q 913 228 917 236 q 899 222 905 227 q 890 213 894 218 q 871 199 878 202 q 860 190 864 197 q 850 186 853 191 q 837 183 846 180 q 820 174 821 176 q 817 171 819 172 q 801 166 806 167 q 793 164 796 165 q 780 157 785 157 q 772 157 774 157 q 757 153 758 155 q 753 151 755 151 q 736 149 739 152 q 731 142 734 145 q 709 139 715 140 q 697 136 703 138 q 684 137 685 136 q 681 137 684 138 q 665 126 675 132 q 655 127 659 129 q 647 123 651 126 q 648 91 646 99 q 646 75 650 83 q 645 62 648 61 q 642 60 642 62 q 640 47 637 50 q 643 39 642 45 q 639 20 639 26 q 633 15 639 15 q 642 1 639 7 q 643 -16 646 -5 q 640 -39 639 -34 q 640 -50 642 -43 q 640 -68 639 -64 q 643 -75 640 -72 q 637 -81 640 -79 q 633 -90 635 -83 q 637 -113 640 -107 q 635 -123 635 -118 q 638 -140 640 -140 q 636 -142 636 -140 q 635 -157 636 -153 q 632 -164 635 -161 q 639 -184 635 -180 q 639 -208 640 -203 q 637 -214 637 -212 q 642 -227 639 -221 q 643 -239 646 -232 q 654 -255 646 -244 q 659 -261 656 -258 q 662 -269 661 -264 q 661 -276 662 -273 q 659 -285 659 -279 q 650 -290 652 -286 q 644 -297 647 -293 q 617 -305 627 -296 q 601 -310 606 -304 q 587 -320 595 -316 l 568 -330 q 553 -324 562 -327 q 543 -309 543 -312 q 540 -302 544 -305 q 547 -278 548 -283 q 545 -267 545 -273 q 546 -248 547 -252 q 545 -239 545 -244 q 547 -224 545 -231 q 543 -210 549 -217 q 546 -197 545 -198 q 547 -193 547 -195 q 543 -176 544 -178 q 541 -174 541 -175 q 542 -164 541 -168 q 543 -156 543 -160 q 543 -141 544 -149 q 543 -125 541 -133 q 541 -109 544 -111 q 544 -92 541 -103 q 543 -75 544 -77 q 541 -68 543 -72 q 542 -39 540 -54 q 543 -9 544 -23 q 542 -1 541 -5 q 543 7 543 3 q 543 20 544 19 q 543 23 543 20 q 545 44 544 39 q 543 53 545 49 q 544 69 545 60 q 546 83 545 83 q 547 85 547 84 q 548 98 547 94 q 547 107 549 103 q 538 113 544 114 q 528 117 533 111 q 519 114 525 115 q 510 115 513 113 q 473 115 490 117 q 448 119 456 113 q 438 119 442 117 q 427 122 434 122 q 408 122 415 121 q 393 125 400 123 q 380 126 380 125 q 377 127 380 127 q 353 131 362 127 q 336 133 345 134 q 317 140 321 140 q 311 142 312 140 q 298 145 302 141 q 285 146 293 149 q 254 157 262 152 q 235 161 245 161 q 214 171 217 170 q 197 178 199 179 q 190 179 194 178 q 170 183 174 184 q 155 191 167 191 q 138 197 142 190 q 128 196 132 195 q 118 195 125 197 q 105 203 107 201 q 98 205 103 206 q 67 212 77 209 q 46 214 57 214 q 30 216 34 216 q 3 216 11 214 q -12 213 -5 218 q -37 217 -20 218 q -54 212 -49 212 q -66 223 -65 220 q -69 227 -66 227 q -66 239 -66 233 q -62 251 -66 244 q -46 257 -47 256 q -37 258 -45 258 q -22 267 -27 264 q -12 271 -18 269 q 9 278 3 278 q 19 278 15 278 q 31 276 30 275 q 34 277 33 277 q 55 277 50 278 q 64 279 60 277 q 75 275 68 274 q 91 277 83 277 q 101 275 98 277 q 111 275 104 274 q 121 277 118 277 q 127 281 123 278 q 142 290 137 289 q 151 292 148 290 q 160 297 156 294 q 168 302 164 300 q 178 308 174 305 q 186 313 183 311 q 208 329 203 324 q 218 338 213 334 q 227 343 222 340 q 235 350 231 346 l 245 362 q 259 374 256 372 q 263 380 262 376 q 278 393 273 389 q 286 406 283 397 q 298 418 296 418 q 298 422 300 419 q 309 430 304 426 q 315 444 313 434 q 326 455 323 448 q 335 468 328 463 q 347 488 343 484 q 353 496 350 491 q 360 509 358 507 q 361 513 362 510 q 374 528 368 525 q 377 536 380 530 q 386 545 382 540 q 389 562 389 551 q 399 576 399 574 q 401 578 399 579 q 408 597 403 591 q 409 607 407 604 q 414 613 411 610 q 416 627 415 625 q 418 631 416 628 q 422 646 420 646 q 425 648 425 647 q 429 664 427 661 q 431 677 431 667 q 440 701 435 693 q 448 718 445 709 q 449 729 449 724 q 452 738 449 734 q 452 764 449 751 q 452 791 456 777 q 457 818 457 802 q 458 834 458 826 q 454 848 457 842 q 452 882 460 871 q 453 893 454 891 q 452 898 452 895 q 452 911 453 909 q 452 917 450 914 q 452 931 450 930 q 456 935 453 932 q 465 946 461 945 q 465 951 468 947 q 497 956 486 952 q 517 966 509 959 q 525 964 521 964 q 532 963 529 964 z "},"5":{"ha":822,"x_min":7,"x_max":772,"o":"m 510 -125 q 522 -111 521 -119 q 540 -92 537 -102 q 551 -80 551 -85 q 566 -67 563 -72 q 572 -58 570 -62 q 587 -45 586 -49 q 591 -39 587 -41 q 603 -16 600 -24 q 616 -1 606 -7 q 621 9 617 5 q 625 19 624 12 q 632 32 629 28 q 637 38 635 35 q 644 68 647 53 q 652 83 650 80 q 655 92 655 87 q 661 112 661 109 q 663 118 661 115 q 662 127 661 123 q 665 136 663 130 q 666 146 665 145 q 669 151 667 148 q 667 172 667 164 q 671 186 666 179 q 671 197 669 193 q 674 206 673 201 q 674 240 673 228 q 674 267 675 252 l 670 294 q 667 309 671 305 q 665 324 663 313 q 652 355 662 350 q 648 372 651 372 q 646 385 646 384 q 646 389 647 387 q 637 407 640 400 q 628 418 635 414 q 617 437 618 435 q 612 442 614 439 q 604 448 609 445 q 596 461 597 460 q 593 463 595 463 q 581 473 591 469 q 560 498 564 487 q 534 507 548 502 q 522 513 524 514 q 519 513 521 513 q 505 515 506 514 q 502 517 505 517 q 487 519 487 521 q 484 518 487 518 q 467 522 477 519 q 450 521 457 524 q 433 522 438 524 q 423 518 429 519 q 415 519 419 518 q 407 517 411 519 q 398 514 404 515 q 385 511 392 513 q 361 496 366 500 q 351 486 353 486 q 347 484 349 486 q 330 474 334 475 q 323 471 326 473 q 312 460 315 460 q 308 460 309 461 q 292 442 297 446 q 282 435 288 438 q 264 414 271 420 q 245 400 250 407 q 231 391 240 393 q 218 361 228 370 q 218 353 216 357 q 218 345 220 349 q 194 324 216 331 q 188 316 191 319 q 182 308 184 313 q 170 302 172 307 q 163 293 167 297 q 153 289 153 290 q 149 285 152 288 q 129 278 136 283 q 122 286 125 282 q 114 292 119 289 q 111 302 114 298 q 106 311 109 305 q 111 337 113 330 q 113 351 110 345 q 111 378 111 370 q 114 393 111 387 q 114 414 107 404 q 113 438 113 425 q 113 464 114 452 q 114 473 113 468 q 111 481 115 479 q 115 520 118 500 q 123 552 111 540 q 117 566 118 564 q 117 571 117 568 q 118 586 121 581 q 118 604 117 602 q 118 606 119 605 q 117 623 115 620 q 115 629 118 625 q 117 646 115 644 q 118 651 118 648 q 111 669 113 666 q 109 675 110 673 q 104 709 106 696 q 95 731 102 722 q 87 728 92 728 q 81 724 83 728 q 72 719 73 722 q 69 713 71 716 q 54 707 61 709 q 38 700 39 700 q 20 699 31 696 q 7 711 9 703 q 10 722 8 718 q 11 734 12 727 q 24 742 18 741 q 33 747 30 745 q 39 751 35 750 q 45 757 42 754 q 53 760 47 760 q 66 768 62 766 q 75 772 69 769 q 82 781 80 779 q 90 783 84 783 q 104 790 96 787 q 115 800 111 793 q 132 806 126 803 q 140 812 137 808 q 156 817 155 818 q 160 818 157 817 q 195 831 183 826 q 220 834 208 837 q 229 842 222 841 q 237 846 235 842 q 252 850 248 844 q 264 849 259 848 q 278 853 270 850 q 290 854 288 856 q 294 854 292 853 q 305 857 304 859 q 311 857 307 856 q 338 860 327 859 q 358 859 349 861 q 392 863 381 859 q 411 861 403 867 q 457 863 426 865 q 469 860 465 859 q 475 861 472 861 q 502 859 494 861 q 517 857 510 857 q 527 857 525 859 q 532 856 529 856 q 539 857 536 856 q 547 854 543 859 q 571 854 560 854 q 590 856 582 854 q 603 855 597 856 q 612 860 609 854 q 627 861 625 861 q 632 861 629 860 q 659 867 652 867 q 671 869 665 867 q 683 875 681 873 q 688 878 685 876 l 703 886 q 712 898 709 892 q 724 903 719 899 q 734 907 728 906 q 753 912 749 911 q 765 913 758 913 q 760 901 764 905 q 758 891 755 898 q 752 886 753 890 q 749 879 751 883 q 736 870 736 872 q 734 867 736 868 q 724 863 730 864 q 716 857 719 861 q 709 851 713 854 q 701 844 704 848 q 690 838 693 841 q 685 833 688 836 q 668 825 671 825 q 662 823 665 825 q 647 818 650 819 q 623 807 627 812 q 612 806 616 808 q 602 804 609 803 q 593 800 594 802 q 589 798 591 799 q 559 795 571 793 q 540 789 548 796 q 522 790 533 789 q 502 788 510 791 q 486 789 490 787 q 476 788 481 791 q 454 787 460 787 q 446 785 449 788 q 427 789 438 792 q 407 789 416 785 q 389 787 400 785 q 372 789 378 789 q 361 788 366 789 q 351 787 357 787 q 340 787 342 788 q 335 785 338 785 q 328 787 332 785 q 317 787 323 789 q 302 783 305 783 q 279 784 285 785 q 266 783 273 783 q 250 781 258 780 q 237 777 243 781 q 215 772 218 774 q 206 769 212 769 q 205 756 202 762 q 210 743 209 750 q 209 735 210 739 q 208 727 208 731 q 210 709 209 711 q 212 707 212 708 q 214 691 212 696 q 217 681 216 686 q 216 663 217 666 q 213 656 216 659 q 217 637 214 642 q 218 624 220 632 q 212 600 210 604 q 214 585 213 586 q 216 581 216 583 q 209 555 209 560 q 206 544 209 551 q 210 506 209 518 q 203 483 210 494 q 207 468 205 476 q 206 453 209 460 q 208 441 210 449 q 201 430 206 434 q 217 429 214 429 q 218 431 220 429 l 232 446 q 254 463 247 457 q 266 477 260 468 q 275 483 273 479 q 283 488 277 487 q 296 499 294 496 q 302 502 297 502 q 314 514 312 510 q 323 518 316 518 q 339 529 339 529 q 351 535 346 532 q 363 543 357 538 q 374 549 372 547 q 382 551 376 551 q 392 559 385 557 q 403 567 399 562 q 420 572 419 571 q 425 575 422 574 q 434 576 427 576 q 445 578 441 576 q 462 585 456 583 q 472 589 468 586 q 492 591 488 591 q 499 590 496 590 q 509 593 505 591 q 519 590 514 595 q 545 589 537 590 q 555 583 552 589 q 570 583 562 585 q 583 581 579 581 q 589 578 586 582 q 602 577 600 579 q 609 574 605 575 q 629 566 625 568 q 637 560 633 563 q 645 555 642 557 q 651 548 648 552 q 667 538 662 538 q 688 519 680 522 q 703 510 697 517 q 708 490 703 499 q 722 476 720 483 q 732 468 724 469 q 743 452 736 456 q 749 435 742 442 q 750 418 750 418 q 753 411 751 415 q 757 404 755 407 q 766 389 760 389 q 764 377 761 384 q 762 365 766 370 q 762 351 762 355 q 762 342 762 346 q 770 330 768 334 q 768 326 772 327 q 771 307 770 312 q 768 302 772 302 q 770 281 772 286 q 770 269 768 275 q 764 252 768 263 q 770 239 761 241 q 765 219 768 227 q 765 205 762 212 q 758 189 757 190 q 760 186 760 189 q 753 153 757 168 q 750 122 750 137 q 741 99 745 103 q 741 88 738 95 q 735 79 739 81 q 732 68 731 76 q 723 53 726 56 q 720 45 720 50 q 700 18 709 23 q 695 7 699 11 q 689 -1 692 3 q 681 -16 684 -12 q 675 -22 678 -19 q 670 -27 673 -24 q 661 -42 662 -41 q 661 -46 659 -43 q 650 -54 654 -49 q 644 -65 647 -60 q 629 -84 633 -79 q 620 -96 624 -90 q 607 -106 610 -104 q 601 -107 604 -107 q 594 -113 598 -111 q 587 -121 590 -115 q 578 -127 581 -122 q 571 -134 575 -132 q 553 -145 557 -141 q 543 -152 549 -149 q 533 -161 536 -159 q 526 -167 530 -164 q 514 -178 517 -174 q 503 -182 511 -182 q 489 -193 492 -187 q 477 -198 486 -198 q 467 -211 472 -209 q 454 -213 461 -213 q 427 -224 438 -225 q 422 -229 423 -225 q 414 -231 420 -232 l 400 -241 q 389 -250 393 -251 q 381 -252 384 -250 q 350 -266 359 -260 q 323 -269 335 -264 q 301 -269 312 -274 q 280 -272 285 -270 q 273 -271 275 -274 q 258 -275 259 -275 q 254 -273 256 -274 q 232 -268 236 -271 q 221 -266 228 -264 q 191 -250 201 -259 q 161 -237 176 -237 q 149 -227 151 -228 q 144 -221 146 -225 q 127 -209 132 -212 q 113 -187 122 -193 q 106 -172 111 -180 q 103 -151 106 -155 q 98 -141 100 -148 q 94 -108 94 -119 q 91 -85 95 -96 q 96 -69 95 -71 q 98 -65 98 -68 l 98 -50 q 102 -40 100 -45 q 106 -31 104 -35 q 114 -11 110 -15 q 117 2 114 -3 q 121 15 121 7 q 129 30 132 26 q 138 39 138 35 q 142 43 138 42 q 161 71 156 65 q 171 83 168 80 q 184 97 180 94 q 190 103 187 100 q 201 109 195 106 q 210 118 208 111 q 222 127 217 119 q 258 146 243 140 q 270 153 267 152 q 274 153 273 155 q 299 163 285 160 q 328 172 313 167 q 339 176 334 175 q 349 176 345 176 q 364 177 359 175 q 373 179 369 179 q 386 179 384 178 q 391 180 388 180 q 401 180 399 179 q 407 176 404 180 q 421 175 415 179 q 437 171 427 171 q 437 142 441 156 q 429 140 433 141 q 422 140 425 138 q 412 125 414 127 q 407 121 410 123 q 388 104 391 110 q 365 103 370 99 q 354 109 359 107 q 338 114 339 117 q 321 120 326 119 q 312 119 316 121 q 300 116 308 118 q 285 117 292 114 q 256 100 271 106 q 250 88 252 91 q 244 84 247 85 q 242 76 243 77 q 240 68 241 75 q 224 57 225 58 q 218 43 218 46 q 217 37 217 39 q 210 25 210 28 q 212 22 209 22 q 205 4 205 4 q 203 -12 201 -9 q 196 -22 197 -15 q 191 -33 195 -28 q 193 -43 191 -39 q 189 -50 194 -47 q 192 -68 193 -66 q 191 -73 191 -71 q 195 -85 193 -80 q 195 -95 198 -90 l 206 -107 q 213 -122 209 -122 q 225 -141 222 -140 q 231 -153 227 -149 q 237 -161 235 -157 q 247 -161 244 -159 q 255 -165 250 -164 q 267 -176 266 -176 q 280 -178 279 -180 q 283 -178 281 -176 l 297 -186 q 323 -190 311 -187 q 350 -191 336 -193 q 391 -192 376 -194 q 420 -184 406 -190 l 437 -176 q 454 -163 445 -170 q 473 -152 463 -156 q 484 -138 481 -144 q 496 -133 495 -136 q 500 -130 498 -130 l 510 -125 z "},"6":{"ha":892,"x_min":56,"x_max":872,"o":"m 642 857 q 657 854 652 856 q 665 850 662 852 q 687 852 680 854 q 701 850 694 850 q 709 851 705 850 q 716 850 712 852 q 728 846 723 849 q 741 845 734 844 q 756 837 750 838 q 765 831 762 836 q 783 826 774 829 q 798 816 792 821 q 806 804 803 811 q 823 798 821 800 q 829 795 825 795 q 836 784 833 788 q 845 780 838 780 q 861 762 853 770 q 869 744 869 749 q 872 736 869 739 q 867 728 871 730 q 863 720 864 727 q 850 713 852 715 q 848 708 849 712 q 836 704 842 705 q 830 694 830 703 l 810 689 q 795 685 803 686 q 780 681 788 684 q 770 694 770 690 q 755 711 758 708 q 750 718 753 715 q 734 735 735 730 q 714 743 719 742 q 708 751 709 745 q 698 756 701 751 q 688 762 694 761 q 673 773 677 769 q 654 777 662 772 q 633 779 637 776 q 625 783 629 783 q 590 780 600 788 q 570 780 578 788 q 551 783 553 783 q 543 783 549 784 q 528 777 528 776 q 519 781 524 783 q 510 777 515 779 q 501 776 505 776 q 491 773 498 776 q 480 768 484 770 q 471 766 476 766 q 464 768 468 766 q 456 768 460 769 q 432 755 438 760 q 415 753 426 751 q 401 741 407 745 q 388 736 396 738 l 378 724 q 370 720 374 720 q 361 716 365 719 q 345 702 349 707 q 334 694 340 697 q 326 684 328 688 q 317 678 323 681 q 304 664 308 666 q 297 659 300 662 q 286 642 286 647 q 277 633 279 635 q 277 625 275 631 q 263 618 263 617 q 262 618 263 618 q 250 600 259 605 q 241 583 241 595 q 233 566 235 576 q 224 547 231 555 q 222 534 224 537 q 217 532 221 532 q 215 521 220 524 q 213 511 210 518 q 198 497 201 498 q 193 495 195 496 q 197 485 197 487 q 197 480 198 483 q 190 466 190 469 q 187 461 190 463 q 186 452 190 456 q 186 442 183 449 q 180 435 182 439 q 175 429 179 430 q 174 420 175 423 q 174 414 172 418 q 167 400 170 411 q 163 383 161 387 q 165 377 164 380 q 164 360 163 369 q 160 345 165 351 q 161 333 163 334 q 157 330 159 332 q 159 317 160 324 q 160 304 157 311 q 162 294 164 296 q 163 289 160 292 q 157 281 159 286 q 152 274 155 277 q 155 264 153 269 q 157 254 157 260 q 150 248 151 254 q 142 240 149 243 q 149 233 148 237 q 153 225 149 228 q 153 204 151 212 q 155 187 155 197 q 157 174 159 178 q 160 170 155 171 q 162 154 159 155 q 163 148 165 153 q 162 126 160 133 q 168 115 164 119 q 163 96 163 109 q 174 80 163 83 q 173 73 171 76 q 178 65 175 69 q 181 50 179 54 q 186 43 183 46 q 191 23 187 27 q 203 6 199 9 q 210 -3 208 3 q 218 -10 216 -5 q 224 -18 220 -15 q 231 -31 224 -31 q 238 -41 239 -39 q 239 -45 237 -42 q 251 -53 250 -49 q 259 -57 252 -57 q 275 -75 273 -68 q 287 -79 282 -76 q 298 -84 292 -83 q 318 -100 311 -99 q 328 -106 326 -100 q 337 -109 334 -107 q 346 -114 340 -111 q 365 -123 361 -119 q 381 -126 381 -126 q 397 -132 393 -129 q 406 -133 400 -134 q 420 -138 415 -137 q 433 -140 426 -140 q 445 -140 444 -138 q 449 -141 446 -141 q 460 -142 454 -142 q 469 -148 467 -141 q 491 -145 480 -144 q 509 -141 502 -146 q 518 -142 513 -145 q 528 -142 524 -140 q 536 -137 533 -140 q 547 -136 540 -134 q 555 -133 552 -134 q 560 -129 557 -132 q 574 -127 568 -127 q 581 -121 579 -126 q 597 -112 591 -118 q 612 -102 602 -106 q 627 -94 625 -95 q 633 -90 628 -92 q 637 -83 636 -87 q 644 -79 639 -79 q 650 -69 647 -69 q 652 -64 654 -69 l 663 -52 q 674 -41 671 -50 q 687 -30 686 -31 q 686 -23 688 -28 q 699 -5 697 -16 q 710 7 709 5 q 711 12 711 9 q 715 32 715 23 q 718 47 715 41 q 723 68 722 60 q 718 84 724 77 q 722 100 726 99 q 719 104 719 102 q 718 119 719 118 q 715 123 716 121 q 713 142 716 130 q 700 155 711 153 q 694 173 696 171 q 693 178 692 175 q 684 187 685 184 q 681 190 684 190 q 680 203 682 203 q 675 205 678 203 q 665 216 677 216 q 659 232 659 229 q 654 235 658 235 q 641 241 646 240 q 636 250 636 243 q 625 253 628 248 q 616 256 623 258 q 609 270 613 270 q 582 277 598 274 q 571 283 572 283 q 567 283 570 282 q 555 288 559 288 q 548 289 552 288 q 526 295 533 296 q 510 296 519 294 q 493 296 495 297 q 490 294 491 294 q 469 296 477 292 q 450 291 460 293 q 431 283 439 289 q 414 277 418 278 q 407 275 410 277 q 394 266 404 266 q 382 255 384 266 q 371 253 373 254 q 365 248 369 252 q 350 233 355 236 q 346 226 350 227 q 343 218 342 225 q 330 197 334 201 q 321 191 327 194 q 309 176 319 180 q 309 160 311 168 q 309 141 307 152 q 302 121 304 126 q 300 109 300 115 q 300 92 297 96 q 302 77 304 88 q 309 68 305 72 q 313 60 312 65 q 323 47 324 47 q 321 45 321 46 q 328 38 326 42 q 338 33 331 34 q 339 24 339 28 q 342 16 339 19 q 353 7 347 11 q 361 -5 358 3 q 350 -22 353 -20 q 345 -26 347 -23 q 330 -27 338 -33 q 317 -43 321 -37 q 307 -40 313 -42 q 294 -45 300 -38 q 289 -39 292 -42 q 283 -33 286 -35 q 274 -33 277 -31 q 267 -35 271 -35 q 259 -31 260 -35 q 255 -23 258 -26 q 239 -16 244 -18 q 231 -9 235 -14 q 218 5 222 1 q 212 24 213 22 q 208 30 210 27 q 206 42 210 38 q 206 52 202 46 q 202 61 203 58 q 201 68 201 64 q 204 79 205 79 q 203 83 203 80 q 205 92 203 88 q 205 100 208 96 q 208 109 209 103 q 212 117 208 115 q 214 135 213 132 q 213 138 216 138 q 217 155 217 148 q 222 167 221 167 q 224 168 224 167 q 231 183 231 180 q 235 186 232 186 q 245 201 244 198 q 245 209 247 205 q 257 216 254 210 q 270 225 260 222 q 274 235 270 232 q 279 245 278 239 q 304 262 296 254 q 323 277 312 271 q 334 284 328 281 q 343 294 340 288 q 359 302 351 297 q 374 311 366 308 q 397 321 391 316 q 408 335 406 332 q 422 335 414 334 q 437 338 430 336 q 450 345 439 342 q 464 351 456 346 q 486 355 480 353 q 508 363 505 359 q 515 363 511 366 q 534 368 529 368 q 544 372 540 369 q 553 368 549 370 q 560 366 556 366 q 576 366 575 366 q 591 364 589 363 q 597 365 594 365 q 621 359 610 363 q 642 350 632 355 q 665 345 659 347 q 675 343 670 343 q 691 333 688 338 q 703 328 694 328 q 727 311 718 311 q 736 302 736 302 q 738 300 736 301 q 754 286 749 289 q 760 270 754 277 q 768 264 762 267 q 776 258 773 262 q 783 245 779 250 q 789 232 788 241 q 799 215 798 218 q 806 212 800 212 q 806 201 803 206 q 811 193 808 195 q 807 186 808 190 q 806 176 806 183 q 819 157 817 160 q 823 148 821 153 q 825 128 827 133 q 826 117 822 123 q 819 98 819 103 q 817 83 818 84 q 815 81 815 83 q 808 47 811 60 q 799 27 806 34 q 793 16 795 18 q 788 12 791 14 q 774 -5 776 1 q 763 -14 764 -12 q 760 -18 762 -15 q 751 -29 751 -27 q 749 -30 751 -31 q 734 -49 738 -46 q 730 -58 731 -52 q 716 -71 719 -71 q 713 -73 713 -71 q 703 -82 705 -79 q 697 -88 701 -85 q 680 -100 686 -99 q 665 -115 674 -114 q 650 -122 656 -117 q 637 -131 639 -132 q 635 -133 636 -130 q 616 -146 620 -145 q 610 -151 613 -148 q 596 -159 598 -156 q 591 -164 594 -161 q 572 -172 576 -171 q 564 -176 568 -174 q 543 -188 547 -183 q 533 -191 538 -193 l 514 -197 q 499 -205 503 -203 q 477 -212 487 -208 q 454 -217 467 -216 q 439 -217 441 -216 q 437 -218 438 -218 q 427 -219 431 -220 q 418 -221 422 -218 q 400 -220 401 -222 q 396 -218 399 -218 q 372 -216 380 -216 q 357 -217 363 -217 q 335 -212 339 -214 q 321 -212 328 -216 q 308 -208 315 -208 q 294 -198 297 -201 q 283 -197 290 -195 q 261 -183 275 -186 q 239 -170 247 -180 q 222 -161 228 -164 q 209 -156 216 -159 l 194 -144 q 180 -131 187 -137 q 165 -118 172 -125 q 157 -111 160 -111 q 155 -106 155 -110 q 146 -99 149 -103 q 137 -92 144 -95 q 126 -77 132 -83 q 116 -63 119 -71 q 106 -49 113 -56 q 99 -31 103 -34 q 97 -22 100 -24 q 96 -14 94 -19 q 92 -7 92 -11 q 88 1 91 -4 q 85 9 85 4 q 81 18 84 14 q 80 32 79 31 q 80 34 81 33 q 76 47 76 43 q 73 54 76 52 q 71 75 75 66 q 71 94 68 83 q 66 111 65 110 q 66 113 66 111 q 61 129 64 129 q 62 143 64 141 q 61 148 61 145 q 58 172 58 163 q 58 191 60 187 q 57 197 57 194 l 56 212 q 58 221 58 218 q 57 227 57 224 q 58 247 57 237 q 58 267 60 256 q 64 288 60 283 q 62 298 68 292 q 64 317 64 312 q 66 324 65 321 q 70 338 71 334 q 71 346 69 342 q 73 353 72 350 q 76 361 75 357 q 77 370 77 365 q 79 382 77 376 q 86 409 81 401 q 90 429 91 416 q 99 450 95 444 q 102 459 100 454 q 103 471 104 464 q 119 488 114 487 q 122 507 121 505 q 130 520 130 518 q 132 525 130 522 q 137 538 136 536 q 138 545 138 540 q 152 561 151 559 q 152 567 153 563 q 160 574 157 570 q 165 581 163 578 q 174 595 168 589 q 184 610 180 602 q 199 627 194 624 q 205 637 201 633 q 212 647 209 640 q 227 661 222 651 q 243 673 232 670 q 258 689 255 686 l 270 701 q 277 706 275 703 q 283 709 278 709 q 290 719 286 718 q 294 727 294 720 q 311 743 308 735 q 327 746 326 747 q 332 746 328 745 q 340 752 332 753 q 346 760 347 751 q 359 767 358 766 q 361 770 361 768 q 378 777 377 774 q 382 780 380 779 q 403 789 399 787 q 410 795 407 792 q 420 797 415 796 q 426 803 425 798 q 441 810 441 810 q 452 814 450 812 q 456 819 453 817 q 469 824 465 821 q 483 826 473 827 q 496 833 492 833 q 502 834 499 833 q 524 838 519 838 q 533 842 529 837 q 546 841 540 840 q 559 838 552 842 q 573 846 571 844 q 578 848 575 848 q 594 847 590 846 q 605 845 598 848 q 626 852 623 850 q 637 852 629 853 l 642 857 z "},"7":{"ha":770,"x_min":27,"x_max":945,"o":"m 346 -142 q 342 -168 345 -163 q 342 -183 340 -174 q 342 -202 343 -199 q 343 -206 340 -205 q 345 -225 345 -222 q 346 -231 346 -228 q 354 -251 351 -239 q 347 -258 349 -254 q 342 -266 345 -263 q 324 -274 328 -264 q 314 -276 317 -273 q 307 -282 311 -279 q 298 -288 301 -288 q 293 -292 294 -288 q 279 -296 283 -292 q 269 -302 275 -300 q 261 -300 264 -301 q 252 -300 258 -298 q 243 -288 244 -290 q 240 -271 240 -281 q 243 -255 240 -262 q 241 -242 240 -248 q 237 -231 241 -236 q 240 -222 241 -228 q 241 -214 239 -217 q 239 -200 239 -208 q 243 -189 239 -193 q 239 -172 239 -174 q 243 -170 240 -171 q 241 -161 240 -167 q 243 -151 243 -156 q 245 -139 245 -145 q 244 -126 244 -133 q 248 -118 248 -123 q 248 -109 247 -113 q 251 -75 252 -92 q 254 -59 256 -60 q 252 -56 252 -58 q 259 -39 259 -45 q 264 -30 259 -33 q 269 -7 262 -16 q 273 14 275 3 q 285 41 282 31 q 290 61 288 52 q 293 81 293 75 q 298 91 293 88 q 304 115 300 107 q 309 129 307 129 q 311 130 311 129 q 313 142 311 140 q 316 148 315 144 q 326 171 323 170 q 330 189 327 182 q 335 208 332 197 q 344 229 342 225 q 349 237 346 232 q 353 250 351 244 q 358 263 355 256 q 362 279 365 274 q 373 294 369 290 q 382 313 380 308 q 383 326 384 324 q 384 330 382 328 q 389 340 388 338 q 392 345 389 343 q 397 357 393 353 q 401 370 400 362 q 409 382 407 380 q 408 391 411 385 q 415 401 412 399 q 418 406 418 403 q 421 414 419 412 q 425 419 423 416 q 426 427 426 423 q 429 435 426 430 q 437 453 438 449 q 450 471 449 467 q 453 483 452 476 q 463 499 460 498 q 464 505 465 500 q 477 525 473 509 q 487 534 483 529 q 494 548 491 540 q 500 554 498 551 q 505 560 502 557 q 509 572 509 570 q 510 578 509 575 q 527 602 522 597 q 533 617 532 608 q 541 625 540 618 q 552 631 543 631 q 557 642 556 639 q 563 646 559 644 q 573 658 567 652 q 582 674 579 663 q 594 681 591 680 q 595 686 597 682 q 608 701 604 700 q 610 707 612 701 q 618 708 616 705 q 623 715 621 711 q 626 722 624 719 q 635 724 628 724 q 638 732 637 727 q 642 741 639 738 q 657 749 654 749 q 662 751 661 749 q 670 760 670 758 q 673 764 670 762 q 663 765 669 766 q 654 762 656 764 q 645 764 650 765 q 636 766 640 764 q 625 764 631 764 q 613 765 620 765 q 589 766 598 765 q 570 769 579 766 q 546 771 551 769 q 537 770 541 773 q 530 774 534 773 q 522 774 525 774 q 505 777 507 777 q 503 779 503 776 q 475 782 483 783 q 460 784 468 781 q 442 788 446 788 q 431 791 438 788 q 414 794 418 792 q 408 799 411 796 q 385 802 396 793 q 374 802 380 802 q 365 804 368 802 q 351 804 353 802 q 346 807 350 807 q 328 805 332 803 q 321 803 324 807 q 308 804 315 804 q 294 804 301 804 q 264 802 274 800 q 251 796 255 803 q 227 794 239 799 q 203 787 214 789 q 186 776 189 777 q 174 770 175 773 q 174 762 172 768 q 165 751 168 754 q 160 741 161 747 q 144 726 148 727 q 145 711 148 711 q 142 708 142 711 q 137 692 145 700 q 134 678 136 680 q 134 670 132 677 q 127 652 126 656 q 126 642 127 647 q 127 623 123 627 q 123 615 125 618 q 117 609 122 612 q 119 596 121 597 q 118 593 118 595 q 120 578 121 579 q 119 576 119 578 q 124 564 121 570 q 126 548 127 557 q 121 526 119 533 q 115 521 115 526 q 111 513 114 515 q 96 503 102 505 q 88 496 91 500 q 78 494 81 496 q 72 491 75 491 q 53 506 60 495 q 42 526 56 519 q 39 536 42 533 q 37 543 37 538 q 30 559 34 556 q 31 572 33 570 q 27 576 30 574 q 30 609 27 601 q 34 627 33 617 q 39 642 38 637 q 42 650 41 646 q 47 667 47 662 q 50 674 47 671 q 52 687 49 682 q 57 696 54 692 q 62 706 60 701 q 61 719 64 711 q 66 728 64 724 q 69 738 69 731 q 78 743 73 741 q 81 754 83 746 q 99 770 98 758 q 115 781 113 777 q 118 788 117 785 q 134 796 132 795 q 140 800 136 798 l 153 811 q 161 815 157 814 q 167 819 164 817 q 179 822 176 818 q 189 826 182 826 q 213 846 209 838 q 240 853 227 846 q 258 858 251 859 q 269 863 264 857 q 290 865 288 864 q 299 867 296 864 q 307 869 302 869 q 322 871 313 872 q 340 872 331 871 q 357 875 353 875 q 368 876 362 875 q 377 878 376 876 q 382 879 378 879 q 390 876 387 878 q 397 872 393 875 q 412 875 404 876 q 429 873 420 873 q 450 868 445 869 q 471 865 465 864 q 484 863 477 865 q 494 859 490 861 q 506 859 499 856 q 519 854 515 856 q 528 852 524 853 q 544 848 543 849 q 547 846 545 846 q 580 841 568 841 q 602 834 591 841 l 640 830 q 648 829 643 830 q 656 827 652 827 q 666 827 659 827 q 677 823 673 827 q 708 825 693 826 q 739 825 723 825 q 751 825 750 826 q 754 825 753 825 q 779 827 773 827 q 789 830 784 827 q 806 836 803 837 q 811 836 808 834 q 821 840 817 837 q 831 845 826 842 q 844 854 834 850 q 857 853 849 852 q 867 853 864 854 q 884 859 879 859 q 898 861 890 860 q 913 865 910 865 q 920 865 917 864 q 930 867 926 869 q 936 868 933 865 q 942 841 945 846 q 940 829 939 836 q 932 828 933 829 q 925 829 930 827 q 911 821 916 822 q 903 817 907 819 q 876 807 883 810 q 861 802 869 804 q 840 798 846 800 q 830 789 833 796 q 812 787 821 788 q 800 777 803 785 q 784 774 785 776 q 766 762 769 766 q 748 749 751 751 q 743 743 745 747 q 728 729 731 732 q 719 726 726 726 q 713 713 718 718 q 705 703 708 709 q 688 686 690 689 q 680 681 686 682 q 669 667 677 673 q 659 652 662 661 q 651 645 652 647 q 652 639 650 643 q 641 632 643 636 q 636 631 639 628 q 629 616 632 624 q 620 602 627 609 q 614 589 613 590 q 613 587 614 587 q 604 577 606 579 q 602 572 602 575 q 593 563 594 567 q 586 557 591 559 q 578 540 585 547 q 572 521 572 533 q 564 513 566 518 q 560 502 563 507 q 549 487 552 490 q 547 479 545 484 q 540 473 544 476 q 533 467 536 471 q 529 458 532 458 q 529 452 526 457 q 522 437 525 439 q 522 430 519 435 q 509 411 517 419 q 508 397 510 397 q 505 396 506 397 q 503 385 505 389 q 500 374 502 381 q 490 368 492 373 q 484 359 488 362 q 484 344 486 345 q 481 342 483 343 q 475 323 479 328 q 467 302 468 305 l 463 286 q 458 275 458 282 q 454 259 457 267 q 443 245 442 248 q 442 239 444 243 q 435 224 437 225 q 435 217 433 222 q 431 209 430 214 q 426 203 431 203 q 426 186 429 187 q 420 182 423 184 q 418 172 419 174 q 418 165 416 170 q 410 152 410 152 q 408 135 407 138 q 407 129 408 132 q 395 109 406 117 q 395 98 397 102 q 393 88 392 95 q 389 73 391 76 q 387 66 388 69 q 383 51 385 54 q 382 42 381 47 q 378 32 378 34 q 378 24 377 30 q 373 23 374 24 q 372 19 372 22 q 371 14 372 16 q 366 12 370 12 q 368 -14 370 -8 q 361 -24 365 -20 q 361 -45 363 -35 q 359 -66 359 -56 q 353 -84 354 -81 q 350 -91 351 -87 q 351 -106 354 -106 q 347 -110 349 -107 q 347 -126 349 -126 q 346 -130 346 -126 l 346 -142 z "},"8":{"ha":768,"x_min":20,"x_max":707,"o":"m 34 41 q 43 61 41 56 q 46 73 46 66 q 55 86 53 84 q 60 91 57 88 q 66 104 62 100 q 70 112 69 107 q 73 122 71 117 q 84 142 83 134 q 92 148 91 144 q 94 155 92 152 q 106 167 104 167 q 117 179 115 178 q 121 180 118 180 q 127 189 122 187 q 133 199 133 191 q 151 210 146 208 q 157 218 155 213 q 165 223 163 218 q 172 231 168 228 q 186 241 186 240 q 187 244 186 243 q 196 249 194 245 q 201 255 198 252 q 217 265 214 262 q 222 273 220 269 l 236 283 q 251 294 247 290 q 264 302 263 302 q 267 304 266 302 l 279 313 q 290 322 283 320 q 298 330 296 324 q 313 340 309 335 q 324 347 317 345 q 308 361 312 358 q 300 369 304 365 q 289 378 289 377 q 288 380 289 380 q 262 399 273 393 q 256 408 259 407 q 250 410 254 410 q 237 422 239 418 q 231 427 236 426 q 220 439 221 437 q 216 441 218 441 q 209 448 209 445 q 203 450 209 452 q 190 463 198 461 q 178 479 179 476 q 172 483 176 483 l 160 498 q 156 505 157 500 q 149 509 155 509 q 140 523 141 521 q 136 526 138 525 q 121 555 130 548 q 117 568 117 567 q 117 574 118 570 q 109 587 111 587 q 106 590 107 587 q 106 608 104 605 q 104 614 107 612 q 103 631 100 621 q 103 648 106 642 q 109 667 109 655 q 117 686 110 680 q 120 699 117 697 q 121 708 123 701 q 127 715 125 711 q 133 722 129 719 q 136 730 133 728 q 140 739 140 732 q 153 753 146 750 q 161 766 159 757 q 168 771 165 768 q 174 777 171 774 q 182 785 178 783 q 189 795 187 788 q 208 807 205 802 q 222 816 220 814 q 229 821 225 818 q 246 833 243 829 q 256 841 250 837 q 277 850 274 846 q 283 854 279 853 q 290 859 288 856 q 311 867 307 865 q 317 869 315 868 q 329 876 327 876 q 332 880 331 875 q 346 882 340 880 q 358 887 351 884 q 382 891 373 892 q 401 897 396 895 q 414 901 407 899 q 427 900 420 901 q 441 901 434 899 q 461 901 456 902 q 473 899 467 899 q 491 895 487 894 q 498 895 495 895 q 507 892 503 894 q 517 891 511 890 q 527 882 526 884 q 530 880 528 880 q 550 876 545 875 q 557 875 555 876 q 565 872 562 875 q 571 867 568 869 q 591 863 579 864 q 617 844 613 849 q 643 821 637 834 q 656 814 652 815 q 659 810 659 812 q 674 792 670 804 q 680 786 677 789 q 686 780 682 783 q 693 758 686 769 q 694 739 692 753 q 699 728 700 735 q 700 715 699 722 q 705 699 704 701 q 705 693 707 696 q 701 676 703 681 q 697 669 699 671 q 700 661 700 665 q 703 654 700 656 q 699 638 700 639 q 703 635 697 637 l 696 617 q 692 597 693 604 q 689 585 690 591 q 684 574 684 575 q 684 570 685 572 q 677 555 674 563 q 663 540 667 544 q 654 533 658 536 q 649 522 654 525 q 643 513 644 519 q 631 499 631 502 q 619 492 624 496 q 613 481 614 488 q 597 472 597 476 q 582 460 585 464 q 576 454 579 457 q 562 447 566 449 q 557 439 559 445 q 538 428 544 433 q 528 416 532 423 q 513 407 518 412 q 500 399 502 401 q 495 395 499 396 q 473 385 477 392 q 460 377 469 377 q 464 364 463 370 q 473 359 465 358 q 480 348 477 347 q 484 347 483 349 q 491 339 490 342 q 495 334 492 336 q 513 321 507 328 q 521 313 519 315 q 525 312 522 312 q 545 294 537 302 q 563 278 553 285 l 572 266 q 584 247 581 250 q 590 241 587 244 q 601 225 598 231 q 610 217 604 220 q 616 194 614 197 q 623 184 621 184 q 627 183 625 184 q 635 168 629 174 q 640 150 637 153 q 646 144 643 146 q 653 127 650 129 q 658 121 656 125 q 661 103 656 110 q 663 84 665 96 q 667 70 665 71 q 667 68 669 69 q 666 50 667 54 q 667 43 665 45 q 664 37 665 41 q 662 26 663 33 q 659 18 661 23 q 656 5 658 12 q 652 -12 652 -9 q 648 -16 651 -14 q 646 -30 648 -30 q 643 -31 644 -30 q 639 -41 640 -39 q 637 -47 637 -43 q 624 -73 625 -57 q 616 -90 618 -75 q 604 -102 606 -94 q 597 -117 601 -110 q 574 -132 581 -127 q 563 -142 568 -136 q 534 -159 549 -152 q 524 -167 529 -164 q 514 -175 518 -170 q 502 -182 502 -179 q 496 -183 502 -184 q 481 -194 484 -190 q 472 -199 479 -198 q 449 -214 450 -209 q 429 -220 438 -217 q 412 -225 420 -222 q 393 -237 401 -232 q 377 -240 385 -241 q 362 -248 365 -245 q 357 -251 359 -250 q 337 -253 342 -254 q 327 -254 332 -252 q 318 -256 323 -255 q 311 -258 313 -258 q 296 -260 297 -262 q 294 -258 296 -258 q 285 -260 289 -258 q 277 -264 281 -263 q 265 -264 273 -262 q 252 -263 258 -266 q 240 -262 250 -262 q 227 -262 231 -263 q 205 -260 210 -262 q 194 -258 199 -259 q 178 -258 180 -258 q 172 -258 175 -259 q 157 -258 157 -255 q 142 -248 153 -251 q 123 -247 132 -245 q 118 -239 122 -240 q 111 -233 114 -239 q 92 -218 92 -222 q 79 -209 84 -214 q 72 -197 73 -198 q 69 -194 71 -197 q 60 -175 62 -184 q 49 -161 53 -170 q 38 -148 45 -153 q 36 -138 37 -142 q 31 -134 35 -134 q 28 -121 31 -127 q 24 -109 26 -115 q 24 -96 26 -100 q 24 -85 22 -92 q 20 -53 26 -61 q 26 -29 23 -37 q 24 -15 28 -22 q 33 -1 34 -4 q 33 4 33 1 q 34 24 35 20 q 37 31 33 28 l 34 41 m 399 831 q 378 835 382 836 q 369 834 373 834 q 359 835 363 834 q 350 834 354 836 q 332 827 338 829 q 324 825 327 826 q 307 820 309 821 q 304 818 305 819 q 292 811 293 812 q 288 810 290 810 q 269 793 274 800 q 258 779 264 785 q 250 774 254 776 q 241 768 245 772 q 233 760 236 761 q 225 758 229 758 q 220 741 222 745 q 221 726 222 734 q 214 713 220 718 q 211 699 213 700 q 206 694 209 697 q 206 669 203 680 q 206 652 203 655 q 205 643 209 648 q 209 625 212 632 q 214 606 212 612 q 229 591 222 598 q 233 578 232 578 q 235 575 235 578 q 245 562 241 568 q 255 548 250 555 q 265 536 263 538 q 270 532 267 534 q 282 519 278 524 q 293 513 286 515 q 301 502 298 505 q 307 499 304 499 q 321 488 315 495 q 330 479 327 481 q 340 469 338 469 q 345 465 343 468 q 357 453 355 453 q 357 450 358 453 q 377 437 369 446 q 397 423 385 427 q 404 414 399 418 q 412 407 410 410 q 420 405 418 404 q 430 407 423 406 q 436 414 430 414 q 444 422 442 415 q 458 430 456 427 q 469 439 465 434 q 479 449 472 445 q 495 454 488 456 q 500 460 498 457 q 505 467 503 463 q 517 473 515 472 q 521 476 518 475 q 531 490 529 486 q 538 498 533 495 q 551 517 547 513 q 557 526 555 521 q 568 536 566 533 q 571 541 571 538 q 576 556 574 552 q 575 564 578 560 q 583 578 585 567 q 589 594 582 590 q 593 612 593 606 q 593 627 593 625 q 597 631 594 628 q 593 640 591 633 q 589 648 594 646 q 594 663 598 652 q 594 681 590 674 q 589 691 591 690 q 586 694 587 692 q 583 712 585 711 q 581 716 582 713 q 576 731 578 731 q 574 734 574 731 q 570 742 574 739 q 564 749 567 745 q 554 762 556 757 q 545 768 552 766 q 536 781 541 779 q 529 788 532 784 q 517 792 522 791 q 509 799 511 793 q 493 805 495 806 q 488 806 491 804 q 477 810 477 808 q 475 814 477 812 q 458 822 464 815 q 442 823 452 829 q 426 827 435 829 q 414 830 416 826 q 406 832 410 833 q 399 831 401 831 m 358 313 q 343 304 345 302 q 329 292 332 296 q 317 286 326 288 q 297 268 301 273 q 288 258 293 263 l 273 245 q 259 238 262 239 q 254 236 256 237 q 241 222 244 228 q 234 216 236 220 q 225 212 232 213 q 212 195 214 198 q 206 184 209 191 q 198 179 199 184 q 190 172 197 174 q 180 153 182 156 q 175 148 178 151 q 172 141 172 145 q 168 134 171 137 q 164 121 167 125 q 159 115 161 118 q 154 95 156 102 q 151 85 152 88 q 140 68 140 71 q 141 61 141 65 q 137 39 137 46 q 134 25 133 27 q 136 20 136 23 q 132 3 132 16 q 129 -18 132 -15 q 128 -25 126 -22 q 129 -33 130 -28 q 132 -54 132 -47 q 130 -68 132 -61 q 137 -90 140 -75 q 140 -97 138 -94 q 142 -107 142 -100 q 155 -113 149 -110 q 160 -126 160 -117 q 171 -138 170 -129 q 183 -147 179 -141 q 194 -156 187 -153 q 205 -164 205 -167 q 209 -163 206 -161 q 220 -172 218 -168 q 229 -174 222 -175 q 243 -183 237 -178 q 264 -188 254 -184 q 283 -186 274 -191 q 302 -189 300 -190 q 307 -189 304 -189 q 330 -191 323 -193 q 343 -186 336 -189 q 355 -188 350 -190 q 368 -184 361 -186 q 381 -184 377 -186 q 389 -183 385 -182 q 399 -181 396 -182 q 404 -180 401 -180 q 412 -174 407 -175 q 420 -168 418 -172 q 438 -166 431 -165 q 452 -164 445 -167 q 464 -155 463 -155 q 473 -150 471 -151 q 479 -146 476 -149 q 486 -138 483 -142 q 495 -133 490 -134 q 509 -117 507 -123 q 518 -107 511 -110 q 524 -94 524 -96 q 526 -92 524 -92 q 534 -79 528 -83 q 540 -64 540 -75 q 548 -44 545 -47 q 553 -37 551 -41 q 559 -8 556 -15 q 564 7 563 -1 q 564 19 563 18 q 564 22 564 20 q 564 36 563 33 q 566 42 566 39 q 563 60 566 49 q 559 74 560 73 q 557 77 557 75 l 553 92 q 544 106 544 104 q 538 121 541 117 q 537 130 534 125 q 522 148 525 141 q 517 159 518 156 q 514 164 517 161 q 508 170 511 167 q 506 178 505 174 q 498 184 499 183 q 496 190 496 186 q 488 195 490 191 q 483 205 486 199 q 469 219 471 218 q 464 221 468 220 q 444 245 450 237 q 426 259 437 252 q 415 277 420 273 q 395 288 403 283 q 385 301 388 293 q 369 313 369 311 l 358 313 z "},"9":{"ha":849,"x_min":41,"x_max":772,"o":"m 766 484 q 768 449 769 465 q 769 415 768 433 q 772 400 772 404 q 770 385 772 388 q 769 380 769 382 q 768 370 768 373 q 769 363 769 366 q 768 353 766 357 q 769 345 769 349 q 767 323 766 330 q 765 312 768 316 q 766 294 766 300 q 768 285 765 289 q 762 273 762 275 q 760 269 762 270 q 761 245 760 256 q 756 220 757 229 q 749 206 755 212 q 747 191 750 197 q 745 178 745 186 q 740 159 739 164 q 734 153 741 153 q 733 136 734 138 q 730 132 732 133 q 726 116 728 118 q 726 109 723 114 q 718 100 719 106 q 712 91 718 94 q 711 76 711 77 q 708 72 711 75 q 699 57 703 61 q 692 41 692 46 q 684 24 688 27 q 684 18 681 22 q 677 11 678 15 q 670 4 675 7 q 659 -15 661 -5 q 651 -21 652 -16 q 648 -33 650 -26 q 637 -47 639 -45 q 635 -52 636 -49 q 623 -64 627 -62 q 618 -72 618 -66 q 603 -86 608 -77 q 587 -98 598 -95 q 578 -111 581 -109 q 572 -115 576 -113 q 557 -128 560 -125 q 551 -134 553 -132 q 541 -138 544 -136 q 532 -142 537 -141 q 522 -153 524 -153 q 519 -155 521 -153 q 509 -162 510 -160 q 506 -164 509 -164 q 492 -174 496 -167 q 477 -182 488 -180 q 460 -191 464 -189 q 450 -194 456 -193 q 441 -205 444 -203 q 441 -208 438 -206 q 427 -211 429 -209 q 423 -214 426 -213 q 410 -224 414 -218 l 391 -229 q 376 -237 380 -239 q 370 -237 373 -235 q 356 -243 357 -244 q 353 -243 355 -243 q 324 -247 335 -245 q 304 -251 313 -248 q 286 -255 296 -254 q 270 -263 277 -256 q 260 -262 264 -259 q 254 -259 256 -264 q 239 -262 239 -263 q 237 -262 239 -262 q 219 -263 225 -264 q 206 -262 213 -262 q 191 -261 194 -263 q 184 -262 187 -259 q 170 -251 172 -255 q 159 -250 167 -247 q 153 -245 156 -247 q 142 -244 149 -243 q 127 -233 132 -237 q 114 -229 122 -229 q 98 -215 100 -217 q 92 -210 95 -213 q 86 -205 90 -208 q 79 -201 83 -203 q 73 -191 75 -191 q 68 -189 71 -190 q 56 -174 58 -179 q 46 -167 54 -168 q 43 -153 46 -156 q 42 -144 41 -151 q 47 -138 42 -138 q 49 -129 52 -137 q 58 -121 57 -129 q 60 -110 58 -114 q 90 -106 81 -109 q 102 -100 98 -103 q 119 -100 111 -102 q 126 -113 125 -113 q 129 -115 127 -113 q 157 -132 148 -130 q 163 -142 159 -138 q 174 -148 167 -145 q 187 -159 184 -157 q 195 -161 190 -161 q 202 -169 198 -167 q 209 -175 206 -171 q 222 -176 217 -174 q 233 -179 228 -179 q 246 -184 244 -186 q 252 -183 248 -183 q 259 -187 255 -186 q 266 -191 263 -189 q 284 -193 275 -193 q 305 -193 293 -193 q 318 -193 316 -191 q 323 -194 320 -194 q 332 -193 327 -194 q 342 -193 338 -193 q 368 -184 361 -191 q 385 -182 382 -182 q 388 -183 387 -183 q 397 -178 395 -179 q 401 -174 400 -176 q 421 -164 416 -168 q 433 -156 426 -160 q 445 -149 439 -152 q 453 -138 450 -145 q 465 -127 465 -133 q 478 -122 477 -123 q 483 -121 479 -121 q 493 -109 491 -109 q 498 -107 495 -109 q 515 -90 513 -96 q 526 -80 518 -83 q 536 -66 532 -69 q 543 -54 541 -62 q 563 -37 555 -43 q 572 -19 566 -26 q 582 -1 579 -12 q 594 18 591 5 q 605 38 597 30 q 610 52 609 50 q 614 56 612 53 q 620 66 621 65 q 618 71 618 68 q 623 79 623 73 q 625 91 624 84 q 633 104 631 102 q 635 110 635 107 q 643 132 637 126 l 647 156 q 652 169 650 163 q 655 184 655 175 q 665 212 659 206 q 665 224 663 224 q 667 228 667 225 q 669 243 670 243 q 669 245 669 244 q 670 260 671 256 q 669 269 669 264 q 671 288 673 283 q 671 296 669 292 q 656 288 658 289 q 651 285 654 288 q 642 273 642 278 q 629 262 628 264 q 627 258 629 259 q 613 252 616 255 q 604 248 610 250 q 593 237 593 240 q 591 235 594 235 q 575 232 575 236 q 559 220 562 220 q 553 217 556 220 l 538 210 q 522 205 524 206 q 517 203 521 203 q 512 197 514 201 q 503 195 510 194 q 484 188 492 191 q 472 180 476 184 q 438 172 450 179 q 411 168 426 165 q 397 163 406 165 q 381 160 389 160 q 362 157 363 157 q 336 155 351 156 q 309 157 321 155 q 301 159 305 157 q 292 163 297 161 q 273 165 282 165 q 258 171 264 165 q 248 172 254 170 q 239 178 243 175 q 223 184 228 183 q 214 187 218 184 q 197 199 202 195 q 184 205 191 202 q 164 222 176 216 q 156 232 161 229 q 148 241 151 235 q 136 254 140 251 q 127 262 132 258 q 125 279 125 275 q 123 285 125 282 q 118 302 118 296 q 111 323 114 319 q 106 334 109 328 q 102 351 104 349 q 99 358 100 354 q 97 366 98 361 q 94 373 96 370 q 93 395 92 385 q 90 410 94 404 q 92 420 94 415 q 91 433 91 426 q 92 454 91 450 q 92 460 92 457 q 92 473 94 473 q 91 475 91 473 q 93 483 91 477 q 92 494 95 488 q 98 522 95 511 q 104 540 102 534 q 105 555 106 548 q 110 566 104 563 q 110 573 107 570 q 110 583 113 576 q 116 598 115 597 q 117 604 117 600 q 121 622 122 617 q 122 629 121 627 q 126 644 127 642 q 125 648 125 646 q 134 662 130 658 q 134 673 137 666 q 149 692 142 686 q 153 711 156 699 q 169 728 163 724 q 175 741 175 732 q 188 753 184 751 q 190 760 191 754 q 207 778 202 773 q 214 791 212 783 q 224 798 222 798 q 225 803 227 799 q 242 813 239 810 q 252 819 245 817 q 270 832 266 829 q 281 837 274 836 q 302 848 285 850 l 315 857 q 339 869 335 864 q 366 880 362 875 q 384 882 382 880 q 388 884 385 883 q 403 888 399 888 q 410 892 407 891 q 416 895 414 892 q 438 895 433 901 q 462 896 453 897 q 479 899 471 895 q 498 896 494 895 q 509 894 503 897 q 532 892 522 894 q 548 887 541 891 q 563 885 562 886 q 563 882 564 884 q 570 878 567 880 q 578 878 572 876 q 591 869 581 872 q 600 860 600 861 q 602 856 600 859 q 617 846 613 849 q 627 832 625 834 q 631 829 628 830 q 642 817 637 821 q 650 810 646 814 q 660 791 655 795 q 671 783 665 787 q 677 764 677 764 q 683 756 680 760 q 689 749 686 753 q 694 735 690 738 q 701 730 697 732 q 702 720 700 723 q 707 713 704 716 q 709 705 705 707 q 712 699 712 704 q 720 686 720 690 q 720 678 719 682 q 726 666 722 673 q 728 652 730 659 q 739 631 735 635 q 741 621 738 625 q 745 613 743 617 q 747 599 746 601 q 749 591 749 597 q 749 582 749 586 q 753 574 749 578 q 754 556 754 562 q 757 545 754 551 q 762 533 762 537 q 765 529 761 529 q 762 510 762 524 l 766 484 m 193 538 q 189 532 190 536 q 187 524 189 529 q 183 496 184 506 q 178 485 180 486 q 176 483 176 484 q 178 473 178 475 q 178 468 179 471 q 182 456 183 463 q 180 444 182 450 q 182 434 183 438 q 180 425 182 430 q 186 412 183 418 q 190 399 189 407 q 200 374 197 378 q 205 362 203 369 q 206 348 205 349 q 208 345 208 347 q 218 320 213 324 q 227 312 222 316 q 235 297 229 302 l 254 278 q 261 271 256 273 q 269 264 266 269 q 286 255 277 256 q 300 247 294 254 q 309 245 307 248 q 316 240 312 243 q 330 237 330 239 q 332 235 330 235 q 345 233 343 233 q 347 231 346 232 q 359 227 354 229 q 369 222 363 225 q 382 222 376 221 q 392 220 389 222 q 416 222 404 225 q 441 222 427 220 q 461 227 452 224 q 477 228 471 229 q 492 234 488 235 q 496 235 495 233 q 506 239 502 236 q 513 245 510 243 q 520 249 517 247 q 526 254 524 251 q 541 260 537 252 q 556 267 545 267 q 563 276 557 274 q 571 282 568 278 q 578 293 579 290 q 579 296 576 296 q 587 300 586 294 q 595 302 587 305 q 602 315 597 311 q 612 327 608 319 l 624 338 q 631 353 631 350 q 636 361 636 358 q 637 366 636 363 q 650 385 646 374 q 662 403 655 395 q 665 418 665 411 q 673 437 671 434 q 675 442 675 439 q 675 461 675 454 q 673 469 675 465 q 671 476 671 473 l 671 491 q 665 510 669 506 q 663 524 662 524 q 663 526 665 525 q 659 547 661 543 q 656 556 658 552 q 656 568 658 566 q 652 574 654 571 q 650 586 650 581 q 646 594 650 591 q 643 614 644 608 q 637 627 642 621 l 633 648 q 624 665 627 658 q 618 674 621 671 q 614 684 618 681 q 612 694 610 686 q 604 700 605 696 q 600 707 602 704 q 593 723 594 719 q 589 731 591 727 l 578 747 q 572 753 574 750 q 566 760 571 757 q 557 773 560 770 q 551 779 553 776 q 534 791 537 792 q 522 803 526 799 q 513 809 515 807 q 509 812 511 811 q 498 812 502 811 q 488 812 495 812 q 483 818 486 815 q 473 819 480 821 q 456 827 460 826 q 450 829 453 829 q 439 831 442 829 q 429 831 435 833 q 408 836 414 836 q 397 836 403 837 q 387 833 388 833 q 382 833 385 834 q 372 831 378 830 q 362 831 366 833 q 346 825 347 825 q 336 815 336 818 q 332 810 335 812 q 324 812 330 812 q 315 810 319 811 q 303 792 305 795 q 300 787 301 789 q 291 781 294 784 q 288 773 288 779 q 281 766 285 769 q 275 758 277 764 q 267 750 270 751 q 264 742 263 749 q 255 736 259 739 q 252 724 251 732 q 245 720 245 724 q 241 711 244 715 q 232 685 236 689 q 222 669 224 674 q 221 656 220 663 q 214 646 216 651 q 208 635 213 640 q 203 621 202 624 q 203 616 203 618 q 195 601 198 605 q 191 590 191 597 q 192 576 194 578 q 189 572 190 575 q 193 552 190 557 l 193 538 z "},"":{"ha":481,"x_min":14,"x_max":677,"o":"m 251 395 q 241 401 243 399 q 237 404 240 403 q 221 406 224 408 q 216 406 218 404 q 203 408 210 406 q 191 404 195 411 q 175 404 176 403 q 166 400 171 401 q 159 396 161 399 q 153 386 155 388 q 152 380 151 384 q 145 372 149 376 q 138 366 141 369 q 130 338 134 345 q 121 328 126 332 q 121 314 122 321 q 117 302 121 307 q 113 279 111 282 q 114 269 115 275 q 113 252 109 251 q 115 248 117 252 q 117 233 115 233 q 119 229 119 232 l 123 213 q 127 201 129 202 q 127 197 126 199 q 136 182 134 184 q 141 176 138 179 q 144 164 142 167 q 144 159 146 161 q 155 156 151 157 q 163 148 160 155 q 175 138 174 145 q 221 137 205 132 q 248 139 241 136 q 258 148 255 142 q 267 155 264 153 q 271 160 269 157 q 283 178 278 172 q 286 193 288 184 q 303 222 298 212 q 307 248 308 232 q 311 267 312 264 q 309 271 309 269 q 313 291 315 279 q 308 311 311 302 q 308 324 309 324 q 307 326 307 324 q 302 342 302 335 q 283 365 289 359 q 274 378 278 370 q 266 387 267 385 q 263 391 264 388 l 251 395 m 490 821 q 502 822 499 821 q 507 826 505 823 q 515 827 511 827 q 522 830 518 827 q 536 838 532 834 q 547 842 541 841 q 562 847 562 846 q 564 850 562 848 q 575 853 570 853 q 583 860 581 853 q 590 871 587 871 q 593 873 593 871 q 611 880 610 878 q 616 886 612 883 q 638 890 631 887 q 651 892 646 894 q 665 892 662 894 q 667 887 667 891 q 675 869 677 872 q 677 863 673 867 q 665 850 671 857 q 655 838 655 845 q 646 831 648 831 q 643 827 643 830 q 633 821 635 825 q 628 821 631 818 q 616 810 616 811 q 614 806 616 808 q 601 798 605 803 q 590 791 597 793 q 566 789 578 802 q 545 787 553 788 q 533 783 536 785 q 517 781 517 784 q 514 779 517 779 q 497 773 496 776 q 494 768 498 770 q 478 765 479 765 q 476 764 477 765 l 477 747 q 484 732 483 736 q 484 722 484 728 q 487 699 484 704 q 488 686 486 689 q 487 678 490 682 q 487 659 487 667 q 490 646 487 651 q 486 639 487 642 q 484 631 486 636 l 479 593 q 477 583 477 586 q 476 576 477 579 q 475 562 479 570 q 471 545 472 555 q 472 537 471 541 q 469 526 473 533 q 470 517 472 522 q 467 505 468 511 q 467 498 467 500 q 465 488 468 495 q 466 480 468 486 q 463 472 464 475 q 462 460 461 464 q 461 452 463 456 q 455 425 456 433 q 452 407 454 416 q 447 386 446 391 q 445 374 448 381 q 440 357 439 361 q 438 347 441 353 q 435 340 437 345 q 431 334 433 336 q 425 309 426 315 q 425 298 423 304 q 418 283 416 290 q 411 267 420 277 q 404 248 407 256 q 395 239 401 239 q 388 227 389 229 q 387 220 387 224 q 374 210 373 212 q 374 203 374 209 q 361 185 362 189 q 357 180 361 182 q 342 164 350 172 q 327 154 330 156 q 324 148 324 152 q 313 138 315 141 q 311 133 312 136 q 297 127 297 129 q 296 126 297 126 q 280 117 283 121 q 273 111 277 114 q 260 106 266 111 q 247 99 254 102 q 239 95 243 96 q 232 90 235 94 q 197 75 212 83 q 167 72 183 66 q 149 69 151 68 q 144 72 146 71 q 127 66 132 66 q 117 69 123 66 q 98 73 103 73 q 79 83 84 81 q 71 88 75 85 q 62 94 66 91 q 57 104 57 98 q 46 115 46 115 q 35 134 39 132 q 30 151 33 148 q 24 162 24 161 q 22 167 23 163 q 20 176 22 170 q 19 186 19 182 q 16 224 15 213 q 14 247 16 236 q 16 252 16 248 q 16 262 15 255 q 19 276 18 274 q 20 281 20 278 q 26 304 23 294 q 30 311 27 308 q 31 320 33 315 q 40 333 38 324 q 46 349 42 342 q 58 372 56 366 q 68 381 61 378 q 75 392 69 389 q 81 403 80 395 q 95 416 94 407 q 107 424 107 425 q 110 423 107 423 q 125 437 122 433 q 132 444 127 441 q 144 452 141 449 q 151 457 148 454 q 162 463 160 463 q 167 464 164 463 q 183 475 180 473 q 187 480 186 476 q 225 494 213 487 q 239 496 235 496 q 247 496 243 495 q 254 498 251 496 q 262 499 258 499 q 274 496 269 499 q 286 494 279 494 q 300 490 297 494 q 307 487 302 487 q 315 469 311 472 q 330 464 320 465 q 346 449 346 453 q 361 440 354 445 q 372 427 368 435 q 378 441 374 441 q 381 446 381 442 q 381 456 378 450 q 387 468 384 461 q 388 494 387 483 q 393 517 389 506 l 396 567 q 399 585 396 581 q 399 600 401 598 q 399 605 396 601 q 404 631 403 620 q 412 654 404 642 q 412 673 414 670 q 414 682 411 675 q 411 707 414 696 q 414 715 415 711 q 416 728 412 720 q 398 732 403 732 q 389 730 393 732 q 381 722 387 727 q 369 719 376 716 q 355 710 362 712 q 339 704 347 708 q 314 694 319 697 q 304 688 309 690 q 283 680 294 685 q 262 673 273 675 q 249 667 252 667 q 244 662 245 667 q 216 650 229 654 q 201 645 205 647 q 195 643 198 643 q 167 628 174 635 q 154 623 159 624 q 148 618 149 623 q 133 616 141 620 q 119 623 126 620 q 107 633 113 625 q 110 642 110 637 q 111 648 110 646 q 119 654 115 651 q 123 661 122 656 q 130 664 126 662 q 137 670 134 666 q 149 684 144 681 q 164 699 161 697 q 170 703 167 700 q 184 719 180 718 q 193 718 190 720 q 199 716 195 716 q 208 719 205 718 q 216 722 212 720 q 233 727 224 726 q 250 731 241 728 q 261 734 256 732 q 271 736 266 736 q 286 742 283 742 q 292 745 289 742 q 308 749 302 749 q 321 753 313 750 q 334 756 330 757 q 339 760 338 755 q 363 773 355 766 q 385 783 370 780 q 404 787 401 785 q 399 802 404 796 q 397 816 397 812 q 392 821 396 819 q 385 839 387 834 q 377 846 384 844 q 358 869 372 869 q 345 881 346 882 q 342 882 343 880 q 330 888 334 888 q 323 890 326 887 q 308 897 313 898 q 298 898 302 895 q 288 901 296 902 q 274 903 279 901 q 250 906 256 905 q 239 907 244 907 q 210 905 217 903 q 198 903 203 906 q 184 898 189 898 q 175 895 179 898 q 163 889 165 888 q 159 888 161 890 q 142 880 146 880 q 135 874 138 878 q 127 868 132 871 q 118 863 121 867 q 110 856 115 859 q 94 859 94 857 q 92 861 94 860 q 79 869 81 869 q 66 878 69 878 q 61 880 62 878 q 58 889 60 886 q 53 898 56 892 q 39 907 41 903 q 31 913 37 911 q 41 932 35 918 q 54 938 46 937 q 65 948 62 939 q 85 954 80 951 q 94 960 90 958 q 112 967 107 966 q 122 974 117 968 q 135 976 130 971 q 149 978 140 981 q 182 983 170 981 q 208 985 194 985 q 230 983 220 985 q 251 981 240 981 q 269 973 263 972 q 277 972 274 974 l 292 964 q 310 956 307 956 q 315 951 313 955 q 338 943 330 944 q 354 937 347 941 q 374 917 370 922 q 385 910 381 911 q 393 906 389 909 q 401 895 396 898 q 410 884 407 891 q 420 874 419 875 q 423 873 420 873 q 429 863 425 867 q 435 854 433 860 q 444 847 441 852 q 446 834 448 842 q 460 810 460 818 l 490 821 z "},"":{"ha":829,"x_min":-174,"x_max":1035,"o":"m 298 -163 l 311 -146 q 317 -139 311 -140 q 321 -132 324 -138 q 304 -119 305 -121 q 300 -117 302 -118 q 297 -116 298 -117 q 293 -110 296 -115 q 274 -98 282 -104 q 256 -83 266 -91 q 250 -77 252 -76 q 243 -75 247 -77 q 233 -67 239 -71 q 222 -58 227 -64 q 203 -47 210 -52 q 175 -37 186 -39 q 156 -22 157 -24 q 134 -19 144 -20 q 115 -16 123 -18 q 94 -12 99 -11 q 83 -12 90 -12 q 65 -10 73 -11 q 50 -11 57 -9 q 33 -13 42 -11 q 18 -12 24 -15 q 11 -15 14 -14 q 4 -19 8 -16 q -11 -23 -11 -22 q -14 -26 -11 -24 q -28 -37 -23 -34 q -37 -43 -33 -41 q -50 -58 -47 -56 q -54 -62 -52 -61 q -62 -80 -60 -77 q -64 -93 -62 -92 q -66 -96 -65 -94 q -66 -106 -66 -100 q -66 -117 -65 -111 q -69 -136 -69 -136 q -67 -153 -64 -152 q -69 -159 -71 -155 q -65 -168 -66 -163 q -66 -178 -64 -174 q -57 -190 -56 -180 q -35 -209 -41 -205 q -23 -216 -30 -213 q -5 -227 -8 -225 q -1 -231 -3 -228 q 31 -245 20 -240 q 57 -247 42 -250 l 72 -244 q 80 -244 75 -245 q 91 -243 85 -243 q 111 -241 103 -244 q 134 -241 127 -240 q 149 -240 141 -241 q 172 -234 167 -235 q 182 -231 176 -233 q 199 -225 198 -227 q 203 -222 201 -224 q 227 -213 222 -217 q 236 -206 231 -209 q 248 -199 247 -202 q 251 -195 248 -197 q 267 -190 262 -194 q 279 -182 273 -186 l 298 -163 m 483 699 q 475 693 480 696 q 465 693 471 690 q 451 685 458 686 q 433 681 444 684 q 408 673 412 675 q 397 667 404 670 q 377 661 389 663 q 354 655 365 658 q 341 650 345 650 q 336 646 338 650 q 307 636 319 642 q 292 633 294 636 q 286 632 289 631 q 265 623 270 624 q 255 620 260 623 q 241 615 245 616 q 236 612 237 614 q 221 610 233 613 q 208 618 214 614 q 197 631 202 621 q 217 656 213 648 q 233 674 236 667 q 248 682 245 680 q 252 686 251 684 q 266 693 262 689 q 279 706 278 705 q 282 708 279 707 q 304 707 300 705 q 312 708 308 708 q 330 711 321 711 q 349 713 339 711 q 358 716 354 715 q 368 718 362 718 q 385 721 382 720 q 391 726 388 722 q 407 728 401 727 q 419 731 412 728 q 433 733 429 734 q 439 735 437 732 q 463 748 456 743 q 486 754 471 753 q 500 765 499 761 q 507 789 505 784 q 507 800 510 795 q 513 811 510 804 q 513 823 517 818 q 526 850 525 842 q 530 865 526 859 q 540 895 540 879 q 545 913 543 909 q 544 922 547 917 q 555 939 555 935 q 556 948 555 944 q 562 961 563 959 q 563 966 562 963 q 576 983 568 978 q 577 991 575 989 q 578 1000 579 993 q 591 1011 589 1009 q 595 1016 593 1013 q 602 1027 601 1027 q 606 1029 604 1027 q 616 1044 617 1042 q 620 1053 616 1047 q 637 1072 631 1061 q 648 1076 644 1073 q 654 1082 651 1078 q 661 1096 656 1093 q 671 1099 671 1097 q 674 1103 671 1101 q 696 1115 686 1108 q 714 1125 711 1123 q 722 1130 718 1127 q 728 1133 726 1131 q 735 1137 731 1135 q 770 1152 760 1146 q 782 1155 780 1156 q 785 1156 784 1154 q 804 1162 800 1158 q 819 1160 814 1160 q 831 1162 823 1161 q 838 1163 836 1164 q 849 1162 841 1162 q 857 1162 853 1161 q 864 1162 861 1162 q 875 1159 872 1160 q 880 1158 878 1158 q 901 1156 898 1153 q 908 1152 906 1153 q 918 1153 910 1152 q 924 1147 921 1150 q 932 1142 928 1145 q 949 1128 945 1135 q 967 1116 952 1120 q 970 1109 967 1112 q 977 1104 974 1107 q 990 1095 990 1096 q 993 1090 990 1093 q 1002 1078 1000 1078 q 1008 1077 1005 1078 q 1015 1059 1010 1066 q 1019 1042 1020 1053 q 1027 1028 1027 1032 q 1034 1024 1028 1024 q 1032 1001 1035 1009 q 1035 986 1029 993 q 1032 978 1032 981 q 1031 971 1032 975 q 1032 951 1035 954 q 1028 947 1029 949 q 1035 918 1029 926 q 1030 909 1032 913 q 1031 901 1028 905 q 1024 884 1027 894 q 1024 865 1021 875 q 1017 855 1017 863 q 1009 844 1016 848 q 1008 834 1010 837 q 1008 826 1006 831 q 1001 805 1002 810 q 996 798 1000 800 q 993 781 990 785 q 994 774 996 777 q 979 739 982 757 q 970 728 970 728 q 970 722 970 727 q 965 714 967 718 q 960 707 963 711 q 956 700 958 704 q 948 694 955 696 q 939 680 947 688 q 937 667 937 671 q 933 665 937 663 q 930 645 932 647 q 928 639 928 643 q 917 624 920 635 q 903 610 907 618 q 890 595 898 601 q 878 576 884 578 q 871 569 875 572 q 869 559 867 566 q 863 555 864 559 q 859 548 861 552 q 852 541 856 545 q 844 536 849 537 q 838 525 842 526 q 831 521 834 524 q 827 511 831 514 q 822 502 823 509 q 803 492 811 498 q 787 480 795 487 q 772 461 779 465 q 762 450 765 457 q 739 435 746 438 q 730 423 732 433 q 713 416 713 419 q 709 411 712 414 q 696 404 701 408 q 686 395 692 400 q 669 384 675 393 q 652 373 654 381 q 638 368 643 372 q 628 359 633 363 q 601 346 610 358 q 581 334 587 340 q 560 323 567 328 q 543 316 553 319 q 543 300 545 304 q 540 292 541 296 q 539 279 538 285 q 537 270 540 274 q 534 254 537 254 q 530 251 530 254 q 532 234 534 237 q 528 228 530 231 q 530 218 526 222 q 530 209 533 214 q 528 196 526 201 q 526 187 530 191 q 525 163 528 168 q 521 153 522 159 q 523 140 526 144 q 519 134 519 137 q 516 117 515 123 q 514 103 517 110 q 506 83 510 87 q 501 62 502 66 q 503 58 500 58 q 496 50 496 56 q 491 41 496 43 q 490 28 491 30 q 486 23 488 26 q 484 12 487 12 q 479 9 481 11 q 472 -8 475 -7 q 467 -12 469 -9 q 465 -27 469 -20 q 465 -42 461 -34 q 459 -51 460 -45 q 453 -60 458 -57 q 450 -76 456 -71 q 442 -88 445 -81 q 446 -90 446 -88 q 443 -94 445 -92 q 439 -99 441 -96 q 438 -104 437 -102 q 439 -116 441 -115 q 438 -119 438 -117 q 450 -130 448 -127 q 460 -141 456 -137 q 468 -151 465 -145 q 477 -164 477 -164 q 490 -178 488 -178 q 502 -185 494 -182 q 515 -193 510 -189 q 528 -209 515 -208 q 532 -219 526 -216 q 541 -225 537 -222 l 551 -237 q 554 -242 552 -239 q 557 -251 556 -245 q 570 -262 564 -256 q 579 -277 576 -269 q 598 -294 594 -292 q 602 -301 601 -297 q 610 -307 604 -305 q 612 -312 609 -309 q 618 -320 616 -315 q 626 -330 623 -326 q 639 -338 629 -335 q 650 -351 646 -350 q 656 -365 655 -363 q 658 -368 656 -366 q 669 -380 667 -377 q 675 -381 671 -382 q 685 -391 684 -388 q 692 -392 686 -393 q 711 -410 701 -410 q 724 -422 719 -419 q 739 -427 730 -426 q 760 -437 741 -437 q 770 -446 762 -444 q 785 -453 779 -449 q 800 -457 800 -453 q 809 -458 806 -456 q 817 -463 812 -461 q 830 -463 823 -464 q 844 -465 837 -463 q 879 -464 867 -464 q 901 -457 891 -464 q 916 -455 909 -457 q 928 -446 924 -453 q 942 -444 937 -445 q 951 -441 947 -444 q 983 -418 975 -429 q 993 -417 990 -419 q 998 -415 996 -415 q 996 -428 998 -429 q 991 -430 994 -427 q 973 -444 979 -441 q 958 -449 967 -448 q 953 -456 955 -453 q 947 -463 951 -460 q 943 -470 947 -468 q 937 -476 940 -472 q 924 -478 926 -476 q 921 -481 922 -480 q 898 -484 903 -484 q 888 -488 891 -486 q 880 -495 884 -491 q 852 -499 861 -502 q 833 -500 844 -496 q 821 -500 826 -498 q 808 -506 815 -503 q 793 -499 793 -500 q 791 -496 793 -498 q 775 -500 777 -498 q 768 -502 773 -502 q 747 -496 751 -500 q 738 -499 742 -492 q 716 -491 724 -496 q 690 -490 704 -494 q 671 -479 677 -487 q 661 -477 665 -479 q 654 -475 658 -476 l 633 -471 q 625 -463 631 -465 q 613 -457 618 -460 q 604 -448 606 -449 q 602 -444 601 -446 q 590 -437 594 -442 q 579 -431 586 -433 q 558 -412 562 -418 q 548 -400 555 -407 q 543 -395 545 -397 q 534 -391 540 -392 q 527 -374 529 -374 q 522 -372 525 -374 q 511 -357 518 -363 q 503 -345 506 -349 q 498 -338 500 -340 q 489 -330 492 -335 q 479 -321 486 -324 l 472 -296 q 462 -292 464 -298 q 452 -282 460 -285 q 441 -267 449 -271 q 430 -252 433 -263 q 419 -241 423 -247 q 407 -231 415 -235 q 400 -222 407 -224 q 391 -214 393 -220 q 384 -201 388 -209 q 373 -191 380 -194 q 361 -201 365 -194 q 349 -210 358 -209 q 321 -232 331 -221 q 304 -250 311 -243 q 278 -259 286 -258 q 271 -266 273 -262 q 262 -270 269 -270 q 248 -280 245 -279 q 248 -282 251 -281 q 237 -286 241 -285 q 227 -288 233 -286 q 211 -297 213 -296 q 206 -300 209 -298 q 190 -300 195 -297 q 179 -308 184 -304 q 168 -309 172 -307 q 161 -313 164 -311 q 141 -324 145 -321 q 130 -327 137 -327 q 107 -328 109 -331 q 98 -330 106 -324 q 81 -328 91 -327 q 68 -327 72 -330 q 45 -330 60 -331 q 20 -334 30 -330 l 3 -330 q -7 -323 0 -324 q -18 -317 -15 -323 q -32 -316 -28 -317 q -39 -312 -35 -315 q -61 -305 -56 -307 q -73 -304 -66 -304 q -88 -294 -84 -296 q -98 -289 -92 -292 q -120 -277 -114 -282 q -126 -266 -126 -273 q -141 -256 -138 -258 q -146 -251 -144 -254 q -151 -239 -149 -241 q -155 -233 -152 -236 q -163 -218 -161 -218 q -165 -214 -164 -217 q -168 -200 -167 -201 q -171 -198 -170 -199 q -169 -180 -170 -182 q -167 -176 -168 -179 q -174 -149 -161 -157 q -160 -134 -165 -138 q -161 -124 -163 -127 q -159 -114 -159 -121 q -149 -92 -155 -100 l -140 -76 q -121 -55 -129 -60 q -111 -41 -114 -50 q -100 -27 -102 -30 q -95 -24 -98 -24 q -84 -17 -84 -20 q -80 -15 -84 -14 q -69 -7 -71 -9 q -64 -5 -68 -5 q -45 7 -50 3 q -34 14 -41 11 q -18 24 -23 20 q -9 30 -14 27 l 7 38 l 23 46 q 41 50 38 50 q 46 52 43 50 q 60 56 57 57 q 62 58 62 56 q 72 57 65 57 q 85 57 79 57 q 109 55 103 60 q 121 53 115 50 q 141 49 140 52 q 162 48 152 52 q 184 46 172 45 q 203 38 199 39 q 210 35 208 37 q 219 29 216 33 q 229 24 222 26 q 237 19 233 22 q 245 18 240 16 q 264 8 260 11 q 274 4 267 5 q 286 -2 281 -1 q 294 -3 290 -3 q 310 -17 301 -14 q 331 -23 319 -20 q 338 -41 331 -34 q 357 -52 346 -49 q 374 -52 370 -60 q 380 -39 377 -45 q 385 -30 382 -33 q 388 -24 387 -27 q 393 -5 392 -7 q 395 4 395 -3 q 400 9 397 4 q 406 16 403 15 q 406 33 403 23 q 410 50 408 43 q 415 77 415 71 q 420 90 415 84 q 420 107 418 95 q 424 118 425 117 q 425 122 423 119 q 430 142 431 136 q 437 174 438 163 q 441 197 437 184 q 439 212 438 208 q 438 218 441 216 q 444 242 441 235 q 446 259 446 250 q 435 258 442 262 q 422 256 429 255 q 404 251 410 251 q 395 250 399 251 q 380 247 388 248 q 370 243 372 245 q 355 240 362 241 q 345 236 349 239 q 315 238 321 239 q 294 237 308 237 q 273 235 275 233 q 267 237 271 236 q 250 232 252 235 l 232 239 q 221 239 227 239 q 213 237 216 240 q 197 242 203 243 q 183 247 190 241 q 172 248 176 245 q 160 248 167 250 l 137 255 l 123 263 q 98 277 102 270 q 81 282 83 282 q 77 285 79 282 q 68 296 71 294 q 65 298 66 297 q 60 314 61 315 q 57 315 58 313 q 50 326 53 326 q 46 330 47 327 q 45 347 49 340 q 49 365 42 354 q 45 376 43 369 q 46 391 46 384 q 57 395 56 391 q 65 403 58 400 l 75 418 q 95 431 83 426 q 122 437 114 439 q 140 430 130 434 q 141 421 142 426 q 142 411 140 416 q 138 400 136 407 q 141 387 141 393 q 151 363 142 368 q 165 345 151 349 q 177 334 168 336 q 191 327 186 332 q 205 324 203 324 q 206 321 206 324 q 222 317 218 317 q 245 306 240 307 q 256 304 250 305 q 280 299 274 301 q 293 296 286 297 q 312 295 307 294 q 324 296 317 296 q 347 296 338 296 q 365 297 355 296 q 391 299 382 301 q 407 300 399 297 q 420 307 418 305 q 437 311 427 309 q 454 317 448 313 q 456 331 456 330 q 453 335 456 332 q 455 351 454 342 q 456 368 456 361 q 454 397 458 389 q 457 411 458 410 q 456 415 456 412 q 458 433 460 430 q 456 439 457 437 q 458 461 457 450 q 461 483 458 472 q 459 499 458 496 q 463 505 460 502 q 460 524 457 514 q 465 544 463 534 q 467 570 465 562 q 472 585 469 578 q 472 606 472 601 q 473 616 472 610 q 476 627 477 625 q 475 632 475 629 q 477 642 479 640 q 476 647 476 644 q 478 656 476 651 q 480 667 480 662 q 481 686 479 680 q 481 699 484 692 l 483 699 m 598 783 q 605 785 602 784 q 613 788 608 787 q 620 789 617 789 q 628 791 623 788 q 642 797 636 795 q 652 800 647 799 q 668 803 667 802 q 671 807 669 804 q 682 808 677 808 q 690 814 686 808 q 699 825 696 825 q 703 827 701 825 q 720 831 719 829 q 726 837 720 834 q 748 842 741 838 q 761 842 755 845 q 774 842 773 844 q 776 836 776 840 q 783 817 785 819 q 784 810 780 814 q 774 802 776 804 q 772 798 773 800 q 755 787 757 788 q 744 776 746 777 q 741 777 742 774 q 727 764 730 769 q 704 751 708 755 q 692 745 700 747 q 667 746 680 757 q 646 745 654 746 q 633 741 637 745 q 618 743 618 745 q 616 739 618 741 q 608 740 612 738 q 601 741 605 742 l 587 731 q 585 717 585 718 q 582 715 585 716 q 582 699 581 701 q 585 694 583 697 q 580 678 579 688 q 578 659 581 669 q 574 651 576 655 q 572 643 572 647 q 573 627 575 633 q 571 617 571 620 q 570 600 570 605 q 571 593 571 595 q 566 580 568 581 q 566 576 564 579 q 562 557 563 562 q 562 541 560 543 q 564 536 564 538 q 563 524 562 526 q 564 518 564 521 q 559 503 557 507 q 560 491 560 498 q 559 476 560 484 q 557 460 557 468 q 557 446 556 453 q 555 433 559 439 q 555 415 557 416 q 552 411 553 414 q 554 399 552 401 q 557 395 556 397 q 554 377 556 380 q 555 372 552 374 q 574 380 564 370 q 583 385 579 382 q 593 389 587 388 q 602 399 600 397 q 606 401 604 400 q 619 406 618 407 q 621 406 620 406 q 627 412 624 410 q 632 418 631 414 q 638 422 636 419 q 646 426 640 425 q 659 439 655 435 q 670 446 663 444 q 683 459 678 456 q 694 465 688 463 q 707 479 704 479 q 712 480 709 479 q 725 492 724 490 q 727 495 726 494 q 742 506 738 506 q 750 517 747 515 q 755 521 753 518 q 756 530 754 528 q 760 538 758 533 q 773 554 768 551 q 777 566 779 557 q 785 572 784 568 q 788 581 785 576 q 797 588 796 586 q 800 590 798 590 q 811 605 803 601 q 821 623 814 617 q 830 640 829 629 q 846 659 842 647 q 856 682 849 671 q 865 696 864 694 q 868 699 865 699 q 875 718 875 712 q 875 722 875 724 q 888 746 886 739 q 892 755 890 753 q 900 766 898 762 q 899 774 902 769 q 903 781 901 777 q 909 787 906 784 q 913 802 911 800 q 916 807 914 804 q 922 832 920 827 q 924 848 924 837 q 937 886 930 869 q 935 897 933 892 q 939 907 936 901 q 939 924 939 918 q 937 936 939 930 q 935 949 933 945 q 937 960 937 954 q 934 975 936 972 q 932 979 932 977 q 929 1010 926 996 q 923 1021 925 1015 q 920 1034 921 1028 q 915 1046 918 1040 q 905 1053 911 1051 q 888 1068 892 1066 q 882 1074 884 1070 q 871 1079 876 1080 q 864 1081 867 1078 q 848 1089 849 1088 q 842 1089 846 1090 q 811 1103 825 1100 q 794 1103 795 1100 q 789 1105 793 1107 q 777 1098 783 1099 q 768 1093 770 1097 q 758 1093 761 1096 q 749 1092 755 1090 q 738 1083 743 1088 q 722 1077 732 1078 q 719 1069 724 1070 q 712 1065 713 1067 q 696 1050 701 1053 q 694 1041 697 1044 q 689 1035 692 1038 q 685 1029 686 1032 q 688 1023 684 1027 q 673 1009 677 1019 q 661 993 669 1000 q 652 966 654 974 q 647 949 651 958 q 646 937 650 941 q 646 926 643 933 q 635 905 637 920 q 631 898 633 902 q 627 891 628 894 q 628 876 625 875 q 629 873 631 876 q 621 859 625 861 q 614 849 616 856 q 611 829 612 836 q 604 821 610 823 q 604 802 604 810 q 601 791 604 795 l 598 783 z "},"":{"ha":301,"x_min":-130,"x_max":419,"o":"m 237 620 q 248 623 245 621 q 254 627 251 624 q 262 628 258 628 q 270 632 266 628 q 283 639 278 636 q 293 644 288 642 q 308 654 305 648 q 319 657 313 656 q 327 663 324 658 q 334 677 331 677 q 336 680 336 677 q 353 688 353 685 q 357 693 353 690 q 380 701 372 697 q 393 703 388 704 q 406 704 404 705 q 408 699 408 703 q 417 682 419 685 q 419 674 415 678 q 412 667 414 670 q 410 661 411 663 q 399 648 400 648 q 396 647 397 648 q 386 635 388 637 q 384 636 384 633 l 369 621 q 350 605 354 610 q 339 595 346 600 q 327 600 334 601 q 313 593 320 598 q 294 589 302 590 q 283 583 286 587 q 267 583 267 585 q 264 579 267 581 q 246 572 245 575 q 243 567 247 570 q 229 559 227 560 q 213 551 218 556 q 208 545 210 548 q 198 540 205 543 l 184 530 q 188 515 187 518 q 184 506 189 511 q 186 492 189 492 q 184 488 184 492 q 180 461 187 469 q 183 441 183 445 q 183 427 183 437 q 180 411 180 414 q 178 406 179 408 q 179 395 179 399 q 182 385 179 391 q 181 372 180 374 q 182 368 182 369 q 180 349 179 353 q 180 339 180 345 q 178 323 178 327 q 179 313 179 319 q 178 303 179 308 q 180 294 176 298 q 176 283 176 290 q 178 269 176 277 q 179 254 175 255 q 176 236 174 247 q 171 222 178 225 q 174 206 172 206 q 174 203 175 206 q 175 184 174 187 q 176 178 176 180 q 174 167 174 168 q 175 163 175 165 q 173 146 172 148 q 174 141 174 144 q 172 134 174 137 q 170 123 170 130 q 171 110 170 114 q 168 103 172 106 q 168 81 171 84 q 168 75 165 79 q 166 46 165 54 q 165 30 167 38 q 163 16 164 18 q 163 11 163 14 q 165 -1 165 0 q 164 -4 164 -3 q 165 -23 165 -20 q 164 -30 164 -26 q 166 -37 164 -34 q 168 -45 168 -41 q 169 -56 167 -53 q 168 -61 171 -58 q 177 -76 178 -75 q 178 -80 176 -77 q 182 -88 179 -84 q 186 -96 184 -92 q 193 -110 189 -106 q 201 -121 198 -114 q 218 -134 213 -125 q 237 -137 229 -134 q 256 -138 245 -140 q 288 -129 270 -129 q 285 -139 286 -136 q 283 -149 283 -142 q 269 -156 270 -155 q 260 -161 263 -159 q 255 -167 258 -164 q 236 -173 243 -167 q 222 -174 229 -179 q 212 -178 216 -174 q 201 -180 208 -183 q 184 -186 187 -189 q 159 -191 175 -194 q 134 -180 144 -189 q 115 -173 118 -175 q 109 -168 113 -171 q 105 -159 107 -160 q 100 -155 103 -157 q 91 -143 91 -146 q 88 -141 91 -140 q 83 -127 85 -129 q 83 -121 80 -126 q 76 -100 75 -114 q 70 -85 73 -92 q 68 -65 66 -77 q 68 -54 69 -56 q 66 -49 66 -52 q 66 -28 68 -34 q 65 -18 65 -23 q 65 -7 65 -14 q 66 7 65 0 q 69 36 71 24 q 71 56 68 47 q 71 64 72 58 q 73 73 69 69 q 71 88 72 87 q 71 91 71 90 q 73 125 72 107 q 73 163 73 144 q 73 174 72 172 q 75 178 75 175 q 73 191 75 183 q 73 209 72 199 q 75 218 73 213 q 77 228 77 222 q 77 242 76 239 q 77 248 77 245 q 77 262 76 262 q 79 264 79 263 q 79 283 79 279 q 77 290 80 286 q 80 297 79 293 q 81 305 81 301 q 79 321 77 320 q 83 326 81 323 q 81 338 80 330 q 80 354 83 347 q 83 370 84 368 q 85 377 83 373 q 83 388 84 382 q 84 403 83 393 q 87 431 90 422 q 91 446 84 439 q 87 469 87 460 q 90 490 88 479 q 71 480 75 484 q 61 473 66 476 q 41 464 53 469 q 19 454 30 458 q 7 448 11 449 q 3 444 4 448 q -14 435 -9 439 q -24 429 -18 431 q -39 423 -37 426 q -45 420 -41 420 q -72 404 -64 410 q -85 397 -80 399 q -91 392 -90 396 q -118 395 -111 392 q -130 406 -125 397 q -129 420 -129 410 q -117 435 -118 429 q -110 437 -114 435 q -103 442 -106 439 l -94 458 q -73 479 -76 475 q -60 496 -64 495 q -52 496 -56 498 q -45 495 -49 494 q -30 502 -41 496 q -12 507 -20 505 q 4 511 -4 509 q 14 516 9 514 q 24 519 18 518 q 39 526 37 525 q 45 529 42 526 q 60 535 56 533 q 72 540 65 537 q 85 543 81 544 q 92 547 90 543 q 91 562 95 556 q 94 572 94 564 q 95 585 95 579 q 93 600 92 598 q 94 602 94 601 q 98 626 96 620 q 99 639 99 632 q 98 669 99 656 q 99 693 98 681 q 101 709 102 708 q 100 713 100 711 q 102 730 102 728 q 102 734 103 731 q 101 753 100 749 q 102 761 102 757 q 100 771 99 769 q 100 776 100 773 q 101 792 102 791 q 100 796 100 793 q 101 812 100 810 q 102 818 102 815 q 98 833 99 829 q 98 844 98 838 q 98 861 99 857 q 100 871 98 865 q 97 911 99 898 q 96 937 95 924 q 91 954 94 949 q 90 962 88 958 q 83 980 92 968 q 66 996 73 991 q 57 994 60 993 q 49 997 54 996 q 40 988 43 987 q 34 989 37 989 q 19 978 19 981 q 1 966 5 967 q -5 962 -3 966 q -27 951 -27 958 q -35 952 -31 954 q -43 951 -38 951 q -48 957 -46 954 q -54 962 -50 960 q -54 969 -52 967 q -56 978 -57 971 q -35 991 -39 987 q -23 998 -30 994 q -12 1008 -14 1008 q -9 1009 -11 1008 q 16 1029 11 1023 q 31 1038 28 1029 q 49 1040 43 1043 q 62 1048 57 1046 q 92 1067 88 1055 q 107 1068 100 1067 q 122 1069 114 1069 q 146 1065 141 1066 q 164 1055 161 1055 q 170 1054 167 1055 q 176 1047 172 1051 q 183 1039 180 1043 q 189 1013 190 1019 q 190 1000 189 1006 q 194 983 195 986 q 193 978 193 981 q 195 955 194 960 q 198 944 197 949 q 197 930 195 937 q 194 922 199 924 q 199 909 199 913 q 203 906 198 906 q 199 886 197 895 q 203 868 201 876 q 199 852 201 852 q 199 849 198 852 q 202 836 203 838 q 201 831 201 833 q 201 822 199 826 q 199 812 203 818 q 201 795 201 799 q 198 791 201 792 q 199 777 198 780 q 195 770 199 773 q 198 751 198 755 q 198 739 198 746 q 197 723 197 727 q 195 713 198 719 q 198 701 199 701 q 195 697 197 700 q 197 690 198 694 q 195 682 197 686 q 195 654 197 663 q 191 636 193 646 q 191 623 193 625 q 190 616 190 621 q 191 604 191 604 q 189 601 190 604 q 200 600 199 600 q 203 604 201 601 l 237 620 z "},"":{"ha":716,"x_min":-96,"x_max":696,"o":"m 618 99 q 635 80 629 83 q 637 65 632 72 q 642 49 642 58 q 652 26 650 35 q 667 -8 659 0 q 670 -35 667 -23 q 671 -62 673 -47 q 660 -94 662 -80 q 651 -115 658 -107 q 646 -138 652 -130 q 636 -160 639 -146 q 627 -172 629 -161 q 611 -186 616 -176 q 594 -198 606 -195 q 581 -214 585 -210 q 571 -221 576 -218 q 553 -239 559 -236 q 540 -245 548 -243 q 533 -254 537 -252 q 526 -263 529 -256 q 509 -274 514 -273 q 500 -282 503 -275 q 479 -296 484 -292 q 469 -305 475 -300 q 461 -311 465 -309 q 457 -316 457 -312 q 444 -327 446 -316 q 426 -331 430 -331 q 411 -340 415 -338 q 404 -347 407 -343 q 389 -357 389 -358 q 376 -365 384 -362 q 363 -373 369 -368 q 347 -382 351 -378 q 339 -391 342 -385 q 320 -397 321 -395 q 315 -401 319 -400 q 290 -411 297 -400 q 282 -412 286 -410 q 273 -414 278 -414 q 252 -416 255 -416 q 239 -418 245 -419 q 228 -422 233 -418 q 210 -422 221 -418 q 199 -424 201 -425 q 195 -423 198 -423 q 178 -423 187 -422 q 161 -423 168 -425 q 147 -418 148 -419 q 144 -415 146 -418 q 135 -416 140 -418 q 126 -414 130 -415 q 112 -413 119 -412 q 98 -411 104 -414 q 72 -406 77 -410 q 56 -401 66 -401 q 37 -382 41 -393 q 23 -380 26 -381 q 19 -377 20 -380 q -18 -353 -3 -370 q -20 -343 -19 -346 q -23 -338 -20 -340 q -31 -336 -26 -336 q -39 -334 -37 -336 q -51 -318 -49 -321 q -50 -313 -53 -315 q -60 -298 -60 -300 q -61 -294 -60 -297 q -70 -281 -69 -285 q -72 -271 -71 -277 q -78 -263 -76 -269 q -84 -255 -80 -258 q -90 -240 -90 -243 q -92 -239 -90 -237 q -96 -222 -91 -224 q -95 -208 -94 -209 q -96 -205 -96 -208 q -94 -191 -92 -194 q -95 -184 -95 -189 q -90 -174 -94 -179 q -91 -163 -87 -170 q -83 -150 -84 -159 q -81 -134 -83 -141 q -72 -130 -76 -132 q -66 -123 -68 -129 q -67 -112 -66 -114 q -65 -107 -68 -110 q -58 -98 -61 -99 q -56 -92 -56 -96 q -45 -79 -49 -83 q -39 -71 -42 -75 q -32 -58 -33 -60 q -30 -54 -31 -56 q -22 -47 -26 -50 q -15 -41 -18 -43 q -4 -28 -7 -30 q -4 -22 -1 -26 q 12 -11 9 -14 q 18 -8 14 -8 q 30 4 22 -1 q 41 12 38 11 q 43 16 43 14 q 73 38 60 28 q 79 43 76 41 q 84 49 81 46 q 100 60 99 57 q 112 66 107 62 q 121 68 117 71 q 139 81 136 80 q 149 84 142 81 q 161 87 160 88 q 165 84 163 85 q 170 69 175 73 q 163 57 164 65 q 146 50 146 52 q 142 46 145 47 q 115 24 119 39 q 100 16 100 18 q 98 14 99 15 q 81 0 87 9 q 60 -18 65 -14 q 49 -26 56 -23 q 41 -41 46 -38 q 33 -60 38 -52 q 22 -76 28 -68 q 17 -98 22 -88 q 15 -118 12 -107 q 9 -133 8 -132 q 11 -137 11 -134 q 7 -171 8 -155 q 19 -197 7 -187 q 24 -214 20 -213 q 37 -232 30 -228 q 45 -250 42 -244 q 54 -258 47 -255 q 56 -269 53 -269 q 62 -273 60 -270 q 87 -294 77 -289 q 104 -300 96 -298 q 121 -313 115 -307 q 134 -315 126 -319 q 145 -324 140 -320 q 157 -331 151 -328 q 178 -334 175 -332 q 184 -336 180 -335 q 208 -338 203 -339 q 217 -339 213 -336 q 227 -339 225 -338 q 232 -343 229 -340 q 250 -342 241 -342 q 270 -343 258 -343 q 286 -338 283 -338 q 296 -336 289 -338 q 317 -334 308 -335 q 347 -326 334 -332 q 364 -317 362 -316 q 369 -316 366 -317 q 390 -304 387 -307 q 396 -298 393 -301 q 407 -296 401 -300 q 418 -290 412 -293 q 427 -275 423 -278 q 437 -275 431 -273 q 442 -270 439 -273 q 446 -263 445 -267 q 460 -254 460 -254 q 463 -255 460 -255 q 473 -246 471 -248 q 480 -241 476 -244 q 503 -221 498 -229 q 514 -208 513 -209 q 525 -195 525 -195 q 528 -191 525 -194 q 547 -152 544 -174 q 552 -142 552 -149 q 557 -134 552 -136 q 558 -125 556 -129 q 562 -117 560 -121 q 562 -104 560 -107 q 564 -96 564 -100 q 559 -83 557 -85 q 563 -76 562 -80 q 562 -69 563 -73 q 562 -61 562 -65 q 557 -41 557 -42 q 555 -25 555 -28 q 552 -19 555 -22 q 551 -12 551 -15 q 548 -3 551 -8 q 542 11 544 7 q 538 19 540 15 q 535 31 536 26 q 532 41 534 37 q 525 52 526 49 q 521 56 524 54 q 510 73 517 69 q 505 90 506 85 q 500 96 503 94 q 496 103 498 99 q 494 110 495 107 l 486 126 q 471 142 475 138 q 465 155 467 146 q 458 161 463 159 q 453 170 454 163 q 442 183 449 176 q 437 194 439 190 q 430 205 434 198 q 420 220 426 212 q 412 233 414 231 q 408 239 410 236 q 401 248 401 245 q 400 252 401 250 q 389 269 392 263 q 381 280 384 279 q 377 283 378 281 q 373 292 374 290 q 369 297 372 294 q 351 326 358 316 q 347 334 349 330 q 339 342 345 339 q 328 361 331 354 q 317 370 324 368 q 309 389 312 382 q 300 400 307 396 q 296 416 297 415 q 285 431 290 429 q 275 452 278 445 q 264 468 266 467 q 258 471 263 469 q 253 479 254 477 q 250 484 252 481 q 240 496 241 496 q 237 498 239 496 q 228 515 236 505 q 205 547 212 533 q 189 564 193 562 q 184 572 184 566 q 177 583 179 576 q 170 591 175 589 q 160 609 164 609 q 155 621 159 616 q 146 632 151 627 q 140 643 142 637 q 132 652 137 648 q 130 660 133 658 q 129 669 127 662 q 123 673 126 671 q 117 678 121 675 q 117 689 118 684 q 110 694 117 694 q 109 713 110 711 q 110 718 109 715 q 102 757 104 745 q 102 784 99 769 q 104 796 104 793 q 103 802 103 799 q 105 808 103 804 q 104 817 107 811 q 108 830 107 827 q 106 834 109 833 q 114 856 107 849 q 116 868 115 865 q 119 871 117 871 q 137 905 126 892 q 145 920 142 917 q 155 924 148 924 q 163 936 157 930 q 172 948 168 941 q 190 967 186 955 q 199 970 197 967 q 206 977 201 974 q 218 989 212 989 q 228 998 228 996 q 231 1001 228 1000 q 242 1008 236 1004 q 255 1015 248 1012 l 270 1021 q 279 1029 277 1024 q 292 1032 282 1035 q 307 1042 300 1039 q 320 1048 312 1046 q 335 1055 328 1050 q 351 1062 351 1059 q 353 1066 351 1065 q 368 1069 361 1067 q 382 1074 376 1070 q 394 1074 391 1074 q 403 1077 397 1074 q 414 1078 412 1076 q 418 1082 415 1080 q 426 1081 422 1080 q 433 1085 430 1082 q 448 1088 446 1082 q 479 1088 468 1092 q 498 1086 496 1088 q 506 1085 500 1084 q 519 1078 511 1080 q 533 1076 526 1077 q 547 1069 543 1073 q 559 1067 551 1066 q 568 1058 563 1062 q 583 1054 574 1054 q 591 1048 586 1048 q 598 1042 597 1047 q 614 1032 612 1034 q 616 1027 616 1031 q 639 1005 627 1009 q 647 992 642 997 q 655 979 652 987 q 663 970 661 977 q 667 958 665 964 q 677 941 674 949 q 685 924 681 932 q 692 909 690 910 q 696 905 694 907 q 694 888 693 891 q 694 883 694 886 q 688 865 689 871 q 685 856 688 860 q 680 836 680 841 q 675 831 680 831 l 673 814 q 654 795 659 796 q 643 779 646 783 q 636 770 640 774 q 630 764 633 768 q 624 755 627 761 q 610 745 612 746 q 605 745 609 743 q 601 739 602 742 q 595 732 600 735 q 595 726 598 728 q 589 718 591 723 q 580 710 579 712 q 578 705 581 708 q 563 705 567 705 q 553 701 559 705 q 543 703 548 704 q 533 704 537 701 q 532 716 536 713 q 526 724 529 719 q 532 731 532 727 q 538 738 533 735 q 547 754 541 746 q 567 768 563 762 q 578 777 571 774 q 587 798 583 793 q 596 815 594 814 q 600 819 598 817 q 602 833 600 831 q 604 837 604 834 q 600 857 600 846 q 602 871 604 867 q 601 880 601 875 q 595 890 595 883 q 590 902 594 897 q 587 920 590 917 q 582 925 585 922 q 566 949 574 947 q 557 960 559 951 q 544 970 552 962 q 526 987 532 983 q 515 994 521 990 q 502 999 503 998 q 499 1002 500 1000 q 484 1004 486 1002 q 479 1008 481 1006 q 463 1010 465 1009 q 461 1008 461 1010 q 448 1016 449 1017 q 445 1015 448 1015 q 426 1017 437 1020 q 415 1017 416 1019 q 411 1016 414 1016 q 400 1017 406 1016 q 389 1015 395 1017 q 372 1012 382 1017 q 361 1009 362 1010 q 357 1008 359 1008 q 342 1002 343 1004 q 339 998 342 1000 q 319 996 323 997 q 315 990 315 994 q 304 985 308 989 q 293 982 301 982 q 286 977 289 979 q 277 972 282 974 q 262 964 263 960 q 255 964 262 967 q 240 952 241 958 q 229 940 233 948 q 218 928 225 932 q 211 918 213 921 q 205 913 209 914 q 204 903 208 907 q 205 891 201 898 q 192 878 194 879 q 189 875 190 878 q 193 856 191 860 q 195 849 194 852 q 187 819 191 825 q 191 810 190 814 q 193 800 193 807 q 192 790 193 795 q 194 780 191 785 q 203 762 198 769 q 207 739 209 745 q 208 727 205 734 q 218 716 212 718 q 220 709 217 712 q 225 703 224 705 q 233 690 232 694 q 239 684 235 686 q 240 674 237 677 q 247 669 243 671 q 251 654 250 655 q 262 640 258 647 q 273 629 267 632 q 275 623 273 625 q 277 614 277 620 q 284 606 281 610 q 292 595 288 601 q 298 586 298 589 q 300 581 298 583 q 311 570 304 574 q 320 552 313 557 q 327 546 323 549 q 335 538 331 543 q 339 532 338 536 q 345 526 340 528 q 346 515 342 521 q 353 506 350 510 q 368 469 366 483 q 374 463 370 465 q 378 456 377 460 q 389 443 385 445 q 393 437 392 441 q 407 422 401 426 q 416 412 412 419 q 427 396 423 399 q 432 381 429 381 q 437 380 435 381 q 443 369 442 369 q 445 366 444 369 q 450 360 448 363 q 456 355 452 357 q 465 342 464 343 q 471 330 469 331 q 473 326 473 328 q 487 304 484 311 q 496 294 490 298 q 505 278 502 277 q 513 259 510 264 q 522 250 517 254 q 534 233 530 240 q 545 222 537 225 q 562 195 557 201 q 567 178 566 189 q 574 172 570 175 q 582 167 578 170 q 589 149 586 155 q 595 136 591 142 q 604 120 604 122 q 609 117 605 118 l 618 99 m 411 1206 q 401 1208 407 1208 q 392 1207 396 1208 q 383 1215 388 1211 q 374 1225 378 1218 q 370 1231 373 1227 q 363 1237 366 1234 q 350 1248 357 1244 q 340 1263 343 1252 q 331 1269 335 1265 q 320 1275 327 1272 q 312 1289 312 1289 q 302 1299 304 1298 q 298 1305 300 1301 q 282 1311 285 1310 q 278 1316 279 1312 q 256 1321 267 1316 q 248 1323 252 1322 q 236 1326 243 1324 q 216 1327 220 1329 q 210 1328 213 1325 q 212 1345 202 1337 q 228 1350 221 1352 q 245 1350 240 1352 q 261 1366 258 1363 q 271 1369 264 1369 q 286 1369 283 1367 q 292 1369 289 1370 q 302 1367 297 1369 q 312 1366 307 1364 q 319 1362 315 1363 q 326 1359 323 1362 q 349 1356 343 1360 q 363 1351 355 1351 q 382 1341 376 1341 q 391 1336 388 1340 q 403 1323 400 1325 q 408 1318 406 1321 q 423 1315 423 1318 q 426 1310 423 1312 q 441 1312 435 1308 q 454 1320 448 1316 q 469 1322 461 1320 q 484 1326 476 1324 q 503 1336 495 1331 q 527 1336 519 1335 q 537 1344 534 1337 q 563 1348 555 1344 q 582 1354 571 1352 q 600 1360 594 1358 q 609 1366 606 1363 q 624 1366 616 1363 q 639 1366 632 1369 q 652 1340 652 1354 q 644 1331 647 1332 q 642 1328 642 1331 q 621 1316 628 1328 q 605 1310 608 1310 q 589 1303 595 1303 q 577 1301 582 1301 q 566 1306 572 1301 q 554 1304 562 1303 q 545 1301 547 1305 q 535 1297 538 1301 q 525 1294 532 1294 q 511 1284 514 1284 q 506 1282 509 1283 q 494 1274 494 1276 q 495 1271 494 1271 q 487 1261 486 1261 q 488 1257 488 1260 q 460 1240 469 1244 q 444 1229 450 1236 q 433 1227 435 1232 q 425 1225 431 1223 q 414 1213 418 1213 q 411 1206 410 1213 z "},"":{"ha":429,"x_min":-27,"x_max":444,"o":"m 229 191 q 223 207 225 206 q 220 210 221 208 q 213 224 214 222 q 205 237 208 235 q 201 244 203 240 q 189 252 191 248 q 182 256 187 256 q 179 270 184 264 q 170 278 174 275 q 163 292 165 288 q 157 302 160 297 q 151 310 155 307 q 144 320 146 313 q 136 327 140 323 q 129 338 132 331 q 117 352 118 351 q 114 355 115 353 q 110 366 111 359 q 102 374 109 372 q 94 388 100 384 q 84 402 85 400 q 80 403 83 404 q 74 414 76 412 q 69 418 72 416 q 65 433 69 427 q 57 444 61 438 q 55 452 60 450 q 53 460 50 454 q 46 469 47 463 q 42 483 45 476 q 35 502 37 496 q 34 514 34 507 q 35 528 34 528 q 35 530 35 529 l 38 551 q 47 570 43 570 q 56 586 49 576 q 67 599 65 597 q 72 605 69 601 q 85 615 80 612 q 92 624 90 618 q 103 635 100 629 q 110 639 109 635 q 118 642 111 643 q 121 650 118 648 q 127 655 125 652 q 152 670 149 663 q 168 675 165 674 q 187 685 178 678 q 208 689 203 689 q 216 690 212 689 q 234 699 229 697 q 244 701 239 701 q 265 702 260 700 q 275 704 270 704 q 283 703 278 704 q 292 703 288 703 q 307 700 304 701 q 315 699 311 699 q 322 693 317 694 q 332 690 327 692 q 350 675 342 680 q 359 667 358 670 q 365 663 361 663 q 368 646 365 655 q 374 631 372 637 q 378 612 377 617 q 381 604 378 608 q 376 585 381 589 q 372 571 370 582 q 359 548 362 566 q 350 548 353 551 q 342 544 347 545 q 332 530 332 534 q 326 525 331 525 q 308 514 311 517 q 302 509 305 511 q 292 503 296 506 q 282 498 289 499 q 275 508 279 505 q 267 515 271 511 q 270 532 270 532 q 276 546 273 543 q 281 555 279 549 q 277 577 277 572 q 274 587 277 582 q 268 593 271 590 q 267 601 264 597 q 258 605 260 601 q 250 606 256 609 q 237 615 247 614 q 224 623 228 616 q 204 620 209 621 q 194 618 199 618 q 180 619 189 618 q 165 617 172 620 q 153 610 159 614 q 140 606 148 606 q 125 581 129 589 q 124 564 125 570 q 121 556 123 559 q 125 548 123 552 q 132 541 127 544 q 144 519 137 528 q 155 499 152 510 q 164 488 161 495 q 174 477 167 481 q 183 463 179 465 q 194 446 187 450 q 205 430 203 431 q 205 426 206 429 q 214 414 212 416 q 218 404 217 411 q 226 398 222 401 q 233 392 229 395 q 237 384 235 387 q 239 377 239 381 q 246 366 244 368 q 251 362 248 365 q 256 354 254 358 q 263 347 258 350 q 266 335 263 334 q 270 334 269 336 q 276 327 273 330 q 282 320 279 324 q 292 306 288 309 q 298 296 296 302 q 309 283 307 283 q 315 264 313 274 q 328 251 317 254 q 334 235 330 239 q 342 222 343 222 q 343 221 342 222 q 351 206 351 209 q 353 201 351 203 q 362 189 358 191 q 366 171 366 174 q 372 156 372 159 q 370 153 373 153 q 377 129 377 144 q 378 106 377 114 q 372 91 370 92 q 373 85 374 90 q 368 72 370 79 q 358 64 366 65 q 351 47 351 49 q 347 45 350 46 q 337 28 340 31 q 334 20 334 26 q 326 11 327 12 q 326 7 324 9 q 311 -3 315 4 q 297 -12 308 -11 q 278 -33 293 -31 q 264 -47 267 -43 q 259 -56 262 -52 q 245 -64 248 -60 q 237 -72 241 -68 l 222 -81 q 215 -88 220 -87 q 206 -92 210 -90 q 193 -103 194 -102 q 190 -104 193 -104 q 156 -113 168 -109 q 129 -122 144 -117 q 116 -119 117 -118 q 114 -121 115 -121 q 100 -119 104 -117 q 94 -117 96 -121 q 79 -119 85 -118 q 66 -118 73 -119 q 53 -110 57 -110 q 37 -104 42 -103 q 24 -102 31 -104 q 16 -92 22 -95 q 4 -83 9 -90 q -5 -68 -3 -69 q -9 -64 -7 -66 q -17 -50 -16 -50 q -19 -46 -18 -49 q -22 -32 -24 -33 q -22 -26 -20 -31 q -24 -19 -24 -23 q -24 -8 -23 -15 q -27 5 -27 3 q -26 11 -27 8 q -24 26 -26 24 q -23 30 -23 27 q -22 41 -22 35 q -20 50 -22 46 q -5 82 -8 72 q 7 95 -3 92 q 16 113 8 102 q 30 127 22 122 l 41 141 q 52 151 50 148 q 61 152 54 153 q 78 166 76 165 q 88 164 80 167 q 83 153 85 159 q 84 141 81 146 q 75 126 75 127 q 73 123 75 125 q 68 114 69 117 q 64 107 66 111 q 59 94 58 95 q 60 90 60 92 q 58 75 57 75 q 58 73 58 75 q 59 58 60 58 q 58 56 58 57 q 60 43 61 47 q 62 37 60 39 q 65 22 61 23 q 68 14 66 18 q 69 5 69 9 q 87 -11 81 -5 q 103 -16 92 -16 q 117 -28 114 -28 q 126 -27 121 -27 q 144 -33 134 -30 q 160 -37 153 -35 q 179 -35 174 -33 q 195 -35 189 -34 q 208 -35 201 -37 q 217 -29 213 -33 q 228 -24 221 -26 q 242 -12 240 -18 q 251 -5 244 -5 q 264 12 262 9 q 270 16 266 15 q 273 24 271 22 q 277 31 275 27 q 277 47 277 46 q 278 52 278 49 q 279 87 281 76 q 274 106 277 98 q 268 121 270 118 q 263 127 266 125 q 258 143 262 140 q 254 153 254 146 q 236 174 247 171 l 229 191 m 202 803 q 193 806 198 806 q 183 804 187 806 q 174 812 179 808 q 165 822 170 815 q 161 828 164 825 q 155 834 157 831 q 141 845 148 841 q 132 860 134 849 q 122 866 126 863 q 111 872 118 869 q 103 886 103 886 q 93 897 95 895 q 90 902 91 898 q 73 908 76 907 q 69 913 71 909 q 47 918 58 913 q 39 920 43 920 q 27 924 34 921 q 7 924 11 926 q 1 925 4 922 q 3 942 -7 935 q 19 947 12 949 q 37 947 31 949 q 52 963 49 960 q 62 966 56 966 q 77 966 75 964 q 83 966 80 967 q 93 964 88 966 q 103 963 98 962 q 110 960 106 960 q 117 956 114 959 q 140 953 134 958 q 155 948 146 948 q 173 938 167 939 q 182 933 179 937 q 194 920 191 922 q 199 916 197 918 q 214 912 214 916 q 217 907 214 909 q 233 909 227 905 q 245 917 239 913 q 260 919 252 917 q 275 924 267 921 q 294 933 286 928 q 318 933 311 932 q 328 941 326 935 q 354 945 346 941 q 373 951 362 949 q 391 958 385 955 q 400 963 397 960 q 415 963 407 960 q 430 963 423 966 q 444 937 444 951 q 435 928 438 929 q 433 925 433 928 q 412 913 419 925 q 396 907 399 907 q 380 901 387 901 q 368 898 373 898 q 357 903 363 898 q 345 901 353 901 q 336 898 338 902 q 326 895 330 898 q 316 891 323 891 q 302 881 305 882 q 297 879 300 880 q 285 871 285 873 q 286 868 285 868 q 278 858 277 859 q 279 854 279 857 q 251 837 260 841 q 235 826 241 833 q 224 825 227 829 q 216 822 222 821 q 205 810 209 810 q 202 803 201 810 z "},"":{"ha":891,"x_min":-182,"x_max":1019,"o":"m 231 1072 q 239 1053 235 1062 q 255 1042 243 1043 q 264 1025 263 1029 q 270 1017 266 1020 q 272 1007 270 1010 q 275 1000 274 1004 q 278 985 274 986 q 282 981 282 985 q 281 971 279 975 q 281 963 283 967 q 287 947 288 952 q 288 936 286 941 q 290 923 290 925 q 289 918 289 921 q 289 905 290 909 q 288 895 288 901 q 288 884 289 886 q 288 880 288 883 q 289 866 288 873 q 289 852 290 859 q 288 839 289 845 q 288 826 286 833 q 283 803 285 810 q 278 793 282 796 q 275 777 279 783 q 273 760 271 770 q 264 742 269 746 q 258 730 259 738 q 251 715 252 718 q 251 708 250 712 q 248 701 248 705 q 244 693 247 697 q 239 677 239 682 q 226 647 228 658 q 216 629 224 636 q 215 618 217 624 q 216 609 213 613 q 208 592 210 595 q 205 585 206 589 q 203 572 203 578 q 197 564 202 567 q 190 537 194 549 q 186 510 186 525 q 178 502 178 505 q 178 496 179 499 q 168 479 170 483 q 163 466 163 468 q 164 461 164 464 q 160 445 160 448 q 153 426 155 429 q 152 419 152 423 q 151 398 149 408 q 151 380 153 388 l 144 362 q 140 325 141 339 q 138 296 138 311 q 140 281 138 289 q 141 267 141 274 q 142 249 141 254 q 140 240 142 244 q 145 227 145 233 q 152 213 145 220 q 155 196 155 201 q 157 189 155 191 q 165 175 161 179 q 176 158 174 160 q 182 155 178 156 q 206 127 194 134 q 221 121 220 122 q 225 118 222 119 q 245 115 232 115 q 277 111 262 114 q 308 111 293 109 q 323 113 320 113 q 330 115 326 114 q 342 120 342 118 q 346 119 343 122 q 353 123 350 121 q 359 127 355 126 q 385 142 376 136 q 400 160 395 148 q 417 168 412 164 q 427 172 422 172 q 445 189 442 183 q 450 199 448 194 q 469 213 465 208 q 477 224 473 218 q 486 235 483 231 q 495 243 488 240 q 499 250 496 247 q 503 258 502 252 q 519 271 519 266 q 528 283 522 278 q 537 294 534 288 q 550 308 545 307 q 553 316 555 309 q 561 322 560 316 q 567 331 562 328 q 574 340 574 336 q 578 345 574 345 q 583 358 579 357 q 586 365 586 359 q 596 376 594 373 q 600 387 598 380 q 600 399 601 397 q 598 403 600 400 q 599 412 598 407 q 598 420 600 416 q 596 433 595 431 q 595 437 597 435 q 593 451 593 448 q 593 457 594 454 q 590 473 593 465 q 590 487 587 480 q 587 509 589 502 q 590 519 585 517 q 585 534 586 534 q 583 537 583 534 q 587 554 590 543 q 591 570 585 566 q 593 600 589 585 q 594 629 597 616 q 598 652 601 647 q 602 659 601 655 q 605 667 604 663 q 613 681 610 673 q 616 697 613 692 q 617 705 617 700 q 620 716 617 711 l 624 734 q 630 763 625 755 q 632 783 635 770 q 636 795 637 793 q 636 802 635 798 q 650 822 644 818 q 656 842 648 831 q 666 866 662 857 q 677 879 670 875 q 682 894 682 888 q 700 914 696 907 q 709 928 704 921 q 725 941 720 935 q 736 949 730 947 q 751 962 745 958 q 756 968 754 964 q 761 975 758 972 q 779 986 776 975 q 798 994 792 989 q 819 1004 814 1001 q 826 1012 823 1006 q 857 1020 844 1019 q 879 1028 869 1021 q 888 1025 882 1024 q 898 1023 895 1027 q 914 1019 914 1021 q 917 1016 914 1017 q 923 1013 922 1017 q 930 1009 924 1008 q 932 993 932 1004 q 933 980 930 986 q 933 966 936 974 q 937 960 935 962 q 940 952 939 958 q 933 926 937 930 q 932 916 929 921 q 923 899 922 902 q 922 891 924 897 q 913 875 918 880 q 909 860 916 864 q 907 840 909 844 q 902 834 905 837 l 899 815 q 893 803 891 804 q 894 799 895 802 q 888 776 890 785 q 883 764 887 766 q 880 749 883 760 l 873 731 q 866 722 864 723 q 867 718 868 720 q 852 686 860 699 q 850 671 844 675 q 840 659 846 665 q 836 644 833 654 q 831 638 833 642 q 825 633 829 635 q 815 616 819 623 q 805 601 806 605 q 802 594 804 597 q 794 578 793 579 q 793 575 795 578 q 787 568 789 572 q 779 560 785 563 l 770 543 q 751 509 766 519 q 739 488 749 496 q 726 465 731 473 q 717 454 719 456 q 712 449 715 452 q 705 437 707 442 q 701 431 704 433 q 702 401 705 416 q 705 373 699 385 q 704 361 704 362 q 707 357 704 359 q 708 335 704 336 q 707 326 705 331 q 708 317 708 320 l 712 297 q 715 286 718 286 q 713 282 713 285 q 727 247 722 260 q 734 226 731 229 q 736 216 736 222 q 736 206 734 209 q 741 198 739 203 q 741 191 742 195 q 743 183 741 186 q 741 152 743 164 q 749 134 739 140 q 753 121 750 126 q 753 110 757 117 q 758 94 758 100 q 768 68 766 77 q 773 53 770 60 q 775 43 774 49 q 779 31 776 37 q 784 12 784 16 q 787 3 784 7 q 788 -14 787 -8 q 787 -23 789 -19 q 792 -42 791 -39 q 791 -45 793 -45 q 794 -52 792 -49 q 796 -60 796 -54 q 813 -58 806 -60 q 827 -56 821 -57 q 839 -55 837 -54 q 844 -56 841 -56 q 863 -54 859 -53 q 873 -54 868 -54 q 893 -56 886 -54 q 909 -54 901 -57 q 939 -62 929 -61 q 956 -68 949 -62 q 970 -73 970 -72 q 972 -76 971 -75 q 985 -85 982 -80 q 994 -92 989 -90 q 1000 -100 998 -99 q 1004 -104 1001 -102 q 1017 -122 1010 -119 q 1017 -138 1016 -129 q 1017 -156 1019 -146 q 1006 -174 1010 -174 q 1004 -193 1009 -184 q 998 -209 998 -201 q 990 -219 991 -216 q 986 -225 989 -222 q 974 -228 977 -227 q 967 -232 971 -229 q 961 -235 964 -235 q 954 -240 958 -236 q 939 -233 941 -232 q 925 -218 925 -220 q 926 -211 925 -214 q 928 -201 928 -208 q 925 -189 926 -193 q 928 -180 924 -186 l 917 -164 q 907 -144 910 -149 q 895 -140 903 -140 q 887 -133 892 -134 q 878 -127 882 -132 q 853 -126 861 -129 q 834 -127 845 -123 q 819 -126 822 -125 q 811 -129 815 -127 q 812 -142 810 -136 q 814 -153 814 -148 q 816 -176 812 -170 q 817 -189 819 -182 q 819 -200 819 -195 q 822 -212 819 -205 q 819 -228 818 -218 q 823 -243 821 -237 q 823 -260 823 -259 q 822 -264 822 -262 q 824 -277 825 -274 q 823 -282 823 -281 q 826 -307 823 -301 q 824 -319 825 -316 q 821 -324 823 -321 q 823 -338 825 -339 q 821 -340 822 -338 q 817 -378 817 -361 q 811 -395 810 -393 q 811 -400 812 -396 q 805 -410 804 -410 q 804 -414 806 -411 q 800 -431 799 -423 q 798 -442 802 -438 q 794 -459 796 -454 q 789 -468 792 -464 q 785 -475 787 -471 q 780 -484 783 -479 q 766 -503 770 -498 q 760 -515 761 -507 q 751 -529 754 -519 q 739 -545 741 -543 q 736 -552 736 -547 q 729 -557 731 -553 q 724 -566 727 -562 q 716 -571 720 -568 q 711 -579 712 -574 q 697 -589 701 -582 q 684 -600 693 -597 q 674 -614 675 -612 q 667 -617 673 -616 q 652 -630 658 -627 q 644 -640 647 -633 l 632 -650 l 617 -655 q 605 -667 608 -667 q 600 -667 602 -667 q 587 -675 590 -673 q 582 -680 585 -677 q 563 -688 564 -685 q 559 -694 562 -692 q 548 -697 552 -693 q 541 -704 544 -701 q 528 -713 529 -711 q 511 -719 514 -719 q 506 -720 509 -719 q 490 -731 495 -730 q 481 -735 484 -732 q 461 -747 465 -742 q 449 -750 457 -751 q 443 -754 446 -753 q 431 -758 439 -755 q 420 -763 427 -761 q 406 -766 412 -765 q 388 -769 389 -768 q 378 -772 380 -773 q 373 -773 376 -772 q 349 -777 354 -779 q 336 -776 345 -776 q 315 -772 324 -776 q 297 -772 307 -769 q 274 -760 286 -765 q 254 -746 262 -755 q 240 -739 240 -742 q 237 -738 240 -736 q 229 -726 232 -727 q 224 -722 227 -724 q 216 -708 224 -713 q 219 -694 218 -703 q 212 -682 220 -685 l 208 -666 q 208 -642 206 -647 q 208 -632 209 -637 q 205 -615 205 -620 q 206 -605 206 -610 q 210 -588 209 -590 q 210 -582 212 -586 q 224 -543 217 -556 q 233 -514 231 -530 q 238 -509 236 -511 q 244 -503 240 -506 q 249 -486 244 -492 q 254 -468 254 -479 q 260 -463 258 -465 q 267 -457 263 -460 q 276 -440 270 -446 q 289 -427 282 -434 q 296 -414 290 -422 q 307 -403 300 -408 q 320 -392 313 -397 q 327 -380 326 -384 q 331 -372 328 -376 q 338 -364 334 -369 q 346 -357 342 -359 q 357 -341 353 -349 q 370 -331 361 -334 q 378 -317 376 -317 q 382 -316 380 -317 q 404 -294 391 -302 q 423 -271 416 -286 q 433 -267 429 -271 q 441 -258 437 -262 q 458 -246 450 -252 q 472 -237 465 -240 q 477 -227 475 -231 q 486 -225 480 -222 q 491 -218 488 -221 q 496 -210 494 -216 q 513 -202 511 -205 q 517 -197 514 -199 q 531 -188 529 -187 q 534 -187 533 -189 q 545 -178 543 -180 q 551 -174 548 -175 q 566 -166 562 -170 q 572 -159 570 -163 q 587 -148 583 -156 q 596 -145 593 -148 q 602 -140 600 -142 q 611 -136 608 -137 q 618 -132 614 -134 q 633 -125 625 -127 q 657 -114 651 -119 q 673 -104 663 -109 q 689 -99 685 -99 q 697 -96 693 -99 q 695 -80 694 -83 q 694 -73 696 -77 q 690 -50 688 -61 q 684 -27 686 -34 q 682 -16 681 -20 q 675 12 677 0 q 667 31 674 23 q 662 53 665 47 q 661 64 662 58 q 656 72 661 69 q 654 92 656 83 q 652 109 651 102 q 649 122 648 118 q 647 130 650 126 q 644 138 646 133 q 642 149 643 142 q 637 174 637 163 q 635 194 637 186 q 630 210 632 201 q 631 225 628 218 q 625 236 627 232 q 624 251 623 240 q 618 264 620 262 q 616 270 617 267 q 610 289 612 281 q 606 304 609 297 q 592 290 594 293 q 590 283 590 288 q 582 275 585 281 q 572 267 579 269 q 555 250 566 256 q 541 229 544 243 q 523 220 529 224 q 513 208 517 216 q 500 196 502 198 q 498 190 499 194 q 486 182 487 186 q 479 179 484 179 q 463 163 467 168 q 452 155 458 157 q 440 142 445 144 q 431 137 435 140 q 420 129 423 132 q 414 122 416 126 q 397 110 399 114 q 381 105 387 110 q 370 94 376 100 q 359 90 362 91 q 350 85 355 88 q 332 71 338 73 q 315 62 317 62 q 311 61 313 62 q 300 56 304 57 q 293 52 296 56 q 278 45 281 52 q 268 44 270 46 q 263 41 266 42 q 241 39 252 38 q 221 38 231 41 q 212 42 218 42 q 203 38 206 42 q 191 41 198 41 q 182 46 184 41 q 171 44 178 43 q 160 42 164 45 q 149 46 157 46 q 138 52 141 46 q 120 58 122 56 q 113 61 118 61 q 96 80 100 73 q 84 92 91 87 q 75 104 83 99 q 67 120 71 118 q 62 125 64 122 l 58 142 q 52 163 53 159 q 53 170 50 167 q 45 180 46 176 q 42 190 43 183 q 41 212 42 205 q 39 224 39 220 q 41 234 39 229 q 42 244 42 239 q 43 258 43 251 q 43 273 43 266 q 45 297 45 285 q 46 323 45 309 q 48 332 47 327 q 52 339 49 336 q 56 373 56 358 q 62 390 60 380 q 62 408 65 400 q 75 435 73 422 q 84 454 77 448 q 91 472 81 467 q 91 484 87 479 q 94 498 95 488 q 98 508 98 500 q 99 522 99 515 q 107 540 106 537 q 106 543 109 543 q 116 567 110 560 q 119 581 122 574 q 123 591 123 586 q 127 598 123 595 q 134 624 134 614 q 141 637 134 633 q 148 654 145 646 q 151 665 152 659 q 153 673 151 670 q 161 688 160 682 q 165 699 163 693 q 171 724 168 719 q 176 735 174 730 q 175 747 172 746 q 179 751 178 749 q 182 766 182 760 q 183 779 182 772 l 186 800 q 187 812 186 807 q 189 823 189 818 q 189 839 190 837 q 189 842 189 841 q 190 863 191 857 q 191 876 189 869 q 188 887 186 886 q 190 891 190 888 l 190 909 q 188 924 187 920 q 184 930 189 928 q 182 942 187 936 q 175 956 178 948 q 168 978 170 972 q 163 987 165 983 q 150 1002 157 996 q 140 1017 142 1008 q 127 1027 132 1020 q 99 1032 113 1029 q 75 1032 85 1035 q 58 1036 61 1035 q 50 1035 56 1036 q 35 1034 39 1035 q 27 1028 30 1034 q -2 1017 4 1023 q -14 1004 -8 1010 q -30 993 -23 1000 q -45 981 -37 986 q -56 959 -54 964 q -64 938 -62 945 q -71 924 -66 930 q -75 909 -72 910 q -77 905 -77 907 q -79 892 -76 897 q -79 882 -81 887 q -84 865 -85 867 q -83 861 -83 864 q -83 852 -85 859 q -88 842 -81 845 q -87 826 -87 827 q -88 822 -88 825 q -77 808 -81 811 q -71 799 -73 806 q -45 788 -54 791 q -30 779 -37 785 q -19 778 -23 781 q -11 773 -15 774 q 12 775 0 773 q 33 785 23 777 q 42 774 45 777 q 41 764 39 770 q 29 749 30 753 q 26 742 28 745 q 4 730 11 736 q -8 715 -4 716 q -11 708 -12 715 q -21 707 -18 709 q -30 703 -24 704 q -52 692 -43 696 q -66 682 -61 689 q -77 684 -73 681 q -88 684 -81 688 q -107 692 -96 689 q -122 705 -118 694 q -143 716 -141 713 q -152 719 -145 719 q -165 730 -156 728 q -170 740 -165 736 q -176 749 -174 743 q -179 764 -178 764 q -180 766 -180 765 q -178 787 -182 779 q -175 806 -175 795 q -176 812 -175 810 q -175 821 -176 815 q -171 833 -172 831 q -170 837 -170 834 q -167 850 -168 849 q -165 854 -165 852 q -163 863 -163 859 q -161 872 -163 867 q -157 879 -159 875 q -155 890 -155 883 q -151 898 -153 894 q -149 909 -149 902 q -144 915 -145 911 q -137 920 -142 918 q -133 938 -136 937 q -127 943 -130 939 q -120 956 -119 954 q -119 960 -121 959 q -107 971 -111 968 q -102 981 -103 974 q -94 986 -96 985 q -90 990 -91 987 l -76 1002 q -63 1013 -66 1008 q -54 1023 -60 1019 q -45 1029 -50 1025 q -37 1040 -39 1034 q -25 1046 -27 1046 q -20 1050 -23 1047 q -11 1057 -12 1055 q -7 1061 -9 1059 q 7 1069 7 1067 q 11 1069 8 1072 q 14 1076 11 1074 q 18 1082 18 1077 q 29 1084 24 1081 q 38 1092 34 1088 q 50 1097 47 1096 q 56 1100 53 1099 q 75 1105 71 1105 q 83 1109 80 1105 q 99 1107 91 1105 q 114 1109 107 1109 q 121 1108 117 1109 q 129 1107 126 1107 q 140 1107 134 1107 q 152 1103 145 1107 q 172 1101 163 1105 q 193 1097 182 1097 q 202 1093 202 1093 q 208 1092 202 1092 q 221 1078 218 1082 q 231 1072 224 1073 m 699 545 q 724 589 715 563 q 731 594 730 590 q 736 601 732 598 q 741 618 736 612 q 750 629 745 624 q 753 639 750 636 q 754 650 757 642 q 768 667 762 665 q 774 682 772 681 q 779 686 776 684 q 781 693 779 690 q 783 701 783 696 q 791 716 791 715 q 791 722 792 718 l 798 739 q 803 747 802 742 q 806 755 804 751 q 812 771 811 770 q 814 774 814 772 q 817 788 818 788 q 817 791 817 788 q 825 812 825 810 q 830 841 831 834 q 837 855 834 848 q 842 871 840 863 q 848 903 844 898 q 848 918 842 909 q 844 930 844 924 q 842 941 845 936 q 835 945 840 944 q 827 949 830 947 q 819 947 823 947 q 811 948 815 948 q 799 944 800 943 q 796 944 798 945 q 781 930 781 933 q 777 928 781 926 q 772 918 776 921 q 765 911 768 916 q 755 899 758 901 q 750 884 750 886 q 749 876 749 880 q 749 869 750 872 q 736 853 736 859 q 736 836 738 838 q 734 830 735 834 q 730 805 734 812 q 730 789 727 798 q 721 773 723 776 q 722 768 719 770 q 714 747 716 751 q 712 741 712 743 q 709 728 711 730 q 709 722 707 726 q 704 709 705 709 q 704 707 703 708 l 700 684 q 696 664 699 671 q 696 648 693 656 q 693 625 689 639 q 688 611 688 618 q 690 595 689 604 q 689 569 689 578 q 690 553 689 560 q 690 540 690 547 q 693 530 689 533 q 697 536 694 534 q 699 545 700 538 m 697 -146 q 680 -157 686 -155 q 665 -160 674 -159 q 648 -167 656 -167 l 636 -176 q 629 -180 633 -179 q 621 -183 624 -180 q 612 -187 616 -186 q 604 -191 609 -189 q 593 -201 595 -198 q 586 -203 590 -203 q 574 -211 576 -210 q 570 -212 572 -212 q 560 -219 566 -217 q 551 -222 555 -221 q 538 -233 538 -229 q 534 -235 537 -236 q 526 -244 533 -241 q 515 -251 518 -247 q 500 -264 503 -262 q 491 -269 498 -267 q 481 -279 487 -275 q 469 -286 476 -282 q 462 -295 463 -292 q 457 -297 461 -298 q 450 -307 454 -304 q 444 -315 446 -309 q 425 -333 430 -330 q 416 -340 420 -336 q 408 -349 408 -347 q 406 -351 408 -351 q 394 -366 396 -361 q 385 -373 392 -372 q 382 -382 385 -380 q 378 -389 380 -384 q 366 -400 365 -399 q 366 -406 368 -401 q 359 -414 363 -410 q 354 -425 355 -418 q 342 -439 345 -437 q 339 -444 340 -441 q 335 -453 336 -449 q 332 -463 334 -457 q 312 -500 319 -484 q 307 -514 305 -514 q 308 -517 308 -514 q 302 -524 305 -521 q 298 -532 300 -528 q 298 -548 300 -544 q 297 -555 297 -552 q 297 -572 294 -568 q 294 -579 300 -576 q 296 -602 297 -597 q 296 -614 296 -608 q 301 -637 305 -624 q 311 -652 309 -650 q 315 -655 312 -654 q 320 -667 320 -663 q 321 -671 320 -670 q 330 -679 324 -677 q 339 -688 336 -681 q 357 -694 354 -692 q 363 -699 361 -697 q 381 -701 378 -699 q 419 -704 408 -707 q 442 -703 430 -701 l 463 -697 q 479 -688 475 -689 q 488 -685 484 -688 q 502 -678 500 -680 q 509 -675 506 -675 q 515 -671 513 -674 q 532 -661 522 -665 q 551 -654 543 -658 q 559 -648 555 -651 q 567 -643 563 -646 q 585 -630 582 -636 q 594 -621 589 -624 q 617 -605 613 -609 q 631 -591 629 -595 q 637 -585 632 -586 q 648 -570 646 -571 q 651 -568 650 -570 q 656 -556 656 -557 q 655 -552 655 -555 q 669 -543 661 -544 q 672 -534 670 -537 q 674 -524 674 -530 l 685 -507 q 696 -494 696 -494 q 703 -480 699 -484 q 708 -454 705 -457 q 711 -444 711 -450 q 715 -429 715 -433 q 715 -422 716 -426 q 718 -403 719 -415 q 724 -384 718 -391 q 723 -372 722 -378 q 727 -361 724 -365 q 722 -349 724 -355 q 726 -336 720 -342 q 723 -304 720 -324 q 720 -274 726 -285 q 720 -260 722 -267 q 722 -250 719 -252 q 717 -222 716 -237 q 711 -191 718 -206 q 711 -175 712 -176 q 709 -171 709 -174 q 708 -157 709 -160 q 707 -149 707 -153 l 697 -146 m 696 1272 q 686 1255 688 1257 q 678 1252 684 1252 q 670 1236 671 1246 q 658 1225 669 1226 q 652 1213 659 1215 q 646 1203 646 1210 q 635 1199 639 1204 q 627 1196 632 1194 q 610 1176 621 1179 q 603 1166 605 1168 q 597 1165 601 1165 q 583 1156 586 1160 q 578 1149 581 1152 q 564 1143 568 1143 q 556 1139 559 1142 q 536 1126 543 1130 q 522 1123 530 1123 q 502 1116 509 1119 q 491 1120 495 1114 q 478 1119 484 1115 q 465 1123 472 1123 q 473 1135 467 1131 q 480 1146 479 1138 q 491 1154 488 1154 q 492 1156 494 1153 q 508 1162 506 1160 q 515 1162 510 1164 q 525 1170 522 1169 q 525 1175 528 1171 q 543 1186 538 1183 q 551 1194 548 1190 q 562 1211 560 1203 q 568 1225 563 1219 q 568 1247 568 1236 q 566 1267 567 1259 q 576 1272 570 1270 q 583 1280 582 1274 q 595 1281 591 1282 q 606 1283 600 1280 q 623 1286 621 1283 q 629 1293 625 1290 q 651 1291 646 1290 q 659 1293 656 1291 q 675 1293 674 1291 q 680 1295 677 1295 q 689 1283 689 1284 l 696 1272 z "},"":{"ha":604,"x_min":-83,"x_max":528,"o":"m 403 -415 q 394 -418 399 -416 q 385 -423 389 -420 q 372 -431 374 -431 q 361 -442 362 -441 q 351 -450 355 -449 q 345 -454 347 -450 q 321 -465 332 -461 q 301 -476 309 -469 q 291 -479 292 -477 q 288 -484 290 -481 q 275 -489 281 -486 q 262 -496 269 -492 q 248 -503 251 -503 q 240 -503 244 -502 q 234 -508 237 -506 q 228 -514 231 -510 q 203 -518 210 -515 q 193 -524 197 -521 q 182 -523 186 -521 q 172 -526 178 -525 q 159 -526 163 -525 q 152 -526 156 -526 q 142 -524 145 -522 q 137 -522 138 -525 q 113 -526 114 -524 q 79 -524 99 -519 q 56 -516 68 -517 q 34 -506 43 -515 q 26 -505 27 -506 q 19 -506 24 -505 q 11 -502 16 -503 q 3 -495 5 -500 q -9 -484 -8 -481 q -14 -484 -11 -486 q -31 -469 -26 -472 q -37 -461 -35 -467 q -46 -458 -43 -461 q -53 -453 -49 -454 q -60 -443 -54 -445 q -68 -438 -65 -441 q -70 -425 -69 -431 q -75 -414 -71 -418 q -77 -400 -73 -407 q -83 -387 -81 -393 q -80 -376 -80 -384 q -77 -366 -80 -369 q -79 -356 -77 -362 q -76 -349 -80 -350 q -75 -330 -76 -336 q -72 -324 -75 -324 q -69 -313 -71 -317 q -65 -305 -68 -309 q -66 -292 -71 -294 q -57 -282 -62 -289 q -47 -271 -49 -271 q -42 -270 -45 -270 q -34 -255 -41 -255 q -31 -243 -35 -247 q -23 -232 -26 -239 q -12 -220 -18 -222 q -4 -210 -7 -217 q 2 -204 1 -209 q 9 -198 3 -199 q 17 -185 18 -186 q 18 -182 16 -184 q 39 -175 33 -178 q 52 -172 45 -172 q 54 -187 50 -187 q 57 -190 57 -187 q 52 -208 53 -205 q 49 -216 50 -212 q 39 -218 41 -216 q 31 -221 37 -221 q 30 -231 34 -229 q 30 -240 26 -233 q 21 -254 22 -252 q 20 -258 20 -256 q 11 -271 12 -269 q 7 -274 9 -273 q 9 -287 11 -286 q 7 -290 7 -288 q 6 -303 7 -301 q 4 -311 5 -305 q 2 -326 1 -321 q 3 -334 3 -330 q 6 -354 5 -351 q 8 -362 7 -357 q 20 -381 16 -376 q 24 -396 24 -387 q 40 -409 38 -407 q 45 -414 42 -411 q 54 -418 52 -414 q 62 -420 56 -422 q 77 -433 73 -433 q 83 -438 80 -433 q 94 -438 90 -435 q 103 -444 99 -441 q 121 -449 117 -448 q 126 -450 125 -450 q 156 -454 145 -453 q 178 -457 167 -456 q 206 -459 198 -460 q 222 -458 214 -458 q 231 -460 227 -458 q 237 -458 235 -461 q 247 -456 240 -456 q 256 -453 254 -457 q 270 -452 264 -456 q 282 -446 275 -448 l 294 -437 q 318 -420 305 -426 q 336 -399 331 -414 q 349 -391 346 -393 q 349 -384 351 -389 q 356 -376 355 -382 q 363 -369 357 -370 q 374 -349 372 -358 q 384 -335 376 -339 q 387 -324 384 -328 q 393 -316 391 -320 q 395 -296 391 -305 q 395 -277 399 -288 q 402 -270 401 -275 q 407 -262 403 -264 q 408 -244 406 -251 q 410 -227 411 -237 q 414 -216 414 -222 q 415 -199 414 -210 q 417 -184 418 -184 q 416 -178 416 -183 q 420 -168 418 -172 q 419 -159 422 -164 q 424 -143 425 -144 q 423 -140 423 -142 q 422 -128 423 -133 q 425 -119 422 -123 q 422 -104 423 -109 q 422 -98 422 -100 q 425 -87 426 -95 q 427 -76 425 -79 q 425 -58 423 -64 q 423 -46 426 -52 q 425 -37 427 -43 q 427 -26 423 -31 q 425 -8 423 -11 q 425 1 426 -5 q 429 69 422 43 q 425 90 427 88 q 423 94 423 91 q 425 102 423 99 q 425 110 426 106 q 422 122 425 117 q 423 134 420 127 q 420 146 419 142 q 420 152 420 149 q 420 167 420 159 q 423 179 420 175 q 420 200 423 193 q 422 214 416 208 q 418 256 419 240 q 420 288 418 273 q 418 300 416 298 q 419 305 419 302 q 416 323 415 319 q 414 332 416 328 q 406 330 408 334 q 401 321 404 326 q 393 309 396 312 q 388 304 391 307 q 382 298 385 301 q 374 293 380 294 q 367 282 368 283 q 366 279 366 281 q 359 267 359 270 q 355 262 358 264 l 345 239 q 334 229 336 231 q 334 224 332 228 q 320 205 321 210 q 313 197 319 199 q 301 179 301 184 q 293 175 296 178 q 285 170 290 172 q 273 159 274 160 q 269 157 271 157 q 252 147 254 148 q 248 144 251 146 q 238 136 239 136 q 235 136 237 137 q 229 130 232 133 q 222 125 225 127 q 210 119 212 121 q 205 114 208 117 q 187 103 191 107 q 174 99 183 99 q 163 93 167 96 q 151 90 159 90 q 130 87 136 87 q 122 92 125 87 q 99 100 104 98 q 84 121 85 115 q 83 133 83 126 q 83 144 81 138 q 81 153 84 149 q 81 160 79 156 q 80 168 83 164 q 79 180 80 176 q 77 187 77 183 q 77 200 76 194 q 76 217 77 206 q 76 228 76 224 q 73 235 76 232 q 75 248 75 247 q 75 250 76 250 q 73 266 73 260 q 75 283 73 277 q 71 292 76 289 q 73 309 75 302 q 71 323 71 315 q 71 337 72 330 q 69 351 69 345 q 62 374 66 368 q 60 385 57 380 q 46 410 52 396 q 22 426 41 423 q -3 438 9 438 l -26 438 q -35 437 -33 438 q -42 438 -37 437 q -55 446 -56 442 q -57 449 -54 449 q -45 463 -46 460 q -41 464 -45 465 q -15 481 -22 477 q 3 484 -8 484 q 12 492 8 490 q 20 494 15 494 q 38 498 27 498 q 56 506 49 499 q 65 502 60 503 q 73 498 71 500 q 90 494 88 496 q 94 491 91 491 q 107 484 104 488 q 124 478 121 480 q 130 473 127 476 q 142 457 142 460 q 146 453 142 454 q 148 444 144 449 q 155 433 152 439 q 156 417 156 425 q 165 408 156 410 q 165 385 165 397 q 167 371 171 380 q 170 357 163 362 q 170 326 168 340 q 169 304 171 308 q 170 294 167 300 l 170 278 q 171 261 170 270 q 168 248 172 252 q 171 227 171 237 q 173 214 171 217 q 172 209 175 212 q 178 182 176 191 q 186 171 179 174 q 225 182 218 159 l 237 197 q 245 212 240 206 q 252 228 251 217 q 264 240 264 237 q 278 251 274 250 q 288 268 288 263 q 294 274 289 273 q 302 288 298 288 q 305 294 305 289 q 321 311 313 302 q 327 320 324 317 q 328 327 330 323 q 338 342 336 340 q 343 346 340 343 q 348 357 345 353 q 355 365 351 361 q 359 379 354 374 q 362 391 365 384 q 374 403 370 397 q 377 414 378 408 q 388 430 387 418 q 398 446 395 437 q 407 461 401 454 q 410 479 411 477 q 408 483 408 480 q 418 501 415 499 q 423 509 422 503 q 443 519 439 517 q 449 525 446 522 q 463 528 458 525 q 471 533 468 530 q 488 541 487 533 q 509 541 505 544 q 519 537 513 538 q 518 500 519 515 q 517 468 517 486 q 513 454 514 457 q 517 449 513 452 q 513 420 514 433 q 515 406 518 414 q 514 387 513 397 q 511 374 510 376 q 515 370 513 373 q 516 359 517 361 q 515 355 515 358 q 517 340 517 349 q 514 327 517 332 q 517 308 518 317 q 518 289 517 298 q 520 267 521 274 q 519 252 519 260 q 521 238 522 240 q 519 233 519 236 q 521 213 521 221 q 524 199 521 205 q 521 187 519 190 q 522 183 522 184 q 521 168 522 178 q 519 153 519 159 q 522 141 521 148 q 525 130 522 134 q 523 109 521 114 q 525 99 525 104 q 524 80 525 84 q 528 73 524 76 q 524 55 526 60 q 524 46 521 50 q 520 33 518 33 q 522 31 522 33 q 523 16 524 18 q 524 9 522 14 q 526 -20 521 -14 q 525 -36 524 -34 q 526 -41 526 -38 l 524 -57 q 523 -68 522 -68 q 524 -72 524 -69 q 523 -87 524 -83 q 519 -95 522 -92 l 518 -110 l 518 -133 q 519 -145 519 -141 q 516 -152 518 -149 q 513 -158 514 -155 q 515 -170 513 -161 q 511 -184 511 -174 q 510 -199 511 -195 l 507 -217 q 505 -231 506 -228 q 502 -239 503 -235 q 498 -260 500 -254 q 496 -275 495 -266 q 488 -287 488 -285 q 484 -290 487 -289 q 476 -316 479 -307 q 469 -327 469 -326 q 467 -328 469 -328 q 463 -341 465 -339 q 458 -343 461 -343 q 456 -353 458 -350 q 453 -363 453 -357 q 446 -368 448 -363 q 441 -377 444 -373 q 430 -388 430 -387 q 429 -391 430 -389 q 412 -404 415 -403 q 410 -407 410 -404 l 403 -415 m 419 773 q 409 755 411 758 q 401 753 407 753 q 393 737 395 747 q 381 726 392 727 q 376 713 382 716 q 369 704 369 711 q 359 700 362 705 q 350 697 355 694 q 334 677 345 680 q 326 667 328 669 q 320 666 324 666 q 307 656 309 661 q 301 650 304 652 q 287 644 292 644 q 279 640 282 643 q 260 627 266 631 q 245 624 254 624 q 225 617 232 620 q 214 621 218 614 q 201 620 208 616 q 189 624 195 624 q 196 635 190 632 q 203 647 202 639 q 214 654 212 655 q 216 656 217 654 q 231 663 229 661 q 239 663 233 665 q 248 671 245 670 q 248 675 251 671 q 267 687 262 684 q 274 694 271 690 q 285 712 283 704 q 292 726 286 720 q 291 748 292 736 q 289 768 290 760 q 299 772 293 770 q 307 781 305 774 q 319 782 315 783 q 330 784 323 781 q 347 787 345 784 q 353 793 349 791 q 374 791 369 791 q 382 793 380 792 q 399 794 397 792 q 403 796 400 796 q 412 784 412 785 l 419 773 z "},"":{"ha":1217,"x_min":-91,"x_max":1156,"o":"m 595 175 q 608 184 609 180 q 613 186 608 187 l 609 156 q 604 149 606 153 q 600 142 602 145 l 590 123 q 585 106 591 111 q 579 90 579 100 q 574 75 572 76 q 576 72 575 75 q 572 54 571 61 q 576 43 572 47 q 579 31 581 38 q 585 19 582 20 q 587 14 587 18 q 597 3 593 8 q 610 -5 601 -3 q 623 -16 623 -14 q 643 -22 639 -20 q 652 -23 647 -23 q 673 -28 667 -23 q 685 -37 678 -34 q 713 -31 705 -34 q 730 -34 720 -27 l 746 -33 l 772 -30 q 779 -26 774 -27 q 785 -23 783 -26 q 800 -24 792 -28 q 817 -23 808 -20 q 842 -12 836 -16 q 860 -9 849 -8 q 867 -5 863 -7 q 876 -3 872 -4 q 892 4 887 1 q 903 10 899 7 q 914 15 907 14 q 939 28 930 23 q 954 38 947 33 q 966 47 962 43 q 975 57 972 53 q 981 64 978 61 q 996 79 991 75 q 1016 110 1006 94 q 1024 126 1024 126 q 1029 138 1027 138 q 1035 141 1032 138 q 1042 166 1038 155 q 1046 190 1047 178 q 1051 204 1050 203 q 1053 208 1053 205 q 1052 222 1051 214 q 1054 233 1053 229 q 1056 244 1057 243 q 1055 248 1055 245 q 1056 256 1055 252 q 1054 267 1057 260 q 1055 279 1054 277 q 1053 288 1055 282 q 1050 313 1051 302 q 1046 330 1050 324 q 1046 342 1048 336 q 1046 350 1043 347 q 1041 363 1043 359 q 1042 370 1039 368 q 1036 389 1038 385 q 1034 395 1034 392 q 1028 413 1028 410 q 1027 419 1028 416 q 1021 431 1020 427 q 1020 438 1021 434 q 1010 455 1013 452 q 1005 463 1006 458 q 1002 470 1004 467 q 997 477 1001 473 q 989 499 993 496 q 985 509 986 502 q 968 528 974 519 q 960 538 962 537 q 958 541 959 538 q 949 555 952 555 q 949 559 947 556 q 938 565 939 564 q 936 566 937 566 q 925 576 928 575 q 924 581 922 576 q 905 597 911 593 q 888 604 899 602 q 886 611 888 609 q 882 617 883 613 q 865 627 867 625 q 860 631 863 628 q 845 639 845 637 q 839 644 842 640 q 833 650 836 647 q 820 652 822 652 q 815 655 818 652 l 803 665 q 779 671 783 670 q 772 675 774 673 q 763 677 765 674 q 754 678 761 680 q 736 686 741 682 q 724 686 732 689 q 708 697 711 694 q 692 699 696 700 q 685 700 689 697 q 673 702 682 703 q 658 703 665 701 q 647 705 650 705 q 642 705 644 704 q 634 707 637 705 q 627 707 631 709 q 609 711 612 709 q 604 712 606 712 q 587 712 590 713 q 579 712 585 711 q 563 713 567 713 q 556 713 559 713 q 541 714 543 713 q 537 715 540 715 q 524 712 528 711 q 518 711 521 713 q 500 710 507 712 q 487 712 492 708 q 469 708 479 707 q 457 699 457 704 q 439 699 448 701 q 419 688 425 690 q 404 684 406 682 q 401 684 403 685 q 370 669 380 677 q 350 663 358 669 q 331 655 342 656 q 319 646 323 650 q 313 642 316 643 q 288 628 293 633 q 273 620 275 627 q 263 610 270 613 q 244 587 250 595 q 232 571 239 578 q 224 561 227 563 q 224 555 222 559 l 217 541 q 205 524 208 528 q 199 517 202 521 q 193 508 197 513 q 190 496 190 503 q 182 479 184 483 q 184 475 180 476 q 172 446 175 453 q 161 431 168 439 q 160 413 163 415 q 156 408 157 411 q 151 389 151 395 q 149 380 151 384 q 152 362 153 366 q 149 353 151 358 q 151 337 149 340 q 152 327 152 334 q 154 312 153 317 q 157 300 155 307 q 163 289 160 296 q 168 279 165 282 q 174 263 172 264 q 178 259 176 262 q 181 248 179 250 q 186 244 183 247 q 203 214 197 221 q 217 198 210 206 q 233 193 229 193 q 237 190 236 193 q 262 183 252 189 q 282 175 271 178 q 277 157 283 161 q 267 142 270 152 q 255 137 260 140 q 250 126 250 134 q 241 123 243 127 q 236 117 239 119 q 216 108 225 110 q 195 103 206 106 q 186 109 193 110 q 176 104 179 107 q 165 110 172 107 q 153 110 159 113 q 147 116 151 113 q 137 121 144 119 q 131 130 136 127 q 122 134 126 132 q 113 151 114 146 q 107 157 113 156 q 100 174 100 174 q 92 189 96 186 q 84 197 87 193 q 83 206 83 202 q 80 214 83 210 q 75 227 75 222 q 73 233 76 231 l 69 251 l 64 267 q 60 289 64 286 q 61 302 58 302 q 64 304 64 302 q 63 317 62 309 q 61 330 64 326 l 68 346 q 75 371 75 362 q 76 388 75 380 q 85 408 81 404 q 85 416 88 411 q 99 443 95 437 q 104 458 103 449 q 114 472 111 467 l 119 487 q 124 496 125 494 q 125 502 123 499 q 137 515 136 515 q 146 532 145 529 q 148 538 146 536 q 154 543 151 541 q 159 551 157 545 q 167 566 167 562 q 176 581 175 578 q 182 583 178 585 q 190 597 187 598 q 194 598 193 597 q 212 617 205 610 q 224 629 224 627 q 228 633 225 631 q 243 644 240 642 q 251 648 245 646 q 267 661 258 655 q 282 674 275 667 q 301 686 296 684 q 312 690 307 688 q 319 695 315 693 q 326 701 323 697 q 340 709 339 708 q 343 712 340 711 q 354 716 353 715 q 359 720 355 718 q 378 730 372 726 q 392 734 384 734 q 406 740 399 738 q 418 747 414 742 q 431 749 431 747 q 433 751 431 750 q 449 755 449 757 q 452 753 449 753 q 473 762 465 760 q 486 769 480 764 l 500 769 q 512 773 509 773 q 518 777 515 773 q 532 775 532 773 q 533 777 532 777 q 551 783 548 780 q 564 787 559 787 q 576 788 570 787 q 591 790 587 791 q 601 789 595 789 q 617 792 606 789 q 643 788 631 791 q 671 787 655 785 q 693 779 688 779 q 703 779 699 780 q 724 774 713 774 q 734 770 731 770 q 739 765 738 769 q 747 767 743 769 q 754 764 751 765 q 770 760 766 764 q 790 756 787 755 q 798 755 793 757 q 814 750 802 750 l 830 743 q 839 740 834 743 q 846 739 844 736 q 865 734 852 734 q 887 723 882 730 q 906 719 892 716 q 911 711 909 715 q 916 703 914 708 q 933 701 929 703 q 941 690 939 692 q 952 690 943 689 q 966 679 960 685 q 982 670 971 673 q 993 657 986 662 q 1004 646 1000 652 q 1016 636 1010 639 q 1023 627 1021 633 q 1032 618 1029 624 q 1042 609 1035 612 q 1050 595 1050 597 q 1051 593 1050 594 q 1065 576 1062 579 q 1072 568 1067 572 q 1076 561 1074 566 q 1082 555 1078 556 q 1092 541 1085 544 q 1094 526 1093 534 q 1100 515 1095 518 q 1114 494 1108 498 q 1118 477 1114 483 q 1124 465 1124 468 q 1127 463 1124 463 q 1131 446 1133 448 q 1131 444 1130 445 q 1135 436 1135 441 q 1137 429 1135 431 q 1139 419 1138 426 q 1138 407 1141 412 q 1142 392 1142 400 q 1147 378 1142 384 q 1147 368 1147 370 q 1149 362 1147 365 q 1150 340 1146 351 q 1152 317 1154 328 q 1154 302 1156 302 q 1150 300 1152 302 q 1154 286 1156 288 q 1152 282 1153 285 q 1153 264 1153 269 q 1147 255 1153 260 q 1149 246 1152 252 q 1152 237 1147 240 q 1146 208 1146 227 q 1142 199 1143 205 q 1135 193 1141 194 q 1126 167 1134 175 q 1114 140 1116 146 q 1104 129 1111 133 q 1097 119 1099 122 q 1092 115 1096 115 q 1087 103 1092 107 q 1082 92 1082 99 q 1068 80 1069 81 q 1066 77 1067 79 q 1056 67 1057 69 q 1053 62 1055 65 q 1025 41 1038 49 q 1010 31 1015 33 q 997 15 997 23 q 981 8 985 8 q 962 -5 964 -3 q 954 -9 960 -8 q 938 -20 941 -19 q 935 -26 935 -22 q 917 -35 924 -34 q 907 -43 910 -37 q 886 -50 892 -46 q 871 -56 879 -53 q 865 -60 867 -57 q 856 -62 863 -64 q 838 -72 848 -71 q 826 -80 829 -73 q 810 -85 812 -83 q 787 -96 789 -92 l 772 -98 q 754 -107 755 -103 q 743 -108 747 -109 q 732 -107 739 -107 q 697 -115 709 -113 q 674 -114 685 -117 q 648 -117 654 -117 q 636 -117 643 -117 q 621 -111 624 -113 q 616 -107 618 -109 q 585 -99 597 -109 q 565 -98 568 -99 q 556 -98 562 -96 q 541 -85 545 -90 q 528 -81 537 -80 q 514 -68 522 -71 q 507 -52 506 -56 q 498 -44 500 -49 q 491 -33 495 -39 q 488 -17 488 -26 q 484 -4 488 -8 q 484 5 481 1 q 484 11 487 8 q 491 31 488 28 q 495 35 494 33 q 498 52 494 52 q 504 68 500 65 q 506 79 507 72 q 513 85 511 80 q 519 94 514 91 q 532 113 529 103 q 547 126 536 123 q 550 136 547 133 q 556 144 553 140 q 569 153 568 151 q 575 156 570 156 l 595 175 m 435 1126 q 436 1103 437 1108 q 433 1093 435 1099 q 416 1078 418 1082 q 412 1072 415 1074 q 401 1063 403 1066 q 399 1058 400 1061 q 390 1053 392 1053 q 385 1051 388 1053 q 376 1042 377 1043 q 373 1038 374 1040 q 366 1032 368 1036 q 358 1027 363 1028 q 350 1011 351 1013 q 346 1006 349 1009 q 340 996 342 998 q 340 987 339 993 q 334 979 338 982 q 332 967 331 975 q 323 949 323 952 q 321 939 324 945 q 319 931 321 935 q 315 925 316 928 q 311 900 311 907 q 311 886 312 892 q 307 857 313 867 q 305 836 301 848 q 302 812 301 821 q 304 793 304 803 q 303 770 301 779 q 304 754 305 761 q 302 735 301 738 q 301 726 304 732 q 304 705 302 711 q 305 697 305 700 q 304 684 305 685 q 304 681 304 684 q 304 668 302 669 q 307 665 305 667 q 307 656 304 659 q 309 650 309 652 q 313 628 313 632 q 312 621 312 624 q 312 607 311 609 q 313 604 313 605 q 316 589 316 590 q 316 578 315 579 q 317 574 317 576 q 321 556 321 560 q 324 534 324 536 q 324 528 326 529 q 324 519 323 526 q 331 505 327 510 q 328 484 324 488 q 327 473 331 480 q 340 435 330 446 q 345 416 342 423 q 350 397 349 408 q 363 366 358 374 q 365 347 368 358 q 367 332 369 332 q 365 330 365 332 q 370 324 368 327 q 374 317 372 321 q 376 307 373 311 q 381 297 380 302 q 383 283 384 290 q 388 274 382 277 q 389 267 385 270 q 389 256 392 263 q 393 250 392 254 q 396 243 393 245 q 395 228 393 228 q 399 225 397 228 q 401 216 399 222 q 405 201 403 209 q 408 186 407 193 q 411 178 410 179 q 414 159 414 160 q 420 141 420 145 q 423 140 419 137 q 427 116 422 130 q 437 96 431 102 q 435 86 437 91 q 439 79 433 81 q 439 68 439 69 q 441 64 438 66 q 443 57 442 61 q 446 49 444 53 q 448 35 446 39 q 449 24 450 31 q 454 5 452 18 q 456 -5 457 -1 q 457 -9 454 -8 l 458 -31 q 464 -47 463 -41 q 467 -57 465 -54 q 469 -70 467 -60 q 472 -83 472 -80 q 474 -95 475 -90 q 479 -103 473 -100 q 479 -134 479 -121 q 479 -161 479 -146 q 480 -177 479 -170 q 476 -189 481 -184 q 479 -206 481 -195 q 473 -224 473 -221 q 471 -228 473 -228 q 468 -245 473 -239 q 458 -259 463 -255 q 456 -267 456 -263 q 452 -274 456 -271 q 446 -288 448 -286 q 439 -292 444 -290 q 426 -311 433 -302 q 414 -330 419 -319 q 401 -340 404 -338 q 396 -346 399 -343 q 370 -367 380 -362 q 357 -382 361 -372 q 347 -386 350 -382 q 338 -391 343 -389 q 334 -399 336 -396 q 328 -406 331 -401 q 315 -409 321 -406 q 305 -416 309 -412 q 286 -427 290 -420 q 273 -433 282 -433 q 249 -441 254 -438 q 236 -445 244 -445 q 208 -450 217 -446 q 189 -454 198 -453 q 173 -454 178 -454 q 165 -457 168 -454 q 154 -457 160 -456 q 141 -457 148 -458 q 129 -457 130 -456 q 126 -457 127 -458 q 95 -453 104 -457 q 73 -449 85 -449 q 60 -437 61 -439 q 54 -437 58 -435 q 39 -429 38 -431 q 37 -426 39 -426 q 23 -421 24 -425 q 19 -415 22 -418 q 3 -410 7 -411 q 0 -403 0 -408 q -12 -393 -8 -393 q -12 -389 -15 -392 q -37 -374 -33 -382 q -49 -363 -41 -366 q -58 -347 -54 -347 q -64 -330 -61 -335 q -72 -317 -68 -324 q -76 -302 -73 -305 q -79 -293 -79 -300 q -85 -277 -85 -281 q -90 -271 -85 -273 q -91 -247 -90 -252 q -90 -231 -88 -239 q -91 -213 -91 -222 q -90 -185 -91 -198 q -79 -165 -90 -172 q -74 -141 -77 -146 q -69 -127 -71 -136 q -60 -117 -62 -119 q -56 -113 -57 -115 q -47 -99 -52 -103 q -41 -90 -45 -94 q -33 -80 -37 -87 q -19 -66 -22 -68 q -9 -51 -12 -52 q -4 -47 -7 -50 q 20 -24 8 -31 q 43 -9 33 -18 q 54 0 49 -4 q 65 7 58 4 q 73 13 68 12 q 81 19 79 14 q 101 26 94 20 q 121 33 109 31 q 138 35 132 34 q 152 38 145 37 q 172 34 161 31 q 195 24 189 30 q 212 16 201 18 q 225 4 222 4 q 235 -11 235 -7 q 249 -29 247 -23 q 256 -38 251 -35 q 258 -54 258 -47 q 262 -66 259 -60 q 252 -85 255 -84 q 248 -91 248 -85 q 237 -93 241 -91 q 227 -96 233 -95 q 201 -113 210 -110 q 186 -121 193 -117 q 174 -109 174 -111 q 171 -103 174 -106 l 160 -91 q 149 -79 156 -84 q 138 -68 140 -68 q 136 -68 137 -69 q 114 -56 121 -61 q 99 -49 107 -52 q 93 -50 96 -47 q 84 -47 90 -52 q 69 -51 77 -50 q 58 -58 61 -52 q 38 -70 41 -66 q 31 -75 35 -73 q 29 -82 31 -80 q 30 -90 27 -84 q 9 -113 19 -103 q 6 -123 8 -121 q 1 -126 4 -125 q 3 -144 5 -132 q 4 -159 3 -153 q 3 -178 0 -172 q 3 -195 3 -189 q 5 -210 3 -202 q 6 -223 4 -222 q 8 -225 8 -224 q 12 -245 9 -241 q 15 -254 14 -248 q 19 -265 18 -260 q 26 -277 20 -270 q 37 -289 35 -289 q 52 -305 49 -300 q 58 -313 56 -311 q 72 -323 71 -323 q 72 -327 73 -324 q 93 -339 90 -335 q 104 -343 96 -343 q 115 -351 107 -350 q 126 -358 122 -353 q 137 -361 133 -358 q 148 -366 141 -363 q 161 -366 160 -365 q 164 -368 161 -368 q 186 -369 179 -372 q 222 -373 208 -373 q 247 -369 236 -373 q 259 -368 258 -368 q 266 -368 260 -369 q 276 -362 270 -365 q 289 -362 282 -359 q 296 -359 293 -361 q 302 -354 298 -357 q 318 -351 316 -350 q 321 -350 320 -351 q 332 -338 330 -339 q 338 -335 335 -338 q 347 -325 346 -328 q 351 -320 347 -321 q 357 -307 355 -308 q 362 -304 359 -305 q 364 -295 362 -300 q 369 -286 366 -290 q 373 -274 373 -281 q 378 -263 373 -267 q 377 -252 376 -258 q 380 -244 378 -247 q 378 -233 374 -235 q 380 -228 381 -231 q 381 -218 380 -222 q 378 -209 382 -213 q 380 -191 381 -194 q 382 -186 380 -187 q 377 -161 377 -167 q 373 -152 377 -155 q 373 -138 377 -138 q 369 -134 369 -138 q 368 -118 372 -126 q 366 -100 363 -110 q 356 -64 359 -83 q 353 -37 353 -45 q 348 -16 349 -19 q 347 -7 347 -12 q 340 13 340 5 q 336 26 340 20 q 337 40 339 35 q 334 50 335 45 q 334 62 338 61 q 328 65 330 62 q 329 81 327 80 q 332 84 331 83 q 328 97 331 99 q 323 99 324 95 q 311 123 313 111 q 311 138 308 136 q 304 161 307 155 q 304 174 301 167 q 291 212 297 190 q 286 247 285 233 l 281 270 q 271 284 273 281 q 271 294 270 288 q 264 309 264 307 q 266 312 264 311 q 258 330 260 320 q 258 350 255 340 q 252 359 254 353 q 245 366 251 365 q 246 382 247 373 q 240 397 245 392 q 240 406 243 403 q 236 414 237 410 q 235 424 237 420 q 232 431 233 427 q 230 457 232 452 q 228 468 228 463 q 227 490 229 484 q 226 504 225 496 q 225 518 227 511 q 222 532 224 530 q 220 536 220 533 q 219 547 218 541 q 220 559 220 553 q 216 595 218 583 q 210 618 214 606 q 212 633 214 633 q 210 636 210 633 q 211 654 210 652 q 212 658 212 655 q 210 678 212 669 q 212 694 208 688 q 212 715 206 708 q 206 741 208 735 q 209 751 205 746 q 207 761 206 755 q 208 772 208 766 q 209 805 206 793 q 210 826 212 817 q 216 866 213 852 q 224 892 220 880 q 223 906 220 906 q 227 910 227 906 q 234 925 232 922 q 239 929 236 928 q 241 941 237 937 q 244 951 244 944 q 252 960 251 954 q 259 970 252 967 q 272 996 267 991 q 279 1009 277 1001 q 292 1025 290 1021 q 304 1036 301 1032 q 309 1043 307 1039 q 321 1055 313 1050 q 334 1069 330 1059 q 342 1076 340 1074 q 346 1082 345 1078 q 359 1092 358 1090 q 366 1101 363 1096 q 373 1109 369 1107 q 392 1126 388 1118 q 399 1128 396 1126 q 410 1131 403 1130 q 426 1129 423 1133 q 435 1126 429 1126 z "},"":{"ha":533,"x_min":-203,"x_max":506,"o":"m 506 445 q 503 422 503 430 q 500 406 502 414 q 495 376 499 389 q 496 357 491 363 q 486 347 486 349 q 487 342 487 345 q 483 333 483 339 q 480 323 483 327 q 473 311 473 312 q 472 305 472 309 q 457 282 463 294 q 449 275 454 278 q 442 264 444 271 q 425 252 429 252 q 422 247 422 251 q 405 237 408 239 q 399 232 401 236 q 391 229 392 232 q 384 227 389 227 q 365 209 366 214 q 347 203 349 205 q 338 195 339 195 q 335 193 336 195 q 317 187 326 189 q 305 180 308 186 q 287 179 289 182 q 282 175 285 176 q 264 173 266 172 q 259 174 262 174 l 239 170 q 222 165 224 170 q 213 170 220 172 q 195 170 206 168 q 193 146 194 155 q 190 133 193 137 q 196 115 197 119 q 195 104 195 110 q 198 89 199 91 q 195 84 197 87 q 197 65 198 71 q 195 54 195 60 q 201 33 198 42 q 203 16 203 24 q 203 -35 198 -15 q 205 -49 205 -41 q 206 -58 206 -57 q 205 -68 206 -64 q 205 -76 205 -73 q 205 -90 203 -87 q 208 -96 206 -94 q 205 -114 205 -111 q 204 -125 206 -118 q 206 -137 202 -133 q 201 -144 202 -142 q 201 -153 199 -146 q 195 -163 193 -161 q 198 -170 198 -164 q 193 -185 191 -182 q 195 -191 194 -189 q 194 -201 193 -195 q 193 -212 195 -206 q 188 -223 191 -218 q 184 -233 184 -228 q 169 -240 171 -237 q 164 -245 167 -243 q 165 -269 168 -254 q 159 -279 157 -278 q 160 -283 160 -281 q 153 -292 156 -288 q 151 -307 149 -297 q 135 -324 137 -320 q 132 -334 133 -328 q 123 -342 123 -340 q 122 -346 122 -343 q 110 -355 113 -355 q 104 -357 107 -355 q 88 -380 99 -373 q 72 -397 77 -387 q 50 -415 53 -408 q 37 -420 38 -418 q 34 -426 37 -423 q 16 -441 22 -433 q 3 -452 3 -449 q -11 -456 -8 -456 q -16 -460 -14 -457 q -24 -465 -19 -463 q -35 -468 -28 -467 q -69 -490 -61 -481 q -81 -494 -79 -494 q -83 -498 -84 -495 q -113 -507 -100 -503 q -123 -509 -118 -509 q -132 -513 -129 -509 q -143 -513 -138 -510 q -152 -517 -148 -515 q -165 -519 -159 -519 q -178 -521 -172 -518 q -189 -519 -183 -518 q -201 -517 -195 -519 q -199 -506 -203 -509 q -190 -500 -194 -503 q -191 -493 -190 -496 q -193 -484 -193 -490 q -184 -482 -186 -486 q -178 -477 -182 -479 q -166 -478 -172 -479 q -156 -480 -160 -477 q -134 -480 -140 -479 q -122 -480 -129 -481 q -109 -476 -113 -476 q -102 -473 -104 -476 q -92 -466 -91 -463 q -88 -467 -92 -469 q -73 -458 -75 -460 q -69 -456 -72 -457 q -59 -450 -61 -453 q -52 -446 -57 -446 q -35 -431 -43 -439 l -20 -423 q -11 -416 -12 -418 q -7 -414 -9 -414 q 9 -393 7 -403 q 20 -389 18 -391 q 22 -382 22 -387 q 35 -374 35 -374 q 34 -370 35 -373 q 62 -334 50 -354 q 67 -321 65 -327 q 72 -309 69 -316 q 77 -298 75 -304 q 80 -286 80 -293 q 88 -276 87 -283 q 94 -266 90 -269 q 95 -252 94 -259 q 98 -235 96 -244 q 99 -226 99 -231 q 102 -218 99 -221 q 102 -193 100 -198 q 104 -180 104 -187 q 103 -141 104 -159 q 100 -118 106 -123 q 100 -102 103 -103 q 102 -79 106 -92 q 99 -52 99 -65 q 98 -37 100 -42 q 100 -28 103 -34 q 103 -20 96 -23 q 100 -6 99 -8 q 100 -1 100 -4 q 98 14 98 11 q 99 22 99 18 q 98 30 99 26 q 96 37 96 34 q 97 53 98 49 q 98 64 96 57 q 95 80 98 77 q 96 95 95 95 q 96 98 96 95 q 94 111 94 107 q 95 117 95 114 q 93 130 92 129 q 94 133 94 132 q 91 144 94 138 q 85 157 88 151 q 87 176 90 174 q 85 180 85 178 q 86 193 88 191 q 84 195 84 194 q 83 211 84 210 q 81 210 81 212 q 83 224 84 221 q 83 232 81 227 q 82 243 84 240 q 80 251 80 247 q 81 258 80 254 q 81 270 81 263 q 79 286 81 277 q 75 298 77 294 q 76 305 75 301 q 76 315 77 309 q 73 334 72 331 q 75 339 75 336 q 73 355 72 351 q 73 361 73 358 q 71 379 73 376 q 69 385 69 382 q 68 418 69 407 q 68 442 68 430 q 68 453 69 452 q 66 457 66 454 q 65 475 65 471 q 64 486 65 481 q 62 496 62 490 l 65 514 q 65 525 65 519 q 64 536 65 530 q 62 551 62 551 q 61 553 61 551 q 60 568 62 564 q 58 579 58 572 q 58 605 57 597 q 57 623 58 613 q 55 637 56 635 q 54 646 54 640 q 54 669 57 658 q 53 688 50 680 q 52 699 53 690 q 49 715 50 708 q 50 725 49 723 q 50 730 50 727 q 47 750 46 745 q 47 760 49 755 q 43 782 46 770 q 42 806 39 793 q 38 822 39 818 q 37 829 37 826 q 35 843 37 840 q 33 850 34 846 q 28 865 30 864 q 26 868 27 865 q 20 891 23 886 q 19 903 18 897 q 14 911 16 909 q 11 921 12 914 q 1 935 4 935 q -3 939 -1 936 q -6 950 -4 945 q -11 962 -8 955 q -28 964 -22 964 q -37 968 -34 963 q -50 966 -49 967 q -54 963 -52 964 q -80 960 -66 966 q -86 956 -83 959 q -92 951 -90 952 q -103 945 -100 947 q -109 941 -106 944 q -125 930 -121 932 q -134 929 -130 928 q -139 941 -140 939 q -141 947 -138 943 q -136 956 -136 949 q -129 963 -136 962 q -124 972 -127 968 q -118 981 -121 975 q -106 986 -110 982 q -99 997 -102 990 q -90 1001 -92 998 q -81 1006 -87 1004 q -67 1017 -71 1015 q -60 1024 -64 1020 q -40 1029 -43 1029 q -34 1031 -37 1029 q -24 1036 -28 1034 q -16 1036 -20 1038 q 9 1046 3 1044 q 22 1046 15 1047 q 28 1044 24 1046 q 37 1046 33 1043 q 72 1021 65 1038 q 81 1009 77 1013 q 90 1000 85 1005 q 94 987 92 989 q 98 982 96 985 q 103 964 103 967 q 109 953 110 954 q 107 949 107 952 q 121 895 117 922 q 123 888 122 891 q 122 880 125 884 q 126 849 129 868 q 131 829 129 836 q 133 819 133 822 q 133 809 132 812 q 136 802 134 806 q 135 794 137 799 q 133 787 133 789 q 134 774 136 774 q 134 772 133 774 q 136 758 136 760 q 137 754 137 757 q 136 738 137 741 q 136 732 136 735 q 140 717 141 718 q 140 715 140 716 q 141 699 140 700 q 144 694 142 697 q 141 675 146 681 q 145 667 145 673 q 149 658 145 661 q 144 646 146 647 q 142 642 142 644 q 146 632 144 636 q 151 624 149 628 q 152 600 151 606 q 153 589 153 594 q 153 576 152 576 q 153 572 153 575 q 156 556 156 560 q 160 539 161 541 q 157 534 159 537 q 161 523 160 525 q 164 517 163 521 q 161 505 161 510 q 164 494 161 500 q 173 499 171 495 q 178 507 175 503 q 191 522 189 521 q 193 528 194 524 q 208 537 205 533 q 216 545 212 541 q 235 561 227 556 q 248 574 243 566 q 262 585 262 582 q 277 590 274 589 q 283 591 281 591 q 294 596 292 595 q 298 597 296 597 q 313 604 304 602 q 326 613 321 606 q 340 618 339 618 q 343 618 342 617 q 362 624 355 624 q 380 625 369 624 q 387 627 384 625 q 395 628 391 628 q 410 631 406 628 q 432 624 425 627 q 450 621 439 621 q 455 615 452 617 q 461 610 458 613 q 471 597 471 598 q 472 594 472 597 q 484 578 484 581 q 488 574 484 576 q 489 566 486 571 q 487 559 492 562 q 494 550 492 556 q 498 537 496 544 q 498 520 499 522 q 498 515 498 518 q 502 485 503 498 q 503 464 500 472 q 503 450 503 454 q 506 445 502 446 m 397 403 q 400 410 401 406 q 399 419 399 415 q 400 429 399 425 q 400 441 401 434 q 397 449 399 446 q 395 457 395 452 q 398 475 399 468 q 400 486 397 481 q 397 493 397 488 q 396 503 396 498 q 389 517 388 515 q 389 519 389 518 q 373 551 374 537 q 365 555 369 553 q 358 560 361 556 q 345 561 349 560 q 332 562 340 562 q 322 562 326 560 q 313 562 319 563 q 306 557 309 559 q 296 556 302 556 q 277 537 279 543 q 255 515 264 519 q 252 507 255 509 q 247 499 248 506 q 231 479 236 486 q 222 467 225 473 q 203 448 209 450 q 197 433 198 438 q 191 427 195 429 q 181 416 184 418 q 175 411 178 414 q 172 396 174 400 q 167 387 170 392 q 177 352 178 363 q 179 328 176 340 q 180 315 180 319 q 180 308 180 311 q 182 296 180 300 q 183 289 183 293 q 183 277 184 283 q 182 269 182 271 q 185 260 183 264 q 186 251 187 255 q 195 245 193 250 q 201 237 198 241 q 212 235 208 235 q 216 232 216 235 q 237 228 232 228 q 254 221 254 221 q 279 221 271 222 q 293 218 288 220 q 318 224 312 222 q 330 229 324 227 q 347 243 335 239 l 359 254 l 368 267 q 382 289 381 286 q 385 304 382 296 q 387 323 387 319 q 389 331 388 327 q 390 345 391 342 q 389 350 389 347 q 395 361 393 359 q 397 366 396 363 q 399 385 399 378 q 397 403 400 392 z "},"":{"ha":815,"x_min":-153,"x_max":1294,"o":"m 1050 -559 q 1043 -564 1047 -563 q 1038 -568 1039 -564 q 1025 -571 1028 -571 q 1021 -575 1021 -571 q 1007 -582 1012 -575 q 993 -587 1002 -589 q 966 -601 978 -595 q 949 -602 952 -602 q 935 -609 939 -606 q 929 -609 932 -612 q 915 -612 920 -613 q 905 -612 910 -610 q 879 -613 887 -617 q 857 -613 865 -618 q 842 -613 846 -613 q 836 -610 837 -613 q 822 -608 823 -612 q 818 -605 821 -605 q 798 -613 807 -613 q 783 -607 784 -602 q 776 -610 783 -612 q 762 -601 770 -605 q 752 -604 757 -605 q 743 -600 747 -602 q 732 -595 738 -597 q 722 -594 727 -593 q 706 -587 712 -591 q 693 -583 700 -582 q 681 -578 682 -576 q 677 -579 680 -579 q 669 -575 674 -576 q 663 -570 663 -574 q 647 -564 652 -564 q 639 -557 642 -563 q 626 -553 631 -557 q 614 -547 621 -549 q 602 -535 602 -536 q 600 -532 601 -534 q 581 -513 586 -517 q 572 -503 575 -510 q 562 -495 566 -500 q 552 -487 559 -490 q 543 -475 544 -479 q 541 -469 543 -472 q 533 -465 540 -467 q 525 -461 526 -463 q 520 -452 522 -454 q 517 -448 518 -450 q 500 -439 503 -439 q 495 -437 498 -438 q 476 -415 480 -425 q 461 -403 472 -406 q 448 -391 453 -392 q 442 -382 444 -389 q 425 -370 427 -372 q 419 -368 423 -368 q 410 -356 414 -357 q 406 -353 407 -355 q 393 -339 399 -342 q 389 -328 391 -330 q 381 -326 387 -326 q 370 -315 372 -315 q 368 -315 369 -316 q 362 -309 365 -312 q 357 -304 359 -307 q 334 -285 340 -294 q 316 -269 327 -275 q 300 -250 307 -255 q 293 -235 294 -245 q 280 -227 281 -229 q 278 -222 279 -225 q 260 -216 266 -222 q 244 -208 255 -209 q 230 -192 233 -194 q 221 -190 227 -190 q 214 -176 220 -184 q 193 -176 199 -175 q 184 -182 187 -176 q 171 -198 171 -195 q 157 -206 164 -202 q 141 -213 151 -210 q 126 -228 129 -220 q 114 -233 119 -231 q 103 -239 109 -235 q 87 -250 90 -248 q 83 -254 84 -251 q 66 -262 68 -259 q 64 -267 65 -264 q 46 -273 52 -271 q 39 -281 41 -274 q 13 -284 19 -281 q 1 -290 7 -288 q -12 -290 -4 -289 q -27 -294 -20 -292 q -39 -298 -38 -300 q -43 -298 -41 -297 q -61 -301 -53 -302 q -77 -302 -69 -300 q -87 -298 -81 -298 q -98 -296 -94 -298 q -114 -287 -113 -289 q -118 -283 -115 -285 q -132 -273 -132 -274 q -132 -270 -133 -273 q -141 -260 -134 -264 q -144 -247 -148 -256 q -149 -233 -151 -236 q -153 -231 -148 -231 q -153 -217 -152 -218 q -153 -214 -153 -216 l -151 -195 q -144 -177 -148 -180 q -141 -168 -140 -174 q -135 -163 -136 -167 q -132 -156 -134 -160 q -123 -153 -125 -157 q -118 -148 -122 -149 q -113 -133 -115 -137 q -94 -123 -99 -130 q -77 -114 -88 -117 q -50 -91 -62 -102 q -42 -84 -43 -87 q -38 -80 -41 -81 q -32 -79 -35 -79 q -23 -77 -28 -80 q -9 -68 -11 -69 q -1 -64 -4 -64 q 5 -62 3 -64 q 22 -56 15 -56 q 31 -53 26 -54 q 42 -53 37 -52 q 56 -47 46 -47 q 72 -45 65 -47 q 83 -47 75 -47 q 96 -47 92 -46 q 116 -46 106 -47 q 137 -46 126 -45 q 153 -50 146 -47 q 167 -53 160 -53 q 174 -58 171 -56 q 184 -58 178 -60 q 197 -64 194 -61 q 209 -66 201 -68 q 215 -72 212 -69 q 222 -77 218 -75 q 237 -85 236 -84 q 243 -83 239 -85 q 260 -70 255 -73 q 270 -62 264 -66 q 279 -53 278 -54 q 282 -49 281 -52 q 292 -39 292 -41 q 293 -37 292 -38 q 302 -28 300 -34 q 309 -20 304 -23 q 328 -4 321 -7 q 335 6 331 3 q 339 16 339 9 q 354 31 354 24 q 361 35 354 37 q 368 43 366 41 q 373 46 370 45 q 384 61 382 57 q 388 71 385 65 q 397 77 396 75 q 399 81 399 79 q 408 93 406 91 q 414 98 411 95 q 422 108 418 104 q 429 114 426 111 q 438 130 437 129 q 445 140 444 140 q 448 144 446 141 q 455 157 454 153 q 460 161 456 160 q 478 191 473 182 q 490 210 483 201 q 507 236 498 225 q 514 254 511 248 q 522 266 517 260 q 524 275 522 271 q 529 283 526 279 q 534 290 532 286 q 538 297 536 294 q 541 305 537 304 q 543 313 544 307 q 547 318 545 315 q 553 324 549 321 q 561 340 557 334 q 562 351 564 347 q 572 365 568 362 q 574 374 575 368 q 585 392 583 391 q 590 406 589 406 q 593 410 591 407 q 597 425 595 422 q 598 435 600 429 q 608 446 606 445 q 610 450 610 448 q 616 471 613 465 q 618 483 620 476 q 627 494 627 490 q 628 502 627 499 q 633 513 632 511 q 636 517 635 514 q 642 529 640 526 q 643 534 643 532 q 650 551 650 549 q 656 568 656 564 q 659 572 655 572 q 668 589 666 585 q 673 598 670 594 q 677 607 675 602 q 682 614 678 612 q 688 631 689 629 q 688 633 688 632 q 696 648 694 646 q 696 656 697 650 q 701 668 701 667 q 700 673 701 669 q 705 690 705 675 q 712 699 709 694 q 713 712 715 704 q 719 718 718 713 q 724 724 720 722 q 726 734 722 731 q 730 745 730 738 q 741 764 738 760 q 746 773 743 769 q 751 783 749 779 q 751 793 753 788 q 759 801 757 796 q 762 812 761 806 q 780 837 770 827 q 785 849 783 844 q 789 860 787 854 q 799 876 799 873 q 802 878 799 879 q 817 910 812 899 q 826 932 821 921 q 817 930 821 932 q 811 933 814 929 q 798 930 806 930 q 788 925 791 929 q 770 928 773 926 q 761 926 766 929 q 747 928 747 932 q 746 924 747 925 q 720 922 732 921 q 696 921 708 922 q 687 918 692 920 q 678 917 682 917 q 659 917 662 918 q 650 914 655 916 q 640 916 643 916 q 631 914 636 917 q 613 916 617 916 q 604 916 609 917 q 590 913 593 911 q 585 914 587 914 q 574 913 576 913 q 570 911 571 914 q 553 913 555 914 q 547 910 551 911 q 522 913 533 909 q 495 907 500 903 q 480 905 488 903 q 467 901 472 907 q 449 898 450 898 q 431 895 441 895 q 411 895 422 895 q 400 888 403 888 q 397 886 397 888 q 385 886 387 887 q 380 883 382 884 q 371 883 374 882 q 365 882 368 884 q 353 871 357 880 q 332 865 342 872 q 343 836 332 842 q 345 822 345 826 q 346 815 345 818 q 349 800 350 806 q 353 792 349 795 q 349 779 349 785 q 351 764 350 772 q 354 741 354 749 q 354 728 354 734 q 353 715 354 718 q 351 709 351 712 q 351 683 351 690 q 347 669 351 675 q 349 652 351 652 q 347 650 347 652 q 345 629 346 636 q 339 618 343 623 q 340 597 345 608 q 336 572 336 587 q 331 559 332 562 q 330 552 330 556 q 327 541 328 544 q 326 534 326 538 q 321 528 321 532 q 313 522 320 524 q 308 511 312 515 q 304 499 304 507 q 298 493 300 496 q 292 488 296 490 q 282 477 289 480 q 273 464 275 473 q 256 452 262 460 q 239 441 250 444 q 227 423 232 429 q 216 415 222 418 q 197 401 199 404 q 187 396 194 399 q 174 393 180 393 q 156 392 168 392 q 136 395 140 391 q 126 396 133 399 q 120 403 125 401 q 113 410 115 404 q 95 427 99 420 q 84 439 91 433 q 79 462 80 458 q 76 469 77 465 q 83 486 83 483 q 81 495 83 490 q 78 514 77 510 q 79 522 79 518 q 79 536 77 534 q 81 541 80 538 q 80 553 77 552 q 81 556 83 553 q 83 577 81 567 q 92 594 85 587 q 92 609 90 602 q 98 623 95 616 q 98 637 98 635 q 102 640 99 639 q 104 651 104 644 q 107 661 104 658 q 115 675 113 673 q 119 680 117 677 q 125 696 122 690 q 132 704 127 701 q 141 724 133 716 q 152 742 149 731 q 164 760 165 754 q 176 774 174 769 q 188 791 183 788 q 197 798 193 795 q 203 806 199 802 q 212 812 206 810 q 216 823 214 822 q 220 826 217 823 q 223 837 225 836 q 220 842 221 838 q 218 857 218 854 q 209 877 209 872 q 208 884 209 882 q 197 899 201 898 q 190 903 194 901 q 179 914 187 913 q 167 931 171 929 q 160 937 163 933 q 153 943 157 940 q 144 947 149 947 q 133 959 133 954 q 113 958 117 958 q 106 958 110 959 q 98 955 102 956 q 88 954 94 954 q 78 960 81 956 q 71 962 75 963 q 69 973 72 967 q 73 981 66 979 q 76 994 72 990 q 83 1005 80 998 q 99 1013 96 1004 q 109 1027 102 1021 q 130 1039 122 1031 q 157 1044 151 1046 q 165 1044 163 1042 q 176 1044 175 1042 q 180 1044 178 1046 q 196 1039 194 1038 q 205 1039 198 1040 q 227 1034 221 1038 q 240 1028 232 1029 q 245 1019 239 1020 q 250 1008 251 1017 q 262 996 259 997 q 267 993 266 996 q 279 977 275 982 q 285 967 282 972 q 295 953 292 955 q 300 945 298 951 q 309 932 309 936 q 311 926 309 929 q 315 920 313 922 q 317 913 317 917 q 328 916 324 914 q 335 921 331 918 q 349 930 346 926 q 357 936 353 933 q 377 940 374 941 l 391 947 q 403 956 399 951 q 418 958 416 956 q 435 963 430 963 q 456 968 442 967 q 472 972 467 972 q 483 974 477 972 q 491 976 487 974 q 500 975 495 978 q 527 978 517 974 q 548 985 537 982 q 566 987 562 986 q 571 990 571 987 q 601 989 583 985 q 621 989 613 987 q 636 991 629 991 q 648 991 643 991 q 658 990 652 990 l 686 991 q 704 992 696 991 q 722 991 712 993 q 745 994 738 993 q 760 997 751 996 q 785 998 774 998 q 807 999 803 998 q 815 1000 811 1000 q 825 998 821 1000 q 834 998 829 997 q 852 1002 846 1002 q 861 1002 857 1002 q 872 1002 868 1002 q 883 1005 876 1002 q 892 1017 890 1009 q 905 1029 901 1029 q 920 1046 914 1043 q 940 1074 933 1058 q 947 1078 945 1076 q 954 1082 949 1081 q 971 1097 968 1093 q 981 1104 974 1101 q 998 1120 987 1114 q 1016 1137 1008 1126 q 1025 1140 1023 1137 q 1034 1145 1027 1143 q 1053 1158 1050 1153 q 1065 1164 1057 1162 q 1076 1175 1074 1176 q 1080 1172 1077 1173 q 1095 1181 1088 1180 q 1115 1194 1111 1191 q 1126 1196 1120 1195 q 1135 1203 1131 1198 q 1148 1205 1142 1204 q 1161 1208 1154 1206 q 1171 1212 1166 1210 q 1183 1215 1176 1214 q 1202 1214 1199 1215 q 1208 1213 1206 1213 q 1223 1212 1215 1211 q 1238 1211 1230 1213 q 1246 1204 1241 1207 q 1255 1196 1252 1202 q 1262 1194 1260 1196 q 1271 1191 1264 1191 q 1275 1182 1272 1185 q 1280 1175 1278 1179 q 1286 1161 1284 1168 q 1294 1147 1287 1154 q 1283 1118 1286 1124 q 1278 1103 1280 1111 q 1265 1092 1268 1093 q 1261 1086 1263 1090 q 1251 1078 1253 1085 q 1238 1069 1248 1072 q 1221 1054 1225 1055 q 1211 1049 1215 1048 q 1207 1044 1207 1050 q 1194 1038 1195 1043 q 1168 1025 1176 1028 q 1154 1017 1161 1021 q 1142 1010 1143 1009 q 1139 1010 1141 1010 q 1120 1004 1123 1006 q 1114 1004 1116 1001 q 1098 996 1105 1000 q 1080 991 1090 991 q 1040 975 1051 985 q 1025 973 1032 978 q 1006 970 1019 968 q 989 966 990 967 q 981 964 986 966 q 972 960 977 962 q 957 956 962 960 q 945 954 952 952 q 928 949 932 951 q 921 947 924 948 q 915 935 918 940 q 911 921 911 930 q 896 898 901 905 q 886 884 891 891 q 874 859 878 867 q 865 844 871 850 q 857 827 861 834 q 852 810 852 819 q 839 794 842 796 q 833 789 836 792 q 827 768 827 773 q 826 760 827 764 q 820 744 819 747 q 817 738 821 741 q 812 720 812 726 q 802 708 803 711 q 798 704 800 705 q 798 690 799 693 q 793 685 798 686 q 787 661 793 670 q 777 637 780 651 q 769 629 770 631 q 769 624 768 627 l 758 613 q 755 594 754 594 q 751 587 753 591 q 746 581 749 583 q 739 564 743 567 q 719 528 731 537 q 712 503 715 509 q 711 490 709 496 q 705 484 707 488 q 700 476 703 479 l 699 461 q 690 436 693 445 q 682 423 686 427 q 678 413 682 416 q 674 401 674 410 q 661 382 662 387 q 656 377 661 378 q 651 361 655 366 q 647 347 647 357 q 629 317 636 327 q 620 293 623 308 q 614 286 616 290 q 606 278 612 281 q 603 267 605 271 q 598 256 601 263 q 589 242 591 244 q 589 237 586 240 q 573 216 575 221 q 566 209 571 212 q 561 196 563 201 q 556 189 559 191 q 545 174 547 176 q 541 170 544 172 q 532 157 532 159 q 530 153 532 156 q 524 148 528 151 q 517 141 519 145 q 511 128 515 133 q 506 117 507 123 q 496 109 499 114 q 487 99 492 103 q 473 87 477 92 q 465 75 469 81 q 456 62 456 62 q 442 50 444 52 q 441 43 441 47 q 433 39 434 43 q 426 34 431 35 q 413 16 420 23 q 399 -3 406 8 q 391 -7 393 -4 q 385 -12 389 -11 q 370 -23 373 -23 q 357 -43 362 -41 q 350 -50 353 -45 q 334 -61 339 -61 q 326 -71 328 -69 q 320 -76 323 -73 q 309 -83 312 -80 q 304 -90 305 -85 q 290 -100 296 -98 q 282 -111 283 -103 q 296 -125 293 -119 q 307 -132 302 -127 q 320 -137 312 -136 q 326 -143 323 -141 q 332 -148 330 -145 q 338 -153 335 -151 q 347 -156 342 -156 q 363 -170 350 -164 q 378 -181 376 -178 q 387 -186 381 -184 q 401 -201 393 -195 q 411 -213 408 -210 q 425 -221 425 -220 q 427 -225 425 -222 q 437 -234 434 -233 q 442 -237 439 -235 q 454 -250 452 -250 q 462 -256 460 -254 q 465 -262 464 -259 q 474 -269 473 -267 q 477 -271 475 -270 q 500 -292 495 -286 q 513 -302 511 -302 q 517 -309 514 -305 q 521 -316 519 -313 q 531 -323 528 -319 q 541 -328 534 -327 q 553 -341 549 -339 q 560 -346 556 -343 q 574 -358 570 -354 q 585 -368 578 -362 q 602 -387 597 -384 q 611 -394 609 -391 q 617 -399 613 -397 q 629 -413 627 -411 q 629 -419 631 -415 q 647 -431 639 -420 q 662 -441 652 -441 q 674 -454 671 -450 q 681 -460 677 -457 q 696 -469 694 -471 q 707 -481 705 -480 q 709 -486 709 -483 q 720 -490 715 -488 q 726 -499 724 -492 q 735 -500 732 -498 q 741 -506 738 -503 q 760 -521 758 -517 q 773 -523 766 -518 q 788 -529 780 -528 q 802 -536 798 -532 q 811 -544 806 -541 q 819 -544 817 -541 q 826 -544 821 -547 q 848 -553 834 -553 q 871 -562 867 -562 q 880 -562 876 -562 q 896 -566 888 -564 q 910 -570 903 -568 q 923 -568 917 -570 q 935 -571 929 -567 q 943 -569 939 -568 q 954 -568 948 -570 q 968 -566 962 -566 q 985 -559 982 -560 q 1001 -553 997 -552 q 1008 -547 1005 -553 q 1025 -541 1021 -543 q 1028 -537 1028 -540 q 1044 -529 1038 -536 q 1055 -524 1050 -526 q 1063 -518 1061 -522 q 1082 -510 1078 -514 q 1092 -505 1085 -506 q 1103 -491 1103 -499 q 1119 -477 1116 -487 q 1128 -473 1123 -476 q 1137 -471 1133 -469 q 1139 -483 1139 -480 q 1135 -491 1138 -486 q 1131 -499 1133 -494 q 1122 -507 1128 -505 q 1114 -515 1116 -509 q 1105 -521 1111 -521 q 1095 -530 1099 -526 q 1086 -536 1090 -533 q 1076 -542 1077 -538 q 1073 -547 1076 -545 l 1050 -559 m 1168 1133 q 1158 1135 1162 1130 q 1150 1141 1154 1139 q 1141 1141 1145 1142 q 1133 1139 1138 1141 q 1116 1142 1118 1143 q 1112 1139 1115 1141 q 1099 1131 1100 1135 q 1093 1126 1097 1127 q 1080 1119 1082 1120 q 1067 1115 1072 1119 q 1057 1109 1063 1111 q 1043 1097 1046 1100 q 1034 1092 1040 1093 q 1031 1084 1034 1086 q 1025 1078 1028 1082 q 1015 1067 1019 1069 q 1012 1063 1012 1066 q 1004 1056 1005 1061 q 997 1048 1002 1051 q 981 1032 983 1036 q 977 1021 978 1028 q 989 1023 983 1020 q 1000 1025 994 1025 q 1013 1025 1009 1024 q 1020 1028 1017 1027 q 1040 1032 1039 1032 q 1056 1037 1050 1034 q 1069 1038 1062 1040 q 1086 1043 1076 1043 q 1103 1050 1096 1043 q 1116 1051 1111 1048 q 1127 1057 1122 1054 q 1147 1065 1139 1059 q 1161 1068 1160 1066 q 1165 1067 1162 1070 q 1171 1075 1166 1074 q 1177 1078 1175 1076 q 1177 1087 1176 1085 q 1180 1093 1177 1089 q 1181 1111 1179 1100 q 1177 1117 1180 1115 q 1176 1126 1175 1119 l 1168 1133 m 229 758 l 222 745 q 216 730 217 732 q 214 724 216 727 q 205 711 205 711 q 201 701 203 703 q 201 694 198 699 q 193 684 195 685 q 190 681 191 684 q 188 667 187 674 q 183 654 189 659 q 180 637 184 643 q 174 623 176 631 q 170 581 171 601 q 170 547 170 562 q 173 530 170 537 q 179 515 176 522 q 187 490 183 500 q 205 486 199 486 q 212 480 212 486 q 226 489 224 481 q 225 496 228 496 l 233 513 q 237 522 237 515 q 239 534 237 528 q 243 551 241 551 q 244 553 244 552 q 245 566 243 562 q 247 574 247 571 q 246 583 247 579 q 248 593 245 587 q 250 610 247 601 q 249 620 247 616 q 251 627 251 624 l 250 642 q 248 662 251 659 q 250 682 251 675 q 251 694 250 689 q 250 707 250 703 q 250 718 251 712 q 246 751 250 742 q 240 768 243 761 l 229 758 m 144 -144 q 127 -137 127 -138 q 125 -136 127 -136 q 106 -129 115 -136 q 98 -128 102 -127 q 91 -127 95 -129 q 76 -123 80 -122 q 69 -121 72 -123 q 53 -122 54 -122 q 49 -121 52 -122 q 13 -125 30 -126 q -23 -127 -4 -125 q -38 -136 -38 -134 q -41 -138 -38 -137 q -52 -144 -50 -141 q -54 -148 -53 -146 q -61 -161 -61 -155 q -64 -174 -61 -167 q -60 -182 -61 -176 q -58 -193 -60 -189 q -52 -197 -54 -194 q -45 -199 -50 -199 q -38 -206 -42 -205 q -31 -213 -34 -208 q -16 -217 -18 -218 q -11 -217 -14 -216 q 30 -216 16 -217 q 54 -213 43 -216 q 67 -206 65 -205 q 72 -208 69 -208 q 91 -195 80 -201 q 109 -186 102 -190 q 123 -176 122 -176 q 127 -172 125 -175 q 142 -165 141 -167 q 148 -164 144 -164 q 153 -147 155 -151 q 144 -144 151 -144 m 590 1192 q 581 1195 586 1195 q 571 1194 575 1195 q 562 1201 567 1198 q 553 1211 557 1204 q 549 1217 552 1214 q 543 1223 545 1221 q 529 1234 536 1230 q 519 1249 522 1238 q 510 1255 514 1252 q 499 1261 506 1259 q 491 1275 491 1275 q 481 1286 483 1284 q 477 1291 479 1287 q 461 1297 464 1297 q 457 1302 458 1298 q 435 1308 446 1302 q 427 1310 431 1309 q 415 1313 422 1310 q 395 1314 399 1316 q 389 1314 392 1312 q 391 1331 381 1324 q 407 1336 400 1339 q 425 1336 419 1339 q 440 1352 437 1350 q 450 1355 444 1355 q 465 1355 463 1354 q 471 1355 468 1356 q 481 1353 476 1355 q 491 1352 486 1351 q 498 1349 494 1350 q 505 1345 502 1348 q 528 1342 522 1347 q 543 1337 534 1337 q 561 1327 555 1328 q 570 1322 567 1326 q 582 1310 579 1312 q 587 1305 585 1308 q 602 1301 602 1305 q 605 1297 602 1298 q 621 1298 614 1294 q 633 1306 627 1302 q 648 1308 640 1306 q 663 1313 655 1310 q 682 1322 674 1317 q 706 1322 699 1321 q 716 1331 713 1324 q 742 1335 734 1331 q 761 1340 750 1339 q 779 1347 773 1344 q 788 1352 785 1350 q 803 1352 795 1350 q 818 1352 811 1355 q 831 1326 831 1340 q 823 1318 826 1318 q 821 1314 821 1317 q 800 1302 807 1314 q 784 1297 787 1297 q 768 1290 774 1290 q 756 1287 761 1287 q 745 1293 751 1287 q 733 1291 741 1290 q 724 1287 726 1291 q 714 1284 718 1287 q 704 1280 711 1280 q 690 1270 693 1271 q 685 1268 688 1270 q 673 1260 673 1263 q 674 1257 673 1257 q 666 1247 665 1248 q 667 1244 667 1246 q 639 1226 648 1230 q 623 1215 629 1222 q 612 1214 614 1218 q 604 1211 610 1210 q 593 1199 597 1199 q 590 1192 589 1199 z "},"":{"ha":568,"x_min":-42,"x_max":764,"o":"m 743 -66 q 732 -77 734 -75 q 728 -81 731 -79 q 722 -90 726 -87 q 713 -98 718 -94 q 695 -111 700 -110 q 688 -118 690 -113 q 674 -120 675 -121 q 670 -121 673 -119 q 651 -128 655 -129 q 646 -133 647 -127 q 631 -138 633 -134 q 627 -142 629 -142 q 609 -152 609 -152 q 593 -156 601 -156 q 581 -160 587 -159 q 568 -164 575 -161 q 547 -166 552 -165 q 538 -170 541 -167 q 530 -168 532 -168 q 524 -170 529 -167 q 508 -163 511 -160 q 498 -164 505 -165 q 480 -161 484 -159 q 473 -165 476 -163 q 458 -159 465 -163 q 441 -156 452 -156 q 428 -151 429 -149 q 423 -152 427 -153 q 409 -143 415 -146 q 400 -134 403 -140 q 381 -131 384 -133 q 374 -127 378 -129 q 364 -121 365 -121 q 359 -119 363 -122 q 349 -113 353 -113 q 343 -113 346 -114 l 328 -104 q 317 -92 321 -98 q 309 -89 312 -92 q 300 -85 307 -85 q 286 -77 296 -79 q 273 -66 277 -75 q 256 -60 262 -60 q 248 -53 250 -60 q 236 -47 239 -53 q 225 -42 233 -42 q 201 -24 203 -31 q 189 -22 190 -24 q 184 -18 187 -20 q 169 -14 174 -14 q 161 -12 164 -15 q 152 -6 155 -8 q 144 -1 149 -4 q 127 7 130 5 q 123 11 125 8 q 113 13 115 12 q 107 16 110 14 q 90 22 92 24 q 84 22 88 20 q 53 28 61 30 q 38 27 45 27 q 17 28 23 31 q 5 26 11 26 q -18 27 -9 27 q -37 26 -27 27 q -41 37 -39 37 q -42 41 -42 38 q -33 57 -38 52 q -22 65 -28 62 l -8 76 q 12 85 5 84 q 18 94 18 85 q 34 96 27 91 q 49 100 41 100 q 60 99 54 100 q 69 98 65 98 q 86 98 81 99 q 95 98 91 98 q 117 106 114 104 q 129 115 126 114 q 134 118 132 115 q 164 138 155 132 q 172 146 170 142 q 178 153 175 151 q 190 161 186 156 q 201 170 194 167 q 211 179 209 178 q 216 182 213 180 q 226 191 222 186 q 236 198 229 195 q 245 209 240 205 q 255 217 250 213 q 265 225 264 222 q 270 228 266 228 q 280 239 278 236 q 283 243 282 241 q 289 248 286 245 q 293 255 292 250 q 304 263 301 256 q 313 271 307 270 q 329 290 324 288 q 338 298 334 293 l 349 311 q 360 327 358 324 q 365 331 362 330 q 377 346 376 343 q 382 350 378 349 q 393 366 391 363 q 396 373 395 368 q 404 379 401 374 q 408 389 406 384 q 419 401 418 399 q 423 403 420 403 q 430 416 426 410 q 441 425 434 422 q 444 433 441 430 q 449 439 446 437 q 463 457 457 456 q 450 471 460 473 q 430 467 441 468 q 418 467 423 465 q 407 465 412 468 q 384 467 396 467 q 362 464 369 461 q 349 464 355 467 q 333 468 335 469 q 328 465 331 467 q 312 466 312 468 q 309 464 312 464 q 298 466 304 467 q 286 467 293 465 q 248 469 258 473 q 241 474 245 472 q 235 476 237 476 q 215 473 220 472 q 205 475 210 475 q 182 471 187 471 q 171 472 176 472 q 163 470 167 472 q 156 471 159 468 q 145 467 148 468 q 137 468 142 467 q 121 461 126 467 q 110 453 115 456 q 94 437 96 444 q 91 423 92 430 q 81 422 84 427 q 73 416 79 416 q 57 404 60 408 q 47 397 54 399 q 37 397 41 400 q 33 388 33 395 l 19 381 q 10 379 15 378 q 3 377 5 380 q -3 382 0 380 q -8 388 -5 384 q -4 396 -5 393 q -5 406 -3 399 q 3 413 1 412 q 7 415 5 414 q 10 427 9 426 q 11 430 11 427 q 18 434 15 431 q 26 439 22 437 q 37 450 35 449 q 41 453 38 452 q 52 465 53 464 q 53 468 52 465 q 65 475 62 471 q 71 481 68 479 q 86 489 83 488 q 90 495 90 490 q 104 505 100 498 q 120 509 119 507 q 122 511 121 510 q 137 517 137 514 q 150 517 149 518 q 152 517 151 517 q 172 528 168 525 q 187 530 187 530 q 189 529 187 529 q 198 531 191 529 q 208 533 205 533 q 217 532 214 532 q 222 530 220 533 q 247 537 231 536 q 265 538 260 540 q 275 538 270 537 q 288 538 286 540 q 293 537 290 537 q 308 537 307 538 q 312 536 309 536 q 324 536 323 537 q 328 536 326 536 q 340 531 335 534 q 353 528 346 528 q 361 527 357 526 q 368 528 365 528 q 375 524 372 526 q 382 522 378 522 q 398 523 397 521 q 401 524 399 525 q 420 520 418 518 q 426 519 422 522 q 461 524 450 521 q 480 525 472 528 q 493 524 492 525 q 496 524 494 522 q 505 526 500 524 q 517 528 510 528 q 537 536 532 534 q 547 534 543 538 q 574 540 566 538 q 591 538 582 541 q 594 522 594 532 q 581 510 583 511 q 576 507 579 509 q 562 491 564 495 q 557 484 560 487 q 547 474 549 475 q 543 471 544 473 q 534 452 537 454 q 529 445 530 450 q 515 429 518 431 q 511 420 513 426 q 496 407 500 416 q 479 384 481 395 q 465 374 477 373 q 453 359 456 361 q 445 355 450 357 q 445 346 446 349 q 441 340 444 343 q 436 335 438 338 q 435 327 434 332 q 420 317 422 320 q 415 313 418 315 q 407 300 412 304 q 399 289 401 297 q 378 277 380 283 q 369 269 376 271 q 358 255 359 258 q 353 251 357 252 q 348 241 349 243 q 345 237 347 239 q 331 229 331 231 q 330 224 331 227 q 315 214 317 213 q 311 212 312 214 q 301 198 308 205 q 289 187 293 190 q 281 182 283 183 q 277 178 279 180 q 267 165 269 172 q 252 157 252 159 q 248 153 251 155 l 233 142 q 221 132 229 140 q 201 120 209 127 q 182 107 193 113 q 168 98 170 99 q 176 94 171 94 q 186 91 180 94 q 201 82 195 83 q 210 77 208 81 q 233 69 224 69 q 240 64 236 65 q 248 61 244 62 q 254 56 251 58 q 264 53 258 53 q 277 45 274 49 q 285 45 279 42 q 294 39 289 42 q 305 35 298 37 q 320 24 307 30 q 327 20 323 22 q 336 18 331 18 q 345 11 339 12 q 353 3 350 9 q 374 -8 365 -1 q 393 -23 384 -15 q 410 -35 410 -27 q 426 -47 420 -45 q 438 -50 431 -49 q 448 -58 448 -56 q 454 -60 449 -61 q 464 -68 463 -65 q 472 -69 465 -71 q 482 -76 475 -75 q 494 -84 490 -77 q 514 -96 511 -84 q 536 -104 529 -103 q 551 -110 544 -106 q 562 -110 557 -107 q 574 -114 567 -113 q 585 -114 579 -114 q 593 -118 590 -114 q 608 -116 600 -114 q 623 -114 617 -118 q 642 -109 636 -113 q 651 -109 647 -106 q 659 -97 655 -102 q 671 -90 663 -92 q 676 -79 674 -84 q 684 -72 678 -75 q 698 -63 692 -64 q 707 -58 704 -62 q 715 -54 715 -58 q 719 -47 716 -50 q 743 -23 739 -37 q 755 -24 751 -20 q 762 -30 758 -27 q 762 -38 760 -35 q 761 -47 764 -41 q 748 -56 746 -54 q 747 -60 750 -57 l 743 -66 m 328 637 q 319 640 324 640 q 309 639 313 640 q 300 646 305 643 q 292 656 296 650 q 287 663 290 659 q 281 669 283 666 q 267 680 274 675 q 258 694 260 684 q 248 701 252 697 q 237 707 244 704 q 229 720 229 720 q 219 731 221 730 q 216 736 217 732 q 199 743 202 742 q 195 747 197 743 q 174 753 184 747 q 165 755 170 754 q 153 758 160 755 q 134 759 137 761 q 127 760 130 757 q 129 777 119 769 q 145 781 138 784 q 163 781 157 784 q 178 798 175 795 q 189 800 182 800 q 203 800 201 799 q 209 800 206 802 q 219 798 214 800 q 229 798 224 796 q 236 794 232 795 q 243 791 240 793 q 267 787 260 792 q 281 783 273 783 q 299 772 293 773 q 308 768 305 772 q 320 755 317 757 q 326 750 323 753 q 340 747 340 750 q 343 742 340 743 q 359 743 353 739 q 372 751 365 747 q 386 753 378 751 q 401 758 393 755 q 420 768 412 762 q 444 768 437 766 q 454 776 452 769 q 480 780 472 776 q 499 785 488 784 q 517 792 511 789 q 526 798 524 795 q 541 798 533 795 q 556 798 549 800 q 570 772 570 785 q 562 763 564 764 q 559 760 559 762 q 538 747 545 760 q 522 742 525 742 q 506 735 513 735 q 494 732 499 732 q 483 738 490 732 q 471 736 479 735 q 463 732 464 736 q 452 729 456 732 q 442 726 449 726 q 429 715 431 716 q 423 713 426 715 q 411 705 411 708 q 412 703 411 703 q 404 692 403 693 q 406 689 406 692 q 377 671 387 675 q 361 661 368 667 q 351 659 353 663 q 342 656 349 655 q 331 644 335 644 q 328 637 327 644 z "},"":{"ha":736,"x_min":0,"x_max":751,"o":"m 581 115 q 574 98 576 103 q 566 90 572 92 q 558 77 559 79 q 559 72 557 76 q 550 68 552 72 q 541 64 548 65 q 532 49 538 54 q 519 38 526 43 l 514 23 l 505 1 q 486 -12 488 -5 q 476 -19 483 -18 q 460 -35 461 -31 q 457 -41 458 -38 q 448 -50 448 -46 q 442 -52 448 -53 q 440 -64 438 -62 q 445 -68 442 -65 q 463 -69 458 -65 q 477 -72 476 -71 q 481 -75 479 -73 q 496 -77 491 -75 q 506 -78 500 -79 q 515 -79 511 -77 q 528 -83 524 -83 q 533 -88 532 -83 q 547 -87 538 -85 q 563 -90 556 -88 q 576 -90 572 -88 q 582 -92 579 -91 q 590 -93 586 -94 q 597 -92 594 -92 q 612 -91 612 -92 q 613 -90 612 -90 q 627 -87 624 -85 q 632 -88 629 -88 q 647 -83 646 -83 q 665 -76 661 -76 q 680 -67 677 -66 q 685 -65 684 -68 q 697 -56 700 -62 q 722 -42 712 -52 q 734 -43 734 -46 q 738 -41 734 -39 q 748 -45 745 -41 q 749 -54 751 -50 q 741 -61 747 -61 q 738 -69 735 -61 q 719 -71 724 -71 q 707 -78 707 -76 q 707 -81 708 -80 q 697 -86 701 -81 q 686 -92 693 -91 q 669 -99 671 -95 q 661 -106 667 -103 q 645 -108 646 -106 q 642 -111 644 -110 q 625 -116 627 -117 q 618 -115 623 -115 q 612 -120 614 -117 q 602 -121 610 -123 q 597 -126 600 -123 q 590 -130 594 -129 q 582 -131 587 -132 q 574 -132 576 -130 q 566 -133 571 -134 q 556 -132 560 -132 q 545 -134 549 -133 q 536 -133 541 -134 q 524 -137 525 -138 q 521 -136 524 -136 q 509 -141 513 -141 q 502 -140 505 -141 q 494 -142 499 -142 q 483 -142 490 -141 q 470 -143 476 -142 q 458 -144 464 -144 q 444 -139 446 -138 q 439 -140 442 -140 q 425 -134 429 -134 q 419 -130 422 -134 q 402 -131 411 -133 q 388 -123 393 -129 q 370 -124 373 -123 q 365 -125 368 -125 l 345 -121 q 327 -115 330 -117 q 307 -113 313 -111 q 298 -110 301 -115 q 251 -110 277 -107 q 243 -112 247 -111 q 236 -115 239 -113 q 212 -117 224 -110 q 203 -115 208 -118 q 197 -115 199 -113 q 191 -100 189 -102 q 191 -95 194 -99 q 208 -85 201 -91 q 221 -76 214 -80 q 241 -68 239 -73 q 254 -62 254 -61 q 258 -64 255 -64 q 279 -54 274 -60 q 298 -52 293 -54 q 324 -51 319 -52 q 335 -50 330 -50 q 349 -50 343 -50 q 362 -47 355 -50 q 374 -38 372 -41 q 378 -33 376 -35 q 391 -18 389 -19 q 396 -14 393 -16 q 408 -1 408 -3 q 410 1 408 0 q 423 19 418 14 q 431 35 429 24 l 442 46 q 451 58 449 53 q 457 64 453 62 q 464 76 465 75 q 464 80 463 77 q 474 89 471 88 q 476 96 477 90 q 494 117 491 110 q 503 130 498 125 q 509 144 510 144 q 509 148 509 145 q 517 161 517 156 q 522 178 522 171 q 524 193 522 184 q 528 215 528 210 q 530 222 528 220 q 530 233 528 228 q 532 243 532 239 q 533 258 533 255 q 532 272 530 269 q 530 279 533 275 q 518 296 532 293 q 509 317 517 315 q 498 326 502 319 q 481 318 486 324 q 471 308 476 312 q 468 290 469 293 q 466 276 465 278 q 465 271 467 274 q 456 254 458 258 q 453 243 454 250 q 441 234 439 235 q 441 231 444 233 q 416 225 425 228 q 401 216 408 222 q 391 214 392 216 q 387 210 389 212 q 377 210 382 209 q 368 209 372 210 q 361 205 363 208 q 354 201 358 203 q 350 216 350 210 q 342 221 350 222 q 350 243 343 235 q 359 264 353 263 q 362 283 362 281 q 380 304 376 300 q 385 316 384 309 q 406 336 396 323 q 423 349 416 346 q 435 357 430 351 q 452 365 449 359 q 463 369 460 365 q 476 372 467 373 q 494 380 483 378 q 511 387 505 381 q 526 392 522 387 q 538 390 537 391 q 541 389 540 389 q 555 391 552 392 q 563 388 559 389 q 576 387 570 387 q 587 382 582 387 q 604 372 601 382 q 614 371 610 373 q 621 368 617 369 q 627 359 624 363 q 636 353 631 355 q 640 340 636 346 q 644 327 643 334 q 644 316 643 317 q 646 312 644 315 q 647 303 647 308 q 650 296 647 298 q 647 281 646 290 q 646 263 648 273 q 642 245 642 252 q 640 233 639 235 q 640 229 640 232 q 637 219 639 224 q 636 209 636 214 q 635 194 636 194 q 635 191 635 194 q 631 175 631 178 q 626 167 628 171 q 620 160 624 163 q 613 145 616 149 q 606 137 610 141 q 598 127 600 129 q 594 125 597 125 q 585 117 586 119 q 581 115 583 115 m 146 838 q 161 838 160 834 q 164 838 161 841 q 174 823 176 823 q 174 806 175 807 q 167 800 171 802 q 161 792 163 798 q 162 782 161 789 q 164 772 163 774 q 170 738 172 750 q 170 715 167 726 q 170 698 167 700 q 172 692 172 696 q 171 686 174 689 q 168 677 168 682 q 161 665 163 667 q 156 663 160 662 q 165 649 163 651 q 168 644 167 647 q 168 628 164 628 q 171 613 164 620 q 168 594 168 602 q 167 572 167 586 q 160 556 159 557 q 164 552 161 555 l 164 529 q 163 515 165 519 q 161 505 161 511 q 165 488 165 492 q 167 479 164 483 q 162 465 165 464 q 159 465 159 467 q 165 449 163 449 q 171 448 168 449 q 174 436 174 442 q 176 423 175 430 q 170 417 174 419 q 165 408 165 415 q 151 401 155 403 q 142 397 146 400 q 115 391 123 396 q 98 385 106 385 q 77 376 87 377 q 60 378 66 374 q 58 387 57 381 q 53 393 58 393 q 59 419 60 408 q 58 441 58 430 q 60 450 58 445 q 61 458 61 456 q 60 466 61 463 q 58 473 58 469 q 60 481 58 477 q 58 490 61 486 q 62 503 61 499 q 64 510 64 506 q 64 522 62 518 q 65 528 65 525 q 65 541 64 538 q 66 545 66 543 q 66 559 65 556 q 68 564 68 562 q 72 589 68 586 q 69 612 69 602 q 71 629 72 627 q 71 633 71 631 q 71 648 72 644 q 69 654 69 651 q 71 687 71 675 q 71 709 71 699 q 71 731 69 723 q 66 743 73 739 q 53 737 56 739 q 46 734 50 735 q 31 726 33 727 q 30 720 30 724 q 17 723 18 722 q 14 726 16 724 q 0 734 5 731 l 5 751 q 11 763 11 761 q 12 766 11 765 q 24 776 18 773 q 41 780 39 780 q 45 783 42 780 q 56 789 54 788 q 61 793 58 791 q 69 806 66 802 q 79 812 72 810 q 92 819 90 821 q 96 818 94 817 q 100 825 99 821 q 106 830 102 829 q 131 832 119 833 q 146 838 142 831 m 495 628 q 494 621 498 625 q 494 610 491 616 q 488 602 491 604 q 487 593 486 600 q 472 577 476 581 q 468 566 468 574 q 455 551 457 552 q 454 543 453 549 q 448 536 450 540 q 444 529 446 532 q 435 516 438 518 q 429 511 431 514 q 418 496 419 502 q 411 487 416 490 q 406 472 406 472 l 393 460 l 385 446 q 380 441 382 444 q 374 433 377 438 q 365 422 365 423 q 363 418 365 420 q 359 412 362 415 q 357 404 357 408 q 349 400 350 404 q 340 395 347 396 q 327 378 330 381 q 321 372 324 374 q 313 357 313 359 q 312 351 313 354 q 297 341 297 342 q 294 339 297 340 q 281 321 283 326 q 274 313 279 316 q 272 306 271 311 q 271 298 273 301 q 264 289 264 290 q 259 289 263 288 q 252 274 258 278 q 244 259 247 270 q 235 252 237 255 q 232 247 233 250 q 224 237 229 243 q 213 228 220 231 q 203 212 206 213 q 201 208 201 210 q 184 191 190 194 q 178 180 178 189 q 170 172 170 175 q 170 167 171 170 q 163 151 163 153 q 164 149 164 148 q 155 133 161 141 q 138 127 149 125 q 123 119 125 121 q 119 119 122 117 q 111 115 117 117 q 103 110 106 114 q 85 107 90 107 q 79 106 81 107 q 64 101 65 103 q 60 100 64 99 q 51 106 54 103 q 42 111 47 109 q 41 119 39 117 q 41 126 43 122 q 54 146 50 137 q 78 164 72 157 q 90 180 84 171 q 98 189 96 184 q 106 193 99 193 q 119 214 107 208 q 124 224 121 221 q 132 231 127 228 q 142 245 134 241 q 153 259 151 248 q 170 282 164 278 q 178 297 175 286 q 189 307 186 305 q 193 311 191 308 q 201 326 201 324 q 203 328 201 327 q 218 342 216 342 q 231 358 228 357 q 235 365 233 359 q 244 374 243 373 q 245 380 245 376 q 250 385 250 381 q 256 391 251 389 q 262 399 256 397 q 267 408 267 401 q 280 424 275 420 q 286 437 285 427 q 294 442 292 438 q 301 449 296 446 q 311 465 304 460 q 321 481 317 471 q 339 503 334 500 q 353 524 347 519 q 359 538 358 529 q 370 548 369 547 q 370 555 370 549 q 377 559 376 556 q 384 564 378 563 q 395 583 392 579 q 400 590 397 586 q 404 602 404 600 q 407 605 403 605 q 426 618 419 613 q 444 621 433 624 q 463 629 460 625 q 475 632 467 633 q 495 628 490 632 z "},"":{"ha":754,"x_min":14,"x_max":742,"o":"m 160 838 q 174 838 174 834 q 178 838 175 841 q 187 823 190 823 q 187 806 189 807 q 180 800 184 802 q 175 792 176 798 q 176 782 175 789 q 178 772 176 774 q 183 738 186 750 q 183 715 180 726 q 183 698 180 700 q 186 692 186 696 q 184 686 187 689 q 182 677 182 682 q 175 665 176 667 q 170 663 174 662 q 178 649 176 651 q 182 644 180 647 q 182 628 178 628 q 184 613 178 620 q 181 594 182 602 q 180 572 180 586 q 174 556 172 557 q 178 552 175 555 l 178 529 q 177 515 179 519 q 175 505 175 511 q 178 488 179 492 q 180 479 178 483 q 176 465 179 464 q 172 465 172 467 q 179 449 176 449 q 184 448 182 449 q 188 436 187 442 q 190 423 189 430 q 183 417 187 419 q 179 408 179 415 q 164 401 168 403 q 157 397 160 400 q 128 391 137 396 q 111 385 119 385 q 90 376 100 377 q 73 378 80 374 q 71 387 71 381 q 66 393 72 393 q 73 419 73 408 q 72 441 72 430 q 73 450 72 445 q 75 458 75 456 q 73 466 75 463 q 72 473 72 469 q 73 481 72 477 q 72 490 75 486 q 76 503 75 499 q 77 510 77 506 q 77 522 76 518 q 79 528 79 525 q 79 541 77 538 q 80 545 80 543 q 80 559 79 556 q 81 564 81 562 q 85 589 81 586 q 83 612 83 602 q 85 629 85 627 q 84 633 84 631 q 84 648 85 644 q 83 654 83 651 q 84 687 84 675 q 84 709 84 699 q 85 731 83 723 q 80 743 87 739 q 66 737 69 739 q 60 734 64 735 q 45 726 46 727 q 43 720 43 724 q 31 723 33 722 q 27 726 30 724 q 14 734 19 731 l 19 751 q 24 763 24 761 q 26 766 24 765 q 39 776 33 773 q 54 780 53 780 q 58 783 56 780 q 70 789 68 788 q 75 793 72 791 q 83 806 80 802 q 94 812 87 810 q 105 819 103 821 q 110 818 107 817 q 114 825 113 821 q 119 830 115 829 q 145 832 133 833 q 160 838 157 831 m 509 628 q 509 621 511 625 q 507 610 506 616 q 503 602 506 604 q 502 593 500 600 q 486 577 490 581 q 481 566 481 574 q 469 551 471 552 q 468 543 467 549 q 462 536 464 540 q 457 529 460 532 q 444 511 452 517 q 432 496 434 502 q 425 487 430 490 q 419 472 419 472 l 407 460 l 399 446 q 394 441 396 444 q 389 433 392 438 q 380 422 380 423 q 378 418 380 420 q 374 412 377 415 q 370 404 370 408 q 362 400 363 404 q 354 395 361 396 q 340 378 343 381 q 335 372 338 374 q 328 357 328 359 q 327 351 328 354 q 317 345 320 345 q 313 343 315 345 q 307 334 308 336 q 304 327 305 331 q 295 321 297 326 q 288 313 293 316 q 286 306 285 311 q 285 298 286 301 q 267 274 273 278 q 258 259 260 270 q 249 252 251 255 q 245 247 247 250 q 238 237 243 243 q 227 228 233 231 q 218 212 220 213 q 216 208 216 210 q 198 191 205 194 q 191 180 191 189 q 184 172 183 175 q 183 167 184 170 q 177 151 176 153 q 178 149 178 148 q 169 133 175 141 q 153 127 163 125 q 137 119 138 121 q 133 119 136 117 q 125 115 130 117 q 117 110 119 114 q 100 107 103 107 q 94 106 96 107 q 78 101 79 103 q 73 100 77 99 q 64 106 68 103 q 56 111 61 109 q 55 119 53 117 q 54 126 57 122 q 68 146 64 137 q 93 164 87 157 q 103 180 99 171 q 111 189 110 184 q 119 193 113 193 q 133 214 121 208 q 146 231 134 224 q 157 245 149 241 q 167 259 164 248 q 183 282 178 278 q 191 297 189 286 q 203 307 201 305 q 208 311 206 308 q 215 326 216 324 q 217 328 214 327 q 232 342 229 342 q 244 358 241 357 q 248 365 247 359 q 258 374 256 373 q 259 380 259 376 q 265 385 264 381 q 271 391 266 389 q 276 399 271 397 q 281 408 281 401 q 294 424 289 420 q 300 437 298 427 q 307 442 305 438 q 315 449 309 446 q 325 465 317 460 q 335 481 332 471 q 353 503 347 500 q 366 524 361 519 q 373 538 372 529 q 385 548 384 547 q 385 555 385 549 q 391 559 389 556 q 397 564 392 563 q 408 583 406 579 q 414 590 411 586 q 417 602 418 600 q 420 605 416 605 q 441 618 434 613 q 457 621 448 624 q 477 629 473 625 q 488 632 480 633 q 509 628 505 632 m 537 355 q 534 348 536 350 q 528 342 532 346 q 510 304 521 315 q 529 309 526 305 q 539 312 534 311 q 547 316 544 313 q 564 318 557 316 q 581 320 570 320 q 583 309 582 315 q 586 296 585 302 q 586 288 586 292 q 589 281 586 283 q 587 273 586 278 q 586 266 589 269 q 590 239 587 248 q 590 224 593 231 q 584 212 585 216 q 589 209 583 208 q 589 191 591 193 q 586 187 586 190 q 588 169 586 176 q 586 153 590 161 q 588 144 587 149 q 586 134 589 138 q 582 120 582 122 q 585 117 582 118 q 583 107 583 113 q 581 99 583 102 q 580 87 582 88 q 578 83 578 87 q 581 72 579 76 q 582 64 583 68 q 591 62 585 60 q 605 64 598 65 q 630 68 623 66 q 646 72 637 71 q 651 79 650 75 q 659 84 652 84 q 663 95 659 91 q 669 104 666 99 q 684 113 684 106 q 690 117 689 113 q 697 123 692 122 q 712 134 708 134 q 722 136 716 134 q 735 131 734 127 q 739 132 736 134 q 740 121 742 127 q 741 110 738 115 q 734 101 738 104 q 730 92 731 98 q 720 91 723 94 q 712 85 718 88 q 703 78 704 81 q 700 72 703 75 q 692 68 694 72 q 684 64 690 64 q 669 52 673 57 q 655 47 665 47 q 637 45 643 42 q 618 37 623 42 q 605 34 613 31 q 589 26 593 30 q 579 19 585 22 q 577 3 579 7 q 575 -7 575 -1 q 574 -18 574 -12 q 571 -27 575 -23 q 574 -50 571 -45 q 582 -68 581 -64 q 583 -76 583 -72 q 590 -90 590 -80 q 601 -100 593 -100 q 601 -120 601 -115 q 598 -127 601 -125 q 586 -130 590 -126 q 579 -136 582 -133 q 566 -134 574 -133 q 559 -141 557 -134 l 540 -141 q 532 -146 536 -142 q 521 -148 528 -149 q 512 -153 518 -153 q 506 -159 506 -152 q 487 -157 496 -153 q 481 -150 484 -153 q 471 -146 477 -146 q 474 -133 476 -134 q 472 -127 472 -132 q 481 -111 481 -113 q 482 -102 483 -107 q 481 -92 481 -98 q 481 -62 484 -80 q 483 -45 484 -49 q 484 -39 481 -42 q 481 -28 480 -35 q 479 -16 481 -20 q 481 -7 481 -12 q 483 4 481 -1 q 460 5 469 5 q 444 4 452 4 q 435 5 439 4 q 427 3 430 7 q 408 1 414 5 q 370 8 385 3 q 347 5 357 5 q 332 5 334 4 q 328 4 331 5 q 320 1 324 3 q 312 1 316 -1 q 298 -3 298 -1 q 294 -4 297 -4 q 275 -7 275 -7 q 250 -16 258 -11 q 236 -19 243 -20 q 216 -31 218 -24 q 191 -34 205 -30 q 186 -23 186 -31 q 182 -11 186 -15 q 189 -3 184 -5 q 195 4 193 0 q 205 7 202 4 q 210 12 208 9 q 229 16 220 9 q 241 30 239 23 q 245 42 243 37 q 264 55 260 52 q 271 61 267 58 q 308 92 296 69 q 321 108 317 103 q 330 117 326 113 q 336 128 335 126 q 339 132 336 130 q 347 143 347 140 q 349 149 347 146 q 365 178 361 170 q 377 191 369 186 q 380 202 374 198 q 381 209 387 206 q 389 220 388 213 q 397 232 391 228 q 401 243 399 241 q 406 245 403 245 q 406 257 404 255 q 410 262 408 259 q 416 281 415 274 q 422 292 416 289 q 430 312 426 308 q 435 330 435 326 q 437 338 435 334 q 464 355 454 354 q 475 361 473 359 q 479 361 476 363 q 511 370 492 370 q 526 369 524 374 q 534 363 528 363 l 537 355 m 481 243 q 467 233 471 233 q 458 216 460 221 q 450 212 457 212 q 448 196 453 201 q 441 186 444 191 q 439 171 439 172 q 429 146 430 157 q 422 141 423 144 q 416 137 420 138 q 411 125 415 130 q 407 114 407 121 q 397 100 400 109 q 387 88 395 92 q 378 73 380 75 q 374 71 377 72 q 389 68 388 65 q 392 68 389 71 q 402 64 399 66 q 412 65 406 62 q 420 63 414 61 q 429 62 426 65 q 449 62 444 62 q 465 62 456 64 q 483 61 475 61 q 492 60 487 61 q 499 62 496 58 q 491 68 492 64 q 490 79 490 73 q 490 90 490 84 q 487 99 490 95 q 491 116 494 106 q 495 133 488 126 q 492 151 494 149 q 491 155 490 153 q 494 172 495 168 q 494 179 494 175 q 491 195 491 194 q 494 204 494 198 q 498 214 495 210 q 492 225 492 218 q 488 237 492 232 q 492 246 492 241 q 488 256 491 251 q 479 250 476 251 q 481 243 483 248 z "},"":{"ha":220,"x_min":7,"x_max":183,"o":"m 153 838 q 168 838 167 834 q 171 838 168 841 q 180 823 183 823 q 180 806 182 807 q 174 800 178 802 q 168 792 170 798 q 169 782 168 789 q 171 772 170 774 q 176 738 179 750 q 176 715 174 726 q 176 698 174 700 q 179 692 179 696 q 178 686 180 689 q 175 677 175 682 q 168 665 170 667 q 163 663 167 662 q 172 649 170 651 q 175 644 174 647 q 175 628 171 628 q 178 613 171 620 q 174 594 175 602 q 174 572 174 586 q 167 556 165 557 q 171 552 168 555 l 171 529 q 170 515 172 519 q 168 505 168 511 q 172 488 172 492 q 174 479 171 483 q 169 465 172 464 q 165 465 165 467 q 172 449 170 449 q 178 448 175 449 q 181 436 180 442 q 183 423 182 430 q 176 417 180 419 q 172 408 172 415 q 157 401 161 403 q 151 397 153 400 q 121 391 130 396 q 104 385 113 385 q 83 376 94 377 q 66 378 73 374 q 64 387 64 381 q 60 393 65 393 q 66 419 66 408 q 65 441 65 430 q 66 450 65 445 q 68 458 68 456 q 66 466 68 463 q 65 473 65 469 q 66 481 65 477 q 65 490 68 486 q 69 503 68 499 q 71 510 71 506 q 71 522 69 518 q 72 528 72 525 q 72 541 71 538 q 73 545 73 543 q 73 559 72 556 q 75 564 75 562 q 79 589 75 586 q 76 612 76 602 q 78 629 79 627 q 77 633 77 631 q 77 648 79 644 q 76 654 76 651 q 77 687 77 675 q 77 709 77 699 q 78 731 76 723 q 73 743 80 739 q 60 737 62 739 q 53 734 57 735 q 38 726 39 727 q 37 720 37 724 q 24 723 24 722 q 20 726 23 724 q 7 734 12 731 l 12 751 q 18 763 18 761 q 19 766 18 765 q 31 776 24 773 q 47 780 46 780 q 52 783 49 780 q 63 789 61 788 q 68 793 65 791 q 76 806 73 802 q 85 812 79 810 q 98 819 96 821 q 103 818 100 817 q 107 825 106 821 q 113 830 109 829 q 138 832 126 833 q 153 838 151 831 z "}}}
